<?xml version="1.0" encoding="UTF-8" standalone="no"?>
<!DOCTYPE svg  PUBLIC '-//W3C//DTD SVG 1.1//EN'  'http://www.w3.org/Graphics/SVG/1.1/DTD/svg11.dtd'>
<svg xmlns="http://www.w3.org/2000/svg">
<defs>
<font id="ProximaNovaCond-SemiboldIt" horiz-adv-x="518">
<font-face underline-position="-113" font-weight="600" descent="-210" panose-1="2 0 5 6 3 0 0 2 0 4" units-per-em="1000" unicode-range="U+0020-FB04" bbox="-156 -273 960 882" x-height="483" underline-thickness="20" font-family="ProximaNovaCond" ascent="790" font-style="italic" cap-height="667"/>
<missing-glyph horiz-adv-x="1000"/>
<glyph glyph-name="f_f_j" horiz-adv-x="763" unicode="ffj" d="M726 544q-24 0 -40 15.5t-16 38.5q0 31 22 50.5t48 19.5q24 0 40.5 -15.5t16.5 -37.5q0 -32 -22.5 -51.5t-48.5 -19.5zM487 -196q-68 0 -98 36l44 73q15 -23 45 -23q48 0 63 69l116 524h99l-116 -524q-18 -79 -53.5 -117t-99.5 -38zM397 0h-99l88 396h-63l19 87h63l9 44 q33 150 153 150q46 0 81 -19l-36 -77q-14 10 -35 10q-49 0 -63 -64l-10 -44h80l-19 -87h-80zM124 0h-99l88 396h-63l19 87h63l9 44q34 150 153 150q68 0 103 -37l-48 -69q-17 20 -45 20q-49 0 -63 -64l-10 -44h80l-19 -87h-80z"/>
<glyph glyph-name="f_j" horiz-adv-x="490" unicode="fj" d="M454 544q-24 0 -40 15.5t-16 38.5q0 31 22 50.5t48 19.5q24 0 40.5 -15.5t16.5 -37.5q0 -32 -22.5 -51.5t-48.5 -19.5zM215 -196q-68 0 -98 36l44 73q15 -23 45 -23q48 0 63 69l116 524h99l-116 -524q-18 -79 -53.5 -117t-99.5 -38zM124 0h-99l88 396h-63l19 87h63l9 44 q33 150 153 150q46 0 81 -19l-36 -77q-14 10 -35 10q-49 0 -63 -64l-10 -44h80l-19 -87h-80z"/>
<glyph glyph-name="f_f" horiz-adv-x="545" unicode="ff" d="M397 0h-99l88 396h-63l19 87h63l9 44q34 150 153 150q68 0 103 -37l-48 -69q-17 20 -45 20q-49 0 -63 -64l-10 -44h80l-19 -87h-80zM124 0h-99l88 396h-63l19 87h63l9 44q34 150 153 150q68 0 103 -37l-48 -69q-17 20 -45 20q-49 0 -63 -64l-10 -44h80l-19 -87h-80z"/>
<glyph glyph-name="fi" horiz-adv-x="490" unicode="fi" d="M377 0h-99l107 483h99zM454 544q-24 0 -40 15.5t-16 38.5q0 31 22 50.5t48 19.5q24 0 40.5 -15.5t16.5 -37.5q0 -32 -22.5 -51.5t-48.5 -19.5zM124 0h-99l88 396h-63l19 87h63l9 44q33 150 153 150q46 0 81 -19l-36 -77q-14 10 -35 10q-49 0 -63 -64l-10 -44h80l-19 -87 h-80z"/>
<glyph glyph-name="fl" horiz-adv-x="490" unicode="fl" d="M377 0h-99l147 667h99zM124 0h-99l88 396h-63l19 87h63l9 44q33 150 153 150q46 0 81 -19l-36 -77q-14 10 -35 10q-49 0 -63 -64l-10 -44h80l-19 -87h-80z"/>
<glyph glyph-name="f_f_i" horiz-adv-x="763" unicode="ffi" d="M649 0h-99l107 483h99zM726 544q-24 0 -40 15.5t-16 38.5q0 31 22 50.5t48 19.5q24 0 40.5 -15.5t16.5 -37.5q0 -32 -22.5 -51.5t-48.5 -19.5zM397 0h-99l88 396h-63l19 87h63l9 44q33 150 153 150q46 0 81 -19l-36 -77q-14 10 -35 10q-49 0 -63 -64l-10 -44h80l-19 -87 h-80zM124 0h-99l88 396h-63l19 87h63l9 44q34 150 153 150q68 0 103 -37l-48 -69q-17 20 -45 20q-49 0 -63 -64l-10 -44h80l-19 -87h-80z"/>
<glyph glyph-name="f_f_l" horiz-adv-x="763" unicode="ffl" d="M649 0h-99l147 667h99zM397 0h-99l88 396h-63l19 87h63l9 44q33 150 153 150q46 0 81 -19l-36 -77q-14 10 -35 10q-49 0 -63 -64l-10 -44h80l-19 -87h-80zM124 0h-99l88 396h-63l19 87h63l9 44q34 150 153 150q68 0 103 -37l-48 -69q-17 20 -45 20q-49 0 -63 -64l-10 -44 h80l-19 -87h-80z"/>
<glyph glyph-name=".notdef" horiz-adv-x="1000"/>
<glyph glyph-name=".null" horiz-adv-x="0"/>
<glyph glyph-name="nonmarkingreturn" horiz-adv-x="333"/>
<glyph glyph-name="space" horiz-adv-x="211" unicode=" "/>
<glyph glyph-name="exclam" horiz-adv-x="242" unicode="!" d="M73 -11q-26 0 -43.5 18t-17.5 44q0 30 21.5 51t51.5 21q25 0 43 -17.5t18 -43.5q0 -30 -22 -51.5t-51 -21.5zM154 201h-86l85 466h122z"/>
<glyph glyph-name="quotedbl" horiz-adv-x="373" unicode='&quot;' d="M323 395h-45q14 201 15 215q1 29 19.5 48t45.5 19q20 0 35 -14.5t15 -36.5q0 -14 -6 -26zM160 395h-45q14 201 15 215q1 29 19.5 48t45.5 19q21 0 35.5 -14.5t14.5 -36.5q0 -14 -6 -26z"/>
<glyph glyph-name="numbersign" horiz-adv-x="524" unicode="#" d="M276 242l94 183h-84l-92 -183h82zM231 0h-76l90 176h-85l-88 -176h-77l89 176h-82l33 66h83l92 183h-83l31 65h85l88 177h77l-89 -177h84l88 177h76l-88 -177h82l-31 -65h-84l-93 -183h86l-32 -66h-87z"/>
<glyph glyph-name="dollar" horiz-adv-x="489" unicode="$" d="M211 490q0 -34 42 -66l34 154q-34 -7 -55 -32t-21 -56zM332 189q0 34 -40 66l-37 -166q36 9 56.5 36.5t20.5 63.5zM137 -100l21 94q-110 20 -161 92l68 81q40 -59 114 -76l46 207q-30 18 -48.5 31.5t-40 35t-32.5 48t-11 58.5q0 83 62 144t155 63l20 90h76l-22 -98 q82 -19 130 -76l-66 -80q-33 43 -86 58l-42 -191q39 -24 62.5 -43.5t44.5 -54t21 -75.5q0 -88 -59 -152t-157 -68l-19 -88h-76z"/>
<glyph glyph-name="percent" horiz-adv-x="663" unicode="%" d="M217 410q36 0 64 38t28 92q0 34 -17.5 54t-46.5 20q-36 0 -64 -38.5t-28 -92.5q0 -34 17.5 -53.5t46.5 -19.5zM213 346q-58 0 -95 36.5t-37 93.5q0 85 50 143t117 58q58 0 95 -36.5t37 -93.5q0 -85 -50 -143t-117 -58zM456 51q36 0 64.5 38.5t28.5 92.5q0 34 -17.5 53.5 t-46.5 19.5q-36 0 -64 -38t-28 -92q0 -34 17 -54t46 -20zM453 -12q-58 0 -95 36.5t-37 93.5q0 85 50 143t117 58q58 0 95 -36.5t37 -93.5q0 -85 -50 -143t-117 -58zM131 0h-56l498 667h57z"/>
<glyph glyph-name="ampersand" horiz-adv-x="538" unicode="&amp;" d="M260 478q0 -28 6 -57q58 29 87.5 58t29.5 72q0 52 -46 52q-29 0 -53 -37t-24 -88zM196 68q43 0 93 43q-35 68 -48 100q-19 43 -37 91q-89 -61 -89 -146q0 -40 23 -64t58 -24zM461 0h-111q-12 20 -24 42q-74 -54 -148 -54q-76 0 -122.5 40t-46.5 115q0 87 45.5 140 t125.5 95q-14 56 -14 103q0 81 51.5 138.5t121.5 57.5q58 0 95.5 -31.5t37.5 -90.5q0 -27 -6.5 -50.5t-22 -43t-28.5 -33.5t-39.5 -30.5t-41.5 -24.5t-46 -24q14 -36 32 -76q12 -31 38 -86q44 59 80 132l72 -44q-53 -96 -112 -165q27 -51 63 -110z"/>
<glyph glyph-name="quotesingle" horiz-adv-x="211" unicode="&apos;" d="M160 395h-45q14 201 15 215q1 29 19.5 48t45.5 19q21 0 35.5 -14.5t14.5 -36.5q0 -14 -6 -26z"/>
<glyph glyph-name="parenleft" horiz-adv-x="257" unicode="(" d="M149 -166l-74 -33q-52 115 -52 262q0 339 246 622l58 -45q-94 -137 -147.5 -297.5t-53.5 -321.5q0 -88 23 -187z"/>
<glyph glyph-name="parenright" horiz-adv-x="257" unicode=")" d="M107 652l74 33q52 -115 52 -262q0 -339 -246 -622l-58 45q94 137 147.5 297.5t53.5 321.5q0 88 -23 187z"/>
<glyph glyph-name="asterisk" horiz-adv-x="330" unicode="*" d="M221 379h-54l31 115l-108 -49l-16 48l111 40l-88 60l36 43l81 -70l19 111h55l-32 -115l108 49l16 -48l-109 -40l87 -61l-38 -42l-80 69z"/>
<glyph glyph-name="plus" horiz-adv-x="441" unicode="+" d="M426 305h-157l-39 -179h-71l40 179h-157l15 65h156l38 171h71l-38 -171h156z"/>
<glyph glyph-name="comma" horiz-adv-x="243" unicode="," d="M150 54q0 -51 -38 -101.5t-93 -77.5l-37 39q29 14 55 37t35 47h-9q-21 0 -36 14.5t-15 39.5q0 29 22.5 50t50.5 21q27 0 46 -18t19 -51z"/>
<glyph glyph-name="hyphen" horiz-adv-x="270" unicode="-" d="M230 199h-210l18 86h210z"/>
<glyph glyph-name="period" horiz-adv-x="242" unicode="." d="M73 -11q-25 0 -43 18t-18 44q0 30 21.5 51t51.5 21q26 0 43.5 -17.5t17.5 -43.5q0 -30 -21.5 -51.5t-51.5 -21.5z"/>
<glyph glyph-name="slash" horiz-adv-x="265" unicode="/" d="M16 -20h-76l348 707h77z"/>
<glyph glyph-name="zero" horiz-adv-x="528" unicode="0" d="M241 86q50 0 91.5 67.5t61.5 151.5t20 152q0 122 -89 122q-49 0 -90.5 -67t-61.5 -151t-20 -152q0 -123 88 -123zM232 -12q-87 0 -138 61t-51 172q0 107 36 210.5t104.5 174.5t152.5 71q88 0 138 -60.5t50 -172.5q0 -107 -35.5 -210.5t-104.5 -174.5t-152 -71z"/>
<glyph glyph-name="one" horiz-adv-x="352" unicode="1" d="M234 0h-111l116 524l-125 -107l-50 67l220 183h97z"/>
<glyph glyph-name="two" horiz-adv-x="510" unicode="2" d="M405 0h-412l24 108q221 178 257 211q109 96 122 157q3 12 3 23q0 37 -27 58.5t-72 21.5q-81 0 -139 -64l-54 75q84 87 202 87q88 0 147 -44.5t59 -123.5q0 -38 -16.5 -76.5t-40 -71.5t-73 -81t-91 -83.5t-118.5 -99.5h250z"/>
<glyph glyph-name="three" horiz-adv-x="498" unicode="3" d="M221 -12q-78 0 -142 36t-88 100l84 60q19 -46 58.5 -72t87.5 -26q54 0 85.5 38t31.5 89q0 37 -27 58t-76 21q-33 0 -53 -2l22 100q9 -1 71 -1q53 0 86 31.5t33 80.5q0 36 -29 57t-78 21q-76 0 -131 -60l-52 70q81 88 197 88q93 0 150 -41.5t57 -115.5q0 -69 -49 -120.5 t-114 -60.5q48 -14 75 -50t27 -86q0 -89 -65 -152t-161 -63z"/>
<glyph glyph-name="four" horiz-adv-x="493" unicode="4" d="M292 252l66 298l-234 -298h168zM347 0h-110l33 154h-268l23 103l323 410h146l-92 -415h70l-21 -98h-70z"/>
<glyph glyph-name="five" horiz-adv-x="514" unicode="5" d="M232 -12q-159 0 -219 132l84 61q37 -95 137 -95q53 0 90 47t37 108q0 42 -27 66.5t-73 24.5q-57 0 -109 -47l-73 31l77 351h376l-22 -97h-265l-42 -192q47 45 116 45t113.5 -45t44.5 -123q0 -108 -69 -187.5t-176 -79.5z"/>
<glyph glyph-name="six" horiz-adv-x="513" unicode="6" d="M242 86q52 0 87 52t35 108q0 39 -26 63t-70 24q-62 0 -118 -74q-4 -30 -4 -60q0 -52 25.5 -82.5t70.5 -30.5zM239 -12q-96 0 -148 59.5t-52 165.5q0 69 19.5 146.5t56 150t99 120t139.5 47.5q60 0 106 -25t71 -70l-73 -74q-29 71 -110 71q-64 0 -108.5 -62.5 t-67.5 -149.5q-4 -10 -7 -25q26 35 67.5 58.5t85.5 23.5q71 0 116.5 -43.5t45.5 -118.5q0 -105 -69 -189.5t-171 -84.5z"/>
<glyph glyph-name="seven" horiz-adv-x="450" unicode="7" d="M165 0h-125l331 570h-276l21 97h406l-17 -77z"/>
<glyph glyph-name="eight" horiz-adv-x="509" unicode="8" d="M232 86q45 0 80.5 33t35.5 82q0 37 -25.5 63.5t-55.5 35.5q-57 -9 -96.5 -44t-39.5 -87q0 -40 28 -61.5t73 -21.5zM285 384q54 9 89 39.5t35 79.5q0 33 -26.5 54t-67.5 21q-44 0 -75 -30t-31 -75q0 -30 23.5 -54.5t52.5 -34.5zM230 -12q-98 0 -156.5 40t-58.5 120 q0 68 46 124t129 82q-38 20 -64 55.5t-26 79.5q0 83 66.5 135.5t153.5 52.5q84 0 144.5 -39.5t60.5 -115.5q0 -71 -46 -121t-118 -66q44 -25 71 -63.5t27 -85.5q0 -87 -66 -142.5t-163 -55.5z"/>
<glyph glyph-name="nine" horiz-adv-x="513" unicode="9" d="M310 580q-53 0 -87.5 -52t-34.5 -108q0 -39 26 -63t70 -24q61 0 117 74q5 25 5 60q0 52 -25.5 82.5t-70.5 30.5zM312 678q97 0 148.5 -59.5t51.5 -165.5q0 -69 -19.5 -146.5t-56 -150t-99 -120t-139.5 -47.5q-59 0 -105 25t-71 70l72 74q31 -71 110 -71q64 0 108.5 62 t68.5 150q2 9 6 25q-25 -35 -66.5 -58.5t-85.5 -23.5q-71 0 -116.5 43.5t-45.5 118.5q0 106 68.5 190t170.5 84z"/>
<glyph glyph-name="colon" horiz-adv-x="238" unicode=":" d="M154 356q-26 0 -43.5 18t-17.5 44q0 29 22 50.5t51 21.5q26 0 43.5 -18t17.5 -44q0 -30 -21.5 -51t-51.5 -21zM73 -11q-25 0 -43 18t-18 44q0 30 22 51t52 21q26 0 43.5 -17.5t17.5 -43.5q0 -30 -22 -51.5t-52 -21.5z"/>
<glyph glyph-name="semicolon" horiz-adv-x="242" unicode=";" d="M154 356q-26 0 -43.5 18t-17.5 44q0 29 22 50.5t51 21.5q26 0 43.5 -18t17.5 -44q0 -30 -21.5 -51t-51.5 -21zM150 54q0 -51 -38 -101.5t-93 -77.5l-37 39q29 14 55 37t35 47h-9q-21 0 -36 14.5t-15 39.5q0 29 22.5 50t50.5 21q27 0 46 -18t19 -51z"/>
<glyph glyph-name="less" horiz-adv-x="441" unicode="&lt;" d="M385 124l-345 175l17 71l422 176l-18 -80l-336 -135l276 -134z"/>
<glyph glyph-name="equal" horiz-adv-x="441" unicode="=" d="M404 206h-384l15 65h383zM446 397h-384l15 65h383z"/>
<glyph glyph-name="greater" horiz-adv-x="441" unicode="&gt;" d="M424 299l-422 -175l18 80l337 133l-278 135l16 74l345 -176z"/>
<glyph glyph-name="question" horiz-adv-x="390" unicode="?" d="M146 -11q-25 0 -43 18t-18 44q0 30 22 51t52 21q25 0 43 -17.5t18 -43.5q0 -30 -22 -51.5t-52 -21.5zM236 224l-90 -30q-15 28 -15 66q0 40 19 71.5t46 52.5t54.5 40t46.5 42.5t19 51.5t-20.5 46t-57.5 18q-54 0 -99 -40l-40 74q72 61 163 61q74 0 122 -37.5t48 -96.5 q0 -45 -21 -81t-51.5 -59.5t-61 -44.5t-51.5 -45.5t-21 -51.5q0 -23 10 -37z"/>
<glyph glyph-name="at" horiz-adv-x="703" unicode="@" d="M332 157q58 0 105 73l29 137q-7 24 -24.5 42t-44.5 18q-57 0 -95 -59t-38 -127q0 -39 17.5 -61.5t50.5 -22.5zM330 -70q-123 0 -199 83.5t-76 216.5q0 106 51 200.5t136.5 151t182.5 56.5q117 0 190 -77.5t73 -199.5q0 -120 -53 -198t-120 -78q-37 0 -60.5 20.5 t-27.5 52.5l-1 7q-55 -80 -131 -80q-55 0 -89.5 38t-34.5 108q0 104 62 186t147 82q73 0 100 -70l11 54h89l-55 -259q-2 -10 -2 -25q0 -45 35 -45q30 0 60.5 56t30.5 151q0 110 -61.5 175.5t-164.5 65.5q-133 0 -231.5 -113.5t-98.5 -257.5q0 -116 66.5 -191t175.5 -75 q83 0 164 56l19 -28q-90 -63 -188 -63z"/>
<glyph glyph-name="A" horiz-adv-x="538" unicode="A" d="M358 230l-18 319l-158 -319h176zM481 0h-115l-8 132h-220l-66 -132h-123l347 667h132z"/>
<glyph glyph-name="B" horiz-adv-x="541" unicode="B" d="M267 97q48 0 78 35t30 84q0 36 -20.5 56t-57.5 20h-112l-43 -195h125zM329 389q48 0 73 33.5t25 76.5q0 32 -21.5 51.5t-54.5 19.5h-105l-40 -181h123zM280 0h-270l147 667h225q75 0 119 -42t44 -107q0 -68 -41 -121.5t-102 -61.5q40 -12 62.5 -48.5t22.5 -79.5 q0 -83 -53.5 -145t-153.5 -62z"/>
<glyph glyph-name="C" horiz-adv-x="549" unicode="C" d="M282 -12q-108 0 -173.5 67.5t-65.5 182.5q0 109 39.5 209t116.5 165.5t172 65.5q89 0 143.5 -49t74.5 -126l-104 -30q-30 107 -121 107q-56 0 -104.5 -52.5t-75.5 -130.5t-27 -157q0 -72 35 -113t96 -41q72 0 128 80l86 -49q-86 -129 -220 -129z"/>
<glyph glyph-name="D" horiz-adv-x="584" unicode="D" d="M246 570l-104 -473h86q72 0 126.5 52t79.5 122.5t25 142.5q0 71 -36 113.5t-92 42.5h-85zM209 0h-199l147 667h195q91 0 156 -68t65 -181q0 -54 -11.5 -109.5t-39 -111.5t-68 -99.5t-104 -70.5t-141.5 -27z"/>
<glyph glyph-name="E" horiz-adv-x="473" unicode="E" d="M376 0h-366l147 667h366l-22 -97h-255l-40 -181h249l-22 -97h-248l-43 -195h255z"/>
<glyph glyph-name="F" horiz-adv-x="464" unicode="F" d="M120 0h-110l147 667h366l-22 -97h-255l-40 -181h249l-22 -97h-248z"/>
<glyph glyph-name="G" horiz-adv-x="578" unicode="G" d="M282 -12q-108 0 -173.5 67.5t-65.5 182.5q0 111 39 210t117 164.5t176 65.5q84 0 136.5 -45.5t71.5 -115.5l-97 -33q-12 43 -44 69.5t-77 26.5q-56 0 -105 -51.5t-76 -129.5t-27 -159q0 -73 35 -113.5t97 -40.5q60 0 113 55l26 117h-142l21 98h247l-57 -257 q-88 -111 -215 -111z"/>
<glyph glyph-name="H" horiz-adv-x="595" unicode="H" d="M477 0h-110l64 294h-246l-65 -294h-110l147 667h110l-60 -275h246l61 275h110z"/>
<glyph glyph-name="I" horiz-adv-x="238" unicode="I" d="M120 0h-110l147 667h110z"/>
<glyph glyph-name="J" horiz-adv-x="410" unicode="J" d="M122 -12q-103 0 -153 63l55 84q30 -49 90 -49q87 0 109 102l106 479h111l-107 -483q-22 -101 -73.5 -148.5t-137.5 -47.5z"/>
<glyph glyph-name="K" horiz-adv-x="536" unicode="K" d="M475 0h-123l-117 279l-71 -81l-44 -198h-110l147 667h110l-68 -309l270 309h136l-287 -315z"/>
<glyph glyph-name="L" horiz-adv-x="429" unicode="L" d="M349 0h-343l147 667h110l-126 -570h233z"/>
<glyph glyph-name="M" horiz-adv-x="714" unicode="M" d="M596 0h-109l107 488l-270 -488h-42l-54 488l-108 -488h-110l147 667h146l48 -434l241 434h151z"/>
<glyph glyph-name="N" horiz-adv-x="594" unicode="N" d="M476 0h-106l-149 454l-101 -454h-110l147 667h112l145 -441l98 441h111z"/>
<glyph glyph-name="O" horiz-adv-x="615" unicode="O" d="M288 86q57 0 106 52t75.5 129.5t26.5 157.5q0 71 -36.5 113t-95.5 42q-57 0 -106 -52.5t-75 -130t-26 -157.5q0 -71 36 -112.5t95 -41.5zM282 -12q-108 0 -173.5 69t-65.5 181q0 106 38 205t115 167t175 68q108 0 173.5 -69t65.5 -181q0 -106 -38 -205t-115 -167 t-175 -68z"/>
<glyph glyph-name="P" horiz-adv-x="515" unicode="P" d="M197 350q9 3 24.5 8t54.5 20t68.5 30.5t54 37t24.5 40.5q0 38 -22 61t-57 23h-98zM120 0h-110l147 667h217q71 0 118 -49t47 -122q0 -44 -14.5 -85.5t-43 -77.5t-78 -58t-112.5 -22h-115z"/>
<glyph glyph-name="Q" horiz-adv-x="615" unicode="Q" d="M288 86q20 0 34 5l-48 119l86 30l39 -96q44 49 70.5 126t26.5 155q0 71 -36.5 113t-95.5 42q-57 0 -106 -52.5t-75 -130t-26 -157.5q0 -71 36 -112.5t95 -41.5zM282 -12q-108 0 -173.5 69t-65.5 181q0 106 38 205t115 167t175 68q108 0 173.5 -69t65.5 -181 q0 -113 -45 -220t-124 -166l19 -47l-86 -30l-15 35q-41 -12 -77 -12z"/>
<glyph glyph-name="R" horiz-adv-x="535" unicode="R" d="M301 350q57 0 89.5 39.5t32.5 95.5q0 39 -22.5 62t-56.5 23h-98l-49 -220h104zM441 0h-119l-58 252h-88l-56 -252h-110l147 667h208q73 0 123.5 -48t50.5 -124q0 -87 -48 -151t-120 -78z"/>
<glyph glyph-name="S" horiz-adv-x="488" unicode="S" d="M218 -12q-71 0 -132 27t-92 71l68 81q26 -37 69 -59t91 -22q49 0 78 30t29 73q0 28 -24.5 52t-60 44.5t-70.5 43.5t-59.5 59.5t-24.5 82.5q0 85 64 146t159 61q60 0 113 -22.5t85 -61.5l-66 -80q-51 66 -140 66q-42 0 -69.5 -27t-27.5 -63q0 -26 24.5 -49.5t59 -44 t69.5 -44.5t59.5 -61t24.5 -83q0 -91 -62.5 -155.5t-164.5 -64.5z"/>
<glyph glyph-name="T" horiz-adv-x="464" unicode="T" d="M233 0h-110l125 570h-153l21 97h417l-21 -97h-153z"/>
<glyph glyph-name="U" horiz-adv-x="593" unicode="U" d="M273 -12q-100 0 -159 52t-59 141q0 26 5 46l97 440h111l-98 -444q-4 -28 -4 -34q1 -47 30.5 -75.5t80.5 -28.5q56 0 88 34.5t48 103.5l98 444h111l-98 -442q-52 -237 -251 -237z"/>
<glyph glyph-name="V" horiz-adv-x="538" unicode="V" d="M281 0h-132l-53 667h115l28 -535l265 535h124z"/>
<glyph glyph-name="W" horiz-adv-x="747" unicode="W" d="M532 0h-116l9 478l-202 -478h-115l-5 667h116l-13 -497l214 497h89l-6 -497l206 497h121z"/>
<glyph glyph-name="X" horiz-adv-x="538" unicode="X" d="M482 0h-121l-88 249l-191 -249h-133l276 347l-118 320h121l79 -235l176 235h134l-261 -332z"/>
<glyph glyph-name="Y" horiz-adv-x="524" unicode="Y" d="M263 0h-110l61 278l-121 389h117l76 -285l203 285h128l-292 -389z"/>
<glyph glyph-name="Z" horiz-adv-x="477" unicode="Z" d="M385 0h-401l20 92l359 478h-253l21 97h394l-20 -90l-361 -480h262z"/>
<glyph glyph-name="bracketleft" horiz-adv-x="229" unicode="[" d="M115 -190h-172l192 868h173l-16 -69h-98l-162 -730h98z"/>
<glyph glyph-name="backslash" horiz-adv-x="265" unicode="\" d="M133 -20l-40 707h74l40 -707h-74z"/>
<glyph glyph-name="bracketright" horiz-adv-x="229" unicode="]" d="M93 -190h-172l16 69h98l162 730h-99l15 69h173z"/>
<glyph glyph-name="asciicircum" horiz-adv-x="386" unicode="^" d="M386 333h-72l-42 259l-155 -259h-79l211 334h74z"/>
<glyph glyph-name="underscore" horiz-adv-x="422" unicode="_" d="M346 -109h-427l16 69h427z"/>
<glyph glyph-name="a" horiz-adv-x="495" unicode="a" d="M266 407q-59 0 -98 -75.5t-39 -152.5q0 -49 23 -76t63 -27q29 0 55.5 19t44.5 48l44 198q-10 29 -35 47.5t-58 18.5zM248 495q92 0 128 -79l14 67h99l-107 -483h-99l14 62q-53 -74 -127 -74q-67 0 -106 46t-39 129q0 73 24.5 147t77.5 129.5t121 55.5z"/>
<glyph glyph-name="b" horiz-adv-x="495" unicode="b" d="M228 76q41 0 74 39t48.5 90.5t15.5 98.5q0 49 -23 76t-63 27q-58 0 -101 -67l-44 -198q11 -29 36 -47.5t57 -18.5zM246 -12q-92 0 -127 79l-15 -67h-99l147 667h99l-54 -246q54 74 128 74q67 0 105.5 -45.5t38.5 -129.5q0 -73 -24.5 -147t-77.5 -129.5t-121 -55.5z"/>
<glyph glyph-name="c" horiz-adv-x="417" unicode="c" d="M218 -12q-87 0 -139 52t-52 145q0 76 30.5 146.5t89 117t130.5 46.5q105 0 152 -71l-62 -65q-27 48 -86 48q-67 0 -109.5 -68.5t-42.5 -147.5q0 -56 29 -85.5t76 -29.5q50 0 86 41l37 -72q-57 -57 -139 -57z"/>
<glyph glyph-name="d" horiz-adv-x="495" unicode="d" d="M266 407q-59 0 -98 -75.5t-39 -152.5q0 -49 23 -76t63 -27q29 0 55.5 19t44.5 48l44 198q-10 29 -35 47.5t-58 18.5zM248 495q92 0 128 -79l55 251h99l-148 -667h-99l14 62q-53 -74 -127 -74q-67 0 -106 46t-39 129q0 73 24.5 147t77.5 129.5t121 55.5z"/>
<glyph glyph-name="e" horiz-adv-x="476" unicode="e" d="M354 280h2q4 15 4 35q0 43 -24.5 71t-69.5 28q-48 0 -83 -41t-44 -93h215zM227 -12q-93 0 -146.5 52t-53.5 144q0 70 28.5 140t87 120.5t131.5 50.5q82 0 129 -50t47 -137q0 -45 -14 -99h-310q-3 -17 -3 -34q0 -43 29.5 -74.5t86.5 -31.5q61 0 108 44l34 -66 q-65 -59 -154 -59z"/>
<glyph glyph-name="f" horiz-adv-x="273" unicode="f" d="M124 0h-99l88 396h-63l19 87h63l9 44q34 150 153 150q68 0 103 -37l-48 -69q-17 20 -45 20q-49 0 -63 -64l-10 -44h80l-19 -87h-80z"/>
<glyph glyph-name="g" horiz-adv-x="495" unicode="g" d="M216 89q27 0 54.5 18.5t46.5 47.5l41 184q-11 30 -37.5 49t-58.5 19q-58 0 -95.5 -71t-37.5 -146q0 -49 23 -75t64 -26zM163 -196q-125 0 -187 71l58 73q41 -58 128 -58q97 0 123 118l15 68q-52 -75 -130 -75q-65 0 -104.5 43t-39.5 128q0 71 23.5 143t76 126t121.5 54 q38 0 74.5 -21.5t53.5 -57.5l15 67h99l-105 -475q-45 -204 -221 -204z"/>
<glyph glyph-name="h" horiz-adv-x="486" unicode="h" d="M373 0h-99l72 329q4 12 4 26q0 52 -62 52q-54 0 -109 -69l-74 -338h-100l147 667h100l-55 -248q66 76 143 76q54 0 85.5 -27t31.5 -73q0 -10 -5 -35z"/>
<glyph glyph-name="i" horiz-adv-x="217" unicode="i" d="M104 0h-99l107 483h99zM181 544q-24 0 -40 15.5t-16 38.5q0 31 22 50.5t48 19.5q24 0 40.5 -15.5t16.5 -37.5q0 -32 -22.5 -51.5t-48.5 -19.5z"/>
<glyph glyph-name="j" horiz-adv-x="217" unicode="j" d="M181 544q-24 0 -40 15.5t-16 38.5q0 31 22 50.5t48 19.5q24 0 40.5 -15.5t16.5 -37.5q0 -32 -22.5 -51.5t-48.5 -19.5zM-58 -196q-68 0 -98 36l44 73q15 -23 45 -23q48 0 63 69l116 524h99l-116 -524q-18 -79 -53.5 -117t-99.5 -38z"/>
<glyph glyph-name="k" horiz-adv-x="457" unicode="k" d="M395 0h-113l-72 205l-79 -81l-27 -124h-99l147 667h99l-91 -415l219 231h120l-209 -217z"/>
<glyph glyph-name="l" horiz-adv-x="217" unicode="l" d="M104 0h-99l147 667h99z"/>
<glyph glyph-name="m" horiz-adv-x="723" unicode="m" d="M610 0h-99l73 331q3 12 3 24q0 25 -15 38.5t-40 13.5q-26 0 -53 -20t-47 -48l-75 -339h-99l73 331q3 13 3 26q0 50 -55 50q-51 0 -100 -68l-75 -339h-99l107 483h99l-14 -64q61 76 135 76q49 0 78.5 -27t29.5 -56v-5q65 88 145 88q47 0 78 -26.5t31 -73.5q0 -13 -5 -35z "/>
<glyph glyph-name="n" horiz-adv-x="486" unicode="n" d="M373 0h-100l73 329q4 14 4 26q0 52 -62 52q-53 0 -109 -68l-75 -339h-99l107 483h99l-14 -64q66 76 143 76q54 0 85.5 -27t31.5 -73q0 -15 -5 -35z"/>
<glyph glyph-name="o" horiz-adv-x="490" unicode="o" d="M219 76q40 0 73.5 38t50 89t16.5 97q0 52 -23.5 79.5t-66.5 27.5q-40 0 -73.5 -38t-50 -89t-16.5 -97q0 -52 23.5 -79.5t66.5 -27.5zM215 -12q-89 0 -139 52t-50 142q0 117 70 215t177 98q89 0 138.5 -52t49.5 -142q0 -117 -69.5 -215t-176.5 -98z"/>
<glyph glyph-name="p" horiz-adv-x="494" unicode="p" d="M228 76q41 0 74 39t48.5 90.5t15.5 98.5q0 49 -23 76t-63 27q-58 0 -101 -67l-44 -198q11 -29 36 -47.5t57 -18.5zM246 -12q-92 0 -127 79l-56 -251h-99l148 667h99l-14 -62q54 74 128 74q67 0 105.5 -45.5t38.5 -129.5q0 -73 -24.5 -147t-77.5 -129.5t-121 -55.5z"/>
<glyph glyph-name="q" horiz-adv-x="494" unicode="q" d="M266 407q-59 0 -98 -75.5t-39 -152.5q0 -49 23 -76t63 -27q29 0 55.5 19t44.5 48l44 198q-10 29 -35 47.5t-58 18.5zM248 495q92 0 128 -79l14 67h99l-148 -667h-99l55 246q-53 -74 -127 -74q-67 0 -106 46t-39 129q0 73 24.5 147t77.5 129.5t121 55.5z"/>
<glyph glyph-name="r" horiz-adv-x="308" unicode="r" d="M104 0h-99l107 483h99l-15 -66q59 77 152 77l-23 -100q-12 5 -33 5q-68 0 -115 -70z"/>
<glyph glyph-name="s" horiz-adv-x="402" unicode="s" d="M169 -12q-57 0 -105.5 21t-75.5 57l57 66q19 -27 54 -46t75 -19q35 0 57.5 20t22.5 47q0 20 -20 37t-49 31t-58 30.5t-49 44t-20 63.5q0 64 46.5 109.5t126.5 45.5q50 0 94.5 -19t71.5 -52l-54 -64q-14 22 -46.5 39t-67.5 17q-34 0 -54 -16.5t-20 -42.5q0 -19 20.5 -35 t49.5 -30t58 -30.5t49.5 -45t20.5 -64.5q0 -68 -50.5 -116t-133.5 -48z"/>
<glyph glyph-name="t" horiz-adv-x="282" unicode="t" d="M157 -12q-114 0 -114 89q0 16 4 35l64 284h-64l20 87h63l29 132h99l-29 -132h80l-19 -87h-80l-59 -263q-2 -7 -2 -22q0 -35 37 -35q21 0 34 13l5 -81q-25 -20 -68 -20z"/>
<glyph glyph-name="u" horiz-adv-x="486" unicode="u" d="M112 483h99l-73 -328q0 -3 -1 -8.5t-1.5 -10t-0.5 -8.5q0 -52 62 -52q55 0 108 67l75 340h99l-107 -483h-99l15 64q-68 -76 -143 -76q-54 0 -85.5 27t-31.5 73q0 22 5 35z"/>
<glyph glyph-name="v" horiz-adv-x="432" unicode="v" d="M215 0h-107l-54 483h103l28 -364l190 364h109z"/>
<glyph glyph-name="w" horiz-adv-x="669" unicode="w" d="M478 0h-104l-16 354l-171 -354h-104l-23 483h100l6 -352l171 352h92l16 -352l163 352h107z"/>
<glyph glyph-name="x" horiz-adv-x="426" unicode="x" d="M366 0h-106l-59 175l-137 -175h-112l199 246l-84 237h105l53 -166l128 166h112l-191 -237z"/>
<glyph glyph-name="y" horiz-adv-x="432" unicode="y" d="M-51 -184l32 84q14 -7 36 -7q32 0 55 40l35 61l-53 489h103l28 -363l190 363h109l-320 -573q-32 -58 -66.5 -82t-81.5 -24q-40 0 -67 12z"/>
<glyph glyph-name="z" horiz-adv-x="400" unicode="z" d="M308 0h-324l16 76l263 320h-191l19 87h320l-16 -73l-265 -323h196z"/>
<glyph glyph-name="braceleft" horiz-adv-x="244" unicode="{" d="M130 -190h-34q-44 0 -77 29t-34 74q0 12 4 28l45 205l3 18q0 22 -10.5 36t-29.5 14l14 60q53 0 67 68l46 206q30 130 154 130h45l-15 -69h-45q-53 0 -65 -61l-50 -223q-14 -70 -65 -89q29 -14 29 -55q0 -18 -4 -34l-45 -204q-2 -12 -2 -19q0 -20 12.5 -32.5t30.5 -12.5 h41z"/>
<glyph glyph-name="bar" horiz-adv-x="196" unicode="|" d="M153 -20h-69v707h69v-707z"/>
<glyph glyph-name="braceright" horiz-adv-x="244" unicode="}" d="M113 678h34q44 0 77 -29t33 -75q0 -16 -3 -27l-46 -205q-2 -12 -2 -18q0 -22 10.5 -36t28.5 -14l-13 -60q-53 0 -67 -68l-46 -206q-30 -130 -154 -130h-45l15 69h45q51 0 65 61l50 223q14 70 64 89q-29 15 -29 55q0 18 4 34l46 204q2 12 2 19q0 20 -12.5 32.5t-30.5 12.5 h-42z"/>
<glyph glyph-name="asciitilde" horiz-adv-x="458" unicode="~" d="M454 667l69 -7q-51 -242 -172 -242q-43 0 -63 29t-20.5 63t-7.5 63t-27 29q-57 0 -98 -185l-69 8q50 241 172 241q43 0 63 -29t20.5 -63.5t7.5 -63.5t27 -29q57 0 98 186z"/>
<glyph glyph-name="nbspace" horiz-adv-x="211" unicode=" "/>
<glyph glyph-name="exclamdown" horiz-adv-x="242" unicode="¡" d="M168 494q25 0 43 -18t18 -44q0 -30 -22 -51t-52 -21q-25 0 -43 18t-18 43q0 30 22 51.5t52 21.5zM87 282h85l-85 -466h-121z"/>
<glyph glyph-name="cent" horiz-adv-x="417" unicode="¢" d="M129 191q0 -64 39 -95l66 300q-47 -22 -76 -82t-29 -123zM218 -12h-1l-19 -88h-74l22 99q-56 18 -87.5 66t-31.5 120q0 112 64.5 205.5t164.5 103.5l16 71h74l-17 -76q66 -15 100 -65l-62 -65q-18 32 -57 44l-73 -327q48 1 83 41l37 -72q-57 -57 -139 -57z"/>
<glyph glyph-name="sterling" horiz-adv-x="472" unicode="£" d="M31 271l15 67h76q-29 66 -29 111q0 94 69 161t161 67q72 0 123.5 -34.5t61.5 -96.5l-98 -35q-5 35 -27.5 55t-56.5 20q-46 0 -80 -43.5t-34 -106.5q0 -18 4 -33.5t13 -37t11 -27.5h108l-14 -67h-86q-5 -50 -33.5 -94.5t-64.5 -66.5q23 8 41 8q27 0 66 -16t61 -16 q44 0 77 35l19 -89q-47 -45 -110 -45q-43 0 -97.5 22t-83.5 22q-40 0 -98 -38l-19 78q59 29 98 80t39 104q0 3 -0.5 8t-0.5 8h-111z"/>
<glyph glyph-name="currency" horiz-adv-x="522" unicode="¤" d="M454 351q0 68 -43.5 110.5t-111.5 42.5q-77 0 -135 -56.5t-58 -132.5q0 -68 43.5 -110.5t111.5 -42.5q77 0 135 56.5t58 132.5zM461 136l-34 -27l-37 49q-61 -44 -132 -44q-83 0 -145 59l-79 -66l-23 31l77 63q-31 56 -31 108q0 95 80 173l-37 49l32 26l39 -48 q60 43 133 43q81 0 143 -57l78 64l25 -30l-78 -64q31 -51 31 -108q0 -91 -80 -173z"/>
<glyph glyph-name="yen" horiz-adv-x="524" unicode="¥" d="M265 0h-110l26 119h-186l14 64h186l21 95h-186l15 65h151l-101 324h117l76 -285l203 285h128l-243 -324h146l-15 -65h-180l-21 -95h180l-14 -64h-181z"/>
<glyph glyph-name="brokenbar" horiz-adv-x="196" unicode="¦" d="M153 371h-69v316h69v-316zM153 -20h-69v316h69v-316z"/>
<glyph glyph-name="section" horiz-adv-x="406" unicode="§" d="M293 307q0 46 -58 75q-49 -7 -72 -30.5t-23 -53.5q0 -46 76 -80q77 24 77 89zM390 329q0 -49 -28.5 -88t-82.5 -58q56 -36 56 -100q0 -68 -50 -116t-129 -48q-131 0 -190 74l57 61q20 -29 54.5 -45.5t75.5 -16.5q37 0 60.5 22.5t23.5 54.5q0 23 -20 41t-48.5 31.5 t-56.5 29.5t-48 44t-20 65q0 50 32.5 87.5t91.5 50.5q-69 39 -69 108q0 64 48.5 107.5t121.5 43.5q117 0 175 -68l-55 -55q-38 52 -115 52q-34 0 -56 -20t-22 -49q0 -27 30.5 -49t66.5 -36.5t66.5 -46.5t30.5 -76z"/>
<glyph glyph-name="dieresis" horiz-adv-x="278" unicode="¨" d="M185 613q0 -25 -19 -43.5t-45 -18.5q-21 0 -35.5 14.5t-14.5 35.5q0 25 19.5 43.5t44.5 18.5q21 0 35.5 -14t14.5 -36zM367 613q0 -25 -19 -43.5t-44 -18.5q-22 0 -36 14.5t-14 35.5q0 25 19 43.5t44 18.5q21 0 35.5 -14t14.5 -36z"/>
<glyph glyph-name="copyright" horiz-adv-x="778" unicode="©" d="M506 206l22 -31q-64 -53 -137 -53q-87 0 -139 52.5t-52 132.5q0 100 71 170t163 70q108 0 158 -81l-34 -24q-37 69 -125 69q-74 0 -133 -59t-59 -144q0 -63 41.5 -106.5t109.5 -43.5q64 0 114 48zM721 334q0 128 -92.5 220t-220.5 92t-219.5 -92t-91.5 -220t91.5 -220 t219.5 -92t220.5 92t92.5 220zM754 334q0 -143 -101.5 -244t-244.5 -101q-142 0 -243 101t-101 244t100.5 244t243.5 101t244.5 -101t101.5 -244z"/>
<glyph glyph-name="ordfeminine" horiz-adv-x="359" unicode="ª" d="M325 640h74l-70 -314h-74l9 41q-37 -49 -87 -49q-44 0 -72.5 31t-28.5 90q0 79 43.5 144t108.5 65q61 0 88 -49zM245 589q-38 0 -65 -45.5t-27 -97.5q0 -33 15 -51t42 -18q36 0 66 43l29 131q-15 38 -60 38z"/>
<glyph glyph-name="guillemotleft" horiz-adv-x="423" unicode="«" d="M349 63h-83l-85 180l165 177h89l-168 -181zM198 63h-84l-85 180l165 177h90l-169 -181z"/>
<glyph glyph-name="logicalnot" horiz-adv-x="445" unicode="¬" d="M460 462l-56 -256h-67l42 191h-317l15 65h383z"/>
<glyph glyph-name="registered" horiz-adv-x="494" unicode="®" d="M369 519q0 18 -11.5 28t-30.5 10h-59l-20 -88h67q23 0 38.5 14.5t15.5 35.5zM368 343h-39l-42 96h-45l-21 -96h-33l53 243h92q31 0 51 -17.5t20 -46.5q0 -35 -25 -58.5t-55 -23.5zM478 465q0 76 -53.5 129t-129.5 53t-128.5 -53t-52.5 -129q0 -75 53 -128.5t128 -53.5 q76 0 129.5 53.5t53.5 128.5zM508 465q0 -88 -62.5 -150t-150.5 -62t-149.5 62t-61.5 150t62 150t150 62t150 -61.5t62 -150.5z"/>
<glyph glyph-name="macron" horiz-adv-x="309" unicode="¯" d="M385 591h-308l13 59h308z"/>
<glyph glyph-name="macron" horiz-adv-x="309" unicode="‾" d="M385 591h-308l13 59h308z"/>
<glyph glyph-name="degree" horiz-adv-x="300" unicode="°" d="M288 548q0 29 -21 50t-50 21t-49.5 -21t-20.5 -50t20 -49t49 -20t50.5 20.5t21.5 48.5zM345 548q0 -52 -37.5 -89.5t-90.5 -37.5t-90.5 37t-37.5 90t37.5 91t90.5 38t90.5 -38t37.5 -91z"/>
<glyph glyph-name="plusminus" horiz-adv-x="441" unicode="±" d="M362 16h-384l14 65h384zM428 315h-157l-39 -179h-71l40 179h-157l15 64h156l38 172h71l-38 -172h156z"/>
<glyph glyph-name="twosuperior" horiz-adv-x="338" unicode="²" d="M347 421h-269l13 61q145 105 193 149.5t48 83.5q0 24 -17.5 37t-44.5 13q-54 0 -94 -45l-36 50q55 57 135 57q57 0 96 -27.5t39 -77.5q0 -54 -48.5 -103t-166.5 -136h165z"/>
<glyph glyph-name="threesuperior" horiz-adv-x="338" unicode="³" d="M374 538q0 -48 -39 -86t-103 -38q-50 0 -89.5 19t-57.5 53l53 44q29 -54 91 -54q32 0 50.5 21.5t18.5 50.5q0 22 -19.5 34.5t-50.5 12.5q-24 0 -30 -1l13 62q9 -1 48 -1q33 0 52.5 17t19.5 45q0 22 -18.5 35t-47.5 13q-48 0 -90 -40l-33 46q54 56 129 56q62 0 100 -26 t38 -73q0 -39 -28 -70.5t-74 -36.5q30 -8 48.5 -30t18.5 -53z"/>
<glyph glyph-name="acute" horiz-adv-x="203" unicode="´" d="M304 700l-167 -144h-70l142 144h95z"/>
<glyph glyph-name="mu" horiz-adv-x="486" unicode="µ" d="M63 -184h-99l148 667h99l-73 -330q-4 -15 -4 -30q0 -48 56 -48q30 0 61.5 19.5t52.5 46.5l76 342h99l-107 -483h-99l13 62q-29 -32 -71.5 -53t-85.5 -21q-10 0 -28 2z"/>
<glyph glyph-name="mu" horiz-adv-x="486" unicode="μ" d="M63 -184h-99l148 667h99l-73 -330q-4 -15 -4 -30q0 -48 56 -48q30 0 61.5 19.5t52.5 46.5l76 342h99l-107 -483h-99l13 62q-29 -32 -71.5 -53t-85.5 -21q-10 0 -28 2z"/>
<glyph glyph-name="paragraph" horiz-adv-x="449" unicode="¶" d="M312 -100h-53l159 714h-84l-159 -714h-53l94 423q-57 0 -97 44.5t-40 111.5q0 73 56.5 130.5t137.5 57.5h209z"/>
<glyph glyph-name="cedilla" horiz-adv-x="195" unicode="¸" d="M12 -193q-65 0 -101 39l30 41q29 -34 72 -34q23 0 36.5 12t13.5 30q0 26 -28 26q-16 0 -29 -15l-34 22l49 83h53l-40 -64q13 10 28 10q24 0 39.5 -16t15.5 -43q0 -40 -30 -65.5t-75 -25.5z"/>
<glyph glyph-name="onesuperior" horiz-adv-x="247" unicode="¹" d="M233 421h-77l65 297l-73 -61l-36 47l142 117h67z"/>
<glyph glyph-name="ordmasculine" horiz-adv-x="354" unicode="º" d="M213 378q42 0 67 47.5t25 93.5q0 32 -16 50t-44 18q-41 0 -66 -47t-25 -94q0 -32 15.5 -50t43.5 -18zM211 318q-62 0 -97 36t-35 95q0 76 48.5 137.5t120.5 61.5q62 0 97 -36t35 -95q0 -76 -48.5 -137.5t-120.5 -61.5z"/>
<glyph glyph-name="guillemotright" horiz-adv-x="423" unicode="»" d="M227 420h83l85 -180l-165 -177h-89l168 182zM75 420h84l85 -180l-165 -177h-90l169 182z"/>
<glyph glyph-name="onequarter" horiz-adv-x="712" unicode="¼" d="M199 267h-77l65 297l-73 -61l-36 47l142 117h67zM549 155l37 166l-136 -166h99zM657 94h-45l-20 -94h-77l21 94h-171l12 57l203 249h100l-55 -245h45zM637 667l-499 -667h-56l498 667h57z"/>
<glyph glyph-name="onehalf" horiz-adv-x="747" unicode="½" d="M199 267h-77l65 297l-73 -61l-36 47l142 117h67zM663 0h-269l13 61q145 105 193 149.5t48 83.5q0 24 -17.5 37t-44.5 13q-54 0 -94 -45l-36 50q55 57 135 57q57 0 96 -27.5t39 -77.5q0 -54 -48.5 -103t-166.5 -136h165zM637 667l-499 -667h-56l498 667h57z"/>
<glyph glyph-name="threequarters" horiz-adv-x="780" unicode="¾" d="M340 384q0 -48 -39 -86t-103 -38q-50 0 -89.5 19t-57.5 53l53 44q29 -54 91 -54q32 0 50.5 21.5t18.5 50.5q0 22 -19.5 34.5t-50.5 12.5q-24 0 -30 -1l13 62q9 -1 48 -1q33 0 52.5 17t19.5 45q0 22 -18.5 35t-47.5 13q-48 0 -90 -40l-33 46q54 56 129 56q62 0 100 -26 t38 -73q0 -39 -28 -70.5t-74 -36.5q30 -8 48.5 -30t18.5 -53zM616 155l37 166l-136 -166h99zM724 94h-45l-20 -94h-77l21 94h-171l12 57l203 249h100l-55 -245h45zM704 667l-499 -667h-56l498 667h57z"/>
<glyph glyph-name="questiondown" horiz-adv-x="339" unicode="¿" d="M243 493q25 0 42.5 -17.5t17.5 -43.5q0 -30 -21.5 -51.5t-51.5 -21.5q-25 0 -43 18t-18 44q0 30 22 51t52 21zM153 258l90 30q15 -27 15 -65q0 -40 -19 -71.5t-46 -52.5t-54.5 -40t-46.5 -42.5t-19 -51.5t20.5 -46t57.5 -18q56 0 99 40l39 -74q-70 -62 -162 -62 q-74 0 -122.5 38t-48.5 96q0 45 21.5 81t52 59.5t60.5 44.5t51.5 45.5t21.5 52.5q0 20 -10 36z"/>
<glyph glyph-name="Agrave" horiz-adv-x="538" unicode="À" d="M358 230l-18 319l-158 -319h176zM481 0h-115l-8 132h-220l-66 -132h-123l347 667h132zM444 728h-68l-103 144h92z"/>
<glyph glyph-name="Aacute" horiz-adv-x="538" unicode="Á" d="M358 230l-18 319l-158 -319h176zM481 0h-115l-8 132h-220l-66 -132h-123l347 667h132zM545 872l-167 -144h-70l142 144h95z"/>
<glyph glyph-name="Acircumflex" horiz-adv-x="538" unicode="Â" d="M358 230l-18 319l-158 -319h176zM481 0h-115l-8 132h-220l-66 -132h-123l347 667h132zM503 728h-58l-46 97l-85 -97h-62l110 144h92z"/>
<glyph glyph-name="Atilde" horiz-adv-x="538" unicode="Ã" d="M358 230l-18 319l-158 -319h176zM481 0h-115l-8 132h-220l-66 -132h-123l347 667h132zM433 726q-22 0 -36.5 12.5t-20 28t-15.5 28t-24 12.5q-33 0 -49 -75h-55q29 134 110 134q23 0 37.5 -12.5t20 -28t15.5 -28t24 -12.5q32 0 49 75h55q-29 -134 -111 -134z"/>
<glyph glyph-name="Adieresis" horiz-adv-x="538" unicode="Ä" d="M358 230l-18 319l-158 -319h176zM481 0h-115l-8 132h-220l-66 -132h-123l347 667h132zM353 784q0 -25 -19 -43.5t-45 -18.5q-21 0 -35.5 14.5t-14.5 35.5q0 25 19.5 43.5t44.5 18.5q21 0 35.5 -14t14.5 -36zM535 784q0 -25 -19 -43.5t-44 -18.5q-22 0 -36 14.5t-14 35.5 q0 25 19 43.5t44 18.5q21 0 35.5 -14t14.5 -36z"/>
<glyph glyph-name="Aring" horiz-adv-x="538" unicode="Å" d="M358 230l-18 319l-158 -319h176zM481 0h-115l-8 132h-220l-66 -132h-123l347 667h132zM383 739q21 0 37 15.5t16 36.5q0 19 -11.5 31t-30.5 12q-21 0 -37 -15.5t-16 -36.5q0 -19 11.5 -31t30.5 -12zM378 691q-37 0 -60.5 24t-23.5 62q0 42 31 73t73 31q38 0 61.5 -23.5 t23.5 -61.5q0 -42 -31.5 -73.5t-73.5 -31.5z"/>
<glyph glyph-name="AE" horiz-adv-x="774" unicode="Æ" d="M363 230l68 310l-208 -310h140zM678 0h-365l28 132h-180l-88 -132h-123l464 667h411l-21 -97h-255l-40 -181h248l-22 -97h-248l-43 -195h256z"/>
<glyph glyph-name="Ccedilla" horiz-adv-x="549" unicode="Ç" d="M282 -12h-10l-25 -41q13 10 28 10q24 0 39.5 -16t15.5 -43q0 -40 -30 -65.5t-75 -25.5q-65 0 -101 39l30 41q29 -34 72 -34q23 0 36.5 12t13.5 30q0 26 -28 26q-16 0 -29 -15l-34 22l39 66q-84 17 -132.5 81t-48.5 163q0 109 39.5 209t116.5 165.5t172 65.5 q89 0 143.5 -49t74.5 -126l-104 -30q-30 107 -121 107q-56 0 -104.5 -52.5t-75.5 -130.5t-27 -157q0 -72 35 -113t96 -41q72 0 128 80l86 -49q-86 -129 -220 -129z"/>
<glyph glyph-name="Egrave" horiz-adv-x="473" unicode="È" d="M376 0h-366l147 667h366l-22 -97h-255l-40 -181h249l-22 -97h-248l-43 -195h255zM422 728h-68l-103 144h92z"/>
<glyph glyph-name="Eacute" horiz-adv-x="473" unicode="É" d="M376 0h-366l147 667h366l-22 -97h-255l-40 -181h249l-22 -97h-248l-43 -195h255zM524 872l-167 -144h-70l142 144h95z"/>
<glyph glyph-name="Ecircumflex" horiz-adv-x="473" unicode="Ê" d="M376 0h-366l147 667h366l-22 -97h-255l-40 -181h249l-22 -97h-248l-43 -195h255zM480 728h-58l-46 97l-85 -97h-62l110 144h92z"/>
<glyph glyph-name="Edieresis" horiz-adv-x="473" unicode="Ë" d="M376 0h-366l147 667h366l-22 -97h-255l-40 -181h249l-22 -97h-248l-43 -195h255zM332 784q0 -25 -19 -43.5t-45 -18.5q-21 0 -35.5 14.5t-14.5 35.5q0 25 19.5 43.5t44.5 18.5q21 0 35.5 -14t14.5 -36zM514 784q0 -25 -19 -43.5t-44 -18.5q-22 0 -36 14.5t-14 35.5 q0 25 19 43.5t44 18.5q21 0 35.5 -14t14.5 -36z"/>
<glyph glyph-name="Igrave" horiz-adv-x="238" unicode="Ì" d="M120 0h-110l147 667h110zM293 728h-68l-103 144h92z"/>
<glyph glyph-name="Iacute" horiz-adv-x="238" unicode="Í" d="M120 0h-110l147 667h110zM396 872l-167 -144h-70l142 144h95z"/>
<glyph glyph-name="Icircumflex" horiz-adv-x="238" unicode="Î" d="M120 0h-110l147 667h110zM352 728h-58l-46 97l-85 -97h-62l110 144h92z"/>
<glyph glyph-name="Idieresis" horiz-adv-x="238" unicode="Ï" d="M120 0h-110l147 667h110zM204 784q0 -25 -19 -43.5t-45 -18.5q-21 0 -35.5 14.5t-14.5 35.5q0 25 19.5 43.5t44.5 18.5q21 0 35.5 -14t14.5 -36zM386 784q0 -25 -19 -43.5t-44 -18.5q-22 0 -36 14.5t-14 35.5q0 25 19 43.5t44 18.5q21 0 35.5 -14t14.5 -36z"/>
<glyph glyph-name="Eth" horiz-adv-x="608" unicode="Ð" d="M325 289h-117l-42 -192h86q72 0 126.5 52t79.5 122.5t25 142.5q0 71 -36 113.5t-92 42.5h-85l-42 -191h117zM233 0h-199l63 289h-74l20 90h74l64 288h195q91 0 156 -68t65 -181q0 -54 -11.5 -109.5t-39 -111.5t-68 -99.5t-104 -70.5t-141.5 -27z"/>
<glyph glyph-name="Ntilde" horiz-adv-x="594" unicode="Ñ" d="M476 0h-106l-149 454l-101 -454h-110l147 667h112l145 -441l98 441h111zM462 726q-22 0 -36.5 12.5t-20 28t-15.5 28t-24 12.5q-33 0 -49 -75h-55q29 134 110 134q23 0 37.5 -12.5t20 -28t15.5 -28t24 -12.5q32 0 49 75h55q-29 -134 -111 -134z"/>
<glyph glyph-name="Ograve" horiz-adv-x="615" unicode="Ò" d="M288 86q57 0 106 52t75.5 129.5t26.5 157.5q0 71 -36.5 113t-95.5 42q-57 0 -106 -52.5t-75 -130t-26 -157.5q0 -71 36 -112.5t95 -41.5zM282 -12q-108 0 -173.5 69t-65.5 181q0 106 38 205t115 167t175 68q108 0 173.5 -69t65.5 -181q0 -106 -38 -205t-115 -167 t-175 -68zM483 728h-68l-103 144h92z"/>
<glyph glyph-name="Oacute" horiz-adv-x="615" unicode="Ó" d="M288 86q57 0 106 52t75.5 129.5t26.5 157.5q0 71 -36.5 113t-95.5 42q-57 0 -106 -52.5t-75 -130t-26 -157.5q0 -71 36 -112.5t95 -41.5zM282 -12q-108 0 -173.5 69t-65.5 181q0 106 38 205t115 167t175 68q108 0 173.5 -69t65.5 -181q0 -106 -38 -205t-115 -167 t-175 -68zM584 872l-167 -144h-70l142 144h95z"/>
<glyph glyph-name="Ocircumflex" horiz-adv-x="615" unicode="Ô" d="M288 86q57 0 106 52t75.5 129.5t26.5 157.5q0 71 -36.5 113t-95.5 42q-57 0 -106 -52.5t-75 -130t-26 -157.5q0 -71 36 -112.5t95 -41.5zM282 -12q-108 0 -173.5 69t-65.5 181q0 106 38 205t115 167t175 68q108 0 173.5 -69t65.5 -181q0 -106 -38 -205t-115 -167 t-175 -68zM541 728h-58l-46 97l-85 -97h-62l110 144h92z"/>
<glyph glyph-name="Otilde" horiz-adv-x="615" unicode="Õ" d="M288 86q57 0 106 52t75.5 129.5t26.5 157.5q0 71 -36.5 113t-95.5 42q-57 0 -106 -52.5t-75 -130t-26 -157.5q0 -71 36 -112.5t95 -41.5zM282 -12q-108 0 -173.5 69t-65.5 181q0 106 38 205t115 167t175 68q108 0 173.5 -69t65.5 -181q0 -106 -38 -205t-115 -167 t-175 -68zM474 726q-22 0 -36.5 12.5t-20 28t-15.5 28t-24 12.5q-33 0 -49 -75h-55q29 134 110 134q23 0 37.5 -12.5t20 -28t15.5 -28t24 -12.5q32 0 49 75h55q-29 -134 -111 -134z"/>
<glyph glyph-name="Odieresis" horiz-adv-x="615" unicode="Ö" d="M288 86q57 0 106 52t75.5 129.5t26.5 157.5q0 71 -36.5 113t-95.5 42q-57 0 -106 -52.5t-75 -130t-26 -157.5q0 -71 36 -112.5t95 -41.5zM282 -12q-108 0 -173.5 69t-65.5 181q0 106 38 205t115 167t175 68q108 0 173.5 -69t65.5 -181q0 -106 -38 -205t-115 -167 t-175 -68zM391 784q0 -25 -19 -43.5t-45 -18.5q-21 0 -35.5 14.5t-14.5 35.5q0 25 19.5 43.5t44.5 18.5q21 0 35.5 -14t14.5 -36zM573 784q0 -25 -19 -43.5t-44 -18.5q-22 0 -36 14.5t-14 35.5q0 25 19 43.5t44 18.5q21 0 35.5 -14t14.5 -36z"/>
<glyph glyph-name="multiply" horiz-adv-x="441" unicode="×" d="M329 166l-95 122l-153 -126l-40 50l155 126l-96 122l52 42l94 -122l154 126l40 -50l-154 -126l94 -122z"/>
<glyph glyph-name="Oslash" horiz-adv-x="615" unicode="Ø" d="M157 240q0 -34 7 -58l291 360q-36 38 -91 38q-57 0 -106 -52.5t-75 -130t-26 -157.5zM288 86q57 0 106 52t75.5 129.5t26.5 157.5q0 35 -9 63l-293 -362q35 -40 94 -40zM282 -12q-95 0 -157 53l-33 -41h-75l69 85q-43 63 -43 153q0 106 38 205t115 167t175 68 q89 0 153 -51l32 40h75l-67 -83q46 -63 46 -156q0 -106 -38 -205t-115 -167t-175 -68z"/>
<glyph glyph-name="Ugrave" horiz-adv-x="593" unicode="Ù" d="M273 -12q-100 0 -159 52t-59 141q0 26 5 46l97 440h111l-98 -444q-4 -28 -4 -34q1 -47 30.5 -75.5t80.5 -28.5q56 0 88 34.5t48 103.5l98 444h111l-98 -442q-52 -237 -251 -237zM472 728h-68l-103 144h92z"/>
<glyph glyph-name="Uacute" horiz-adv-x="593" unicode="Ú" d="M273 -12q-100 0 -159 52t-59 141q0 26 5 46l97 440h111l-98 -444q-4 -28 -4 -34q1 -47 30.5 -75.5t80.5 -28.5q56 0 88 34.5t48 103.5l98 444h111l-98 -442q-52 -237 -251 -237zM573 872l-167 -144h-70l142 144h95z"/>
<glyph glyph-name="Ucircumflex" horiz-adv-x="593" unicode="Û" d="M273 -12q-100 0 -159 52t-59 141q0 26 5 46l97 440h111l-98 -444q-4 -28 -4 -34q1 -47 30.5 -75.5t80.5 -28.5q56 0 88 34.5t48 103.5l98 444h111l-98 -442q-52 -237 -251 -237zM532 728h-58l-46 97l-85 -97h-62l110 144h92z"/>
<glyph glyph-name="Udieresis" horiz-adv-x="593" unicode="Ü" d="M273 -12q-100 0 -159 52t-59 141q0 26 5 46l97 440h111l-98 -444q-4 -28 -4 -34q1 -47 30.5 -75.5t80.5 -28.5q56 0 88 34.5t48 103.5l98 444h111l-98 -442q-52 -237 -251 -237zM381 784q0 -25 -19 -43.5t-45 -18.5q-21 0 -35.5 14.5t-14.5 35.5q0 25 19.5 43.5 t44.5 18.5q21 0 35.5 -14t14.5 -36zM563 784q0 -25 -19 -43.5t-44 -18.5q-22 0 -36 14.5t-14 35.5q0 25 19 43.5t44 18.5q21 0 35.5 -14t14.5 -36z"/>
<glyph glyph-name="Yacute" horiz-adv-x="524" unicode="Ý" d="M263 0h-110l61 278l-121 389h117l76 -285l203 285h128l-292 -389zM541 872l-167 -144h-70l142 144h95z"/>
<glyph glyph-name="Thorn" horiz-adv-x="515" unicode="Þ" d="M274 236q58 0 91 40.5t33 95.5q0 37 -22 60.5t-57 23.5h-98l-48 -220h101zM120 0h-110l147 667h110l-24 -114h105q72 0 119 -49t47 -122q0 -43 -14.5 -84.5t-43 -78t-78 -58.5t-112.5 -22h-115z"/>
<glyph glyph-name="germandbls" horiz-adv-x="557" unicode="ß" d="M522 150q0 -64 -49.5 -113t-128.5 -49q-114 0 -177 79l55 63q47 -62 118 -62q34 0 56.5 20.5t22.5 48.5q0 23 -27.5 42.5t-61 33.5t-61 43.5t-27.5 70.5q0 37 16.5 64.5t39.5 43.5t46 30t39.5 30.5t16.5 36.5q0 26 -23 41.5t-57 15.5q-82 0 -103 -96l-109 -493h-99 l109 493q18 83 71.5 133.5t136.5 50.5q72 0 125 -37t53 -94q0 -43 -25.5 -74.5t-56 -46.5t-56 -36t-25.5 -45q0 -22 28.5 -41.5t62 -33t62 -44.5t28.5 -75z"/>
<glyph glyph-name="agrave" horiz-adv-x="495" unicode="à" d="M364 556h-68l-103 144h92zM266 407q-59 0 -98 -75.5t-39 -152.5q0 -49 23 -76t63 -27q29 0 55.5 19t44.5 48l44 198q-10 29 -35 47.5t-58 18.5zM248 495q92 0 128 -79l14 67h99l-107 -483h-99l14 62q-53 -74 -127 -74q-67 0 -106 46t-39 129q0 73 24.5 147t77.5 129.5 t121 55.5z"/>
<glyph glyph-name="aacute" horiz-adv-x="495" unicode="á" d="M467 700l-167 -144h-70l142 144h95zM266 407q-59 0 -98 -75.5t-39 -152.5q0 -49 23 -76t63 -27q29 0 55.5 19t44.5 48l44 198q-10 29 -35 47.5t-58 18.5zM248 495q92 0 128 -79l14 67h99l-107 -483h-99l14 62q-53 -74 -127 -74q-67 0 -106 46t-39 129q0 73 24.5 147 t77.5 129.5t121 55.5z"/>
<glyph glyph-name="acircumflex" horiz-adv-x="495" unicode="â" d="M424 556h-58l-46 97l-85 -97h-62l110 144h92zM266 407q-59 0 -98 -75.5t-39 -152.5q0 -49 23 -76t63 -27q29 0 55.5 19t44.5 48l44 198q-10 29 -35 47.5t-58 18.5zM248 495q92 0 128 -79l14 67h99l-107 -483h-99l14 62q-53 -74 -127 -74q-67 0 -106 46t-39 129 q0 73 24.5 147t77.5 129.5t121 55.5z"/>
<glyph glyph-name="atilde" horiz-adv-x="495" unicode="ã" d="M356 554q-22 0 -36.5 12.5t-20 28t-15.5 28t-24 12.5q-33 0 -49 -75h-55q29 134 110 134q23 0 37.5 -12.5t20 -28t15.5 -28t24 -12.5q32 0 49 75h55q-29 -134 -111 -134zM266 407q-59 0 -98 -75.5t-39 -152.5q0 -49 23 -76t63 -27q29 0 55.5 19t44.5 48l44 198 q-10 29 -35 47.5t-58 18.5zM248 495q92 0 128 -79l14 67h99l-107 -483h-99l14 62q-53 -74 -127 -74q-67 0 -106 46t-39 129q0 73 24.5 147t77.5 129.5t121 55.5z"/>
<glyph glyph-name="adieresis" horiz-adv-x="495" unicode="ä" d="M275 613q0 -25 -19 -43.5t-45 -18.5q-21 0 -35.5 14.5t-14.5 35.5q0 25 19.5 43.5t44.5 18.5q21 0 35.5 -14t14.5 -36zM457 613q0 -25 -19 -43.5t-44 -18.5q-22 0 -36 14.5t-14 35.5q0 25 19 43.5t44 18.5q21 0 35.5 -14t14.5 -36zM266 407q-59 0 -98 -75.5t-39 -152.5 q0 -49 23 -76t63 -27q29 0 55.5 19t44.5 48l44 198q-10 29 -35 47.5t-58 18.5zM248 495q92 0 128 -79l14 67h99l-107 -483h-99l14 62q-53 -74 -127 -74q-67 0 -106 46t-39 129q0 73 24.5 147t77.5 129.5t121 55.5z"/>
<glyph glyph-name="aring" horiz-adv-x="495" unicode="å" d="M309 591q21 0 37 15.5t16 36.5q0 19 -11.5 31t-30.5 12q-21 0 -37 -15.5t-16 -36.5q0 -19 11.5 -31t30.5 -12zM304 543q-37 0 -60.5 24t-23.5 62q0 42 31 73t73 31q38 0 61.5 -23.5t23.5 -61.5q0 -42 -31.5 -73.5t-73.5 -31.5zM266 407q-59 0 -98 -75.5t-39 -152.5 q0 -49 23 -76t63 -27q29 0 55.5 19t44.5 48l44 198q-10 29 -35 47.5t-58 18.5zM248 495q92 0 128 -79l14 67h99l-107 -483h-99l14 62q-53 -74 -127 -74q-67 0 -106 46t-39 129q0 73 24.5 147t77.5 129.5t121 55.5z"/>
<glyph glyph-name="ae" horiz-adv-x="779" unicode="æ" d="M659 280q4 15 4 36q0 43 -23 70.5t-67 27.5q-48 0 -83.5 -41t-45.5 -93h215zM266 407q-59 0 -98 -75.5t-39 -152.5q0 -49 23 -76t63 -27q58 0 101 67l43 198q-10 29 -35 47.5t-58 18.5zM547 -12q-114 0 -145 99l-19 -87h-100l14 62q-53 -74 -127 -74q-67 0 -106 46 t-39 129q0 53 15 110t42 107.5t71 82.5t96 32q91 0 127 -79l15 67h99l-15 -65q60 77 134 77q70 0 107 -45.5t37 -134.5q0 -52 -14 -106h-307q-3 -17 -3 -34q0 -43 30 -73.5t86 -30.5q59 0 106 44l34 -70q-63 -57 -138 -57z"/>
<glyph glyph-name="ccedilla" horiz-adv-x="417" unicode="ç" d="M165 -193q-65 0 -101 39l30 41q29 -34 72 -34q23 0 36.5 12t13.5 30q0 26 -28 26q-16 0 -29 -15l-34 22l39 66q-64 14 -100.5 64t-36.5 127q0 76 30.5 146.5t89 117t130.5 46.5q105 0 152 -71l-62 -65q-27 48 -86 48q-67 0 -109.5 -68.5t-42.5 -147.5q0 -56 29 -85.5 t76 -29.5q50 0 86 41l37 -72q-57 -57 -139 -57h-6l-25 -41q13 10 28 10q24 0 39.5 -16t15.5 -43q0 -40 -30 -65.5t-75 -25.5z"/>
<glyph glyph-name="egrave" horiz-adv-x="476" unicode="è" d="M380 556h-68l-103 144h92zM354 280h2q4 15 4 35q0 43 -24.5 71t-69.5 28q-48 0 -83 -41t-44 -93h215zM227 -12q-93 0 -146.5 52t-53.5 144q0 70 28.5 140t87 120.5t131.5 50.5q82 0 129 -50t47 -137q0 -45 -14 -99h-310q-3 -17 -3 -34q0 -43 29.5 -74.5t86.5 -31.5 q61 0 108 44l34 -66q-65 -59 -154 -59z"/>
<glyph glyph-name="eacute" horiz-adv-x="476" unicode="é" d="M483 700l-167 -144h-70l142 144h95zM354 280h2q4 15 4 35q0 43 -24.5 71t-69.5 28q-48 0 -83 -41t-44 -93h215zM227 -12q-93 0 -146.5 52t-53.5 144q0 70 28.5 140t87 120.5t131.5 50.5q82 0 129 -50t47 -137q0 -45 -14 -99h-310q-3 -17 -3 -34q0 -43 29.5 -74.5 t86.5 -31.5q61 0 108 44l34 -66q-65 -59 -154 -59z"/>
<glyph glyph-name="ecircumflex" horiz-adv-x="476" unicode="ê" d="M438 556h-58l-46 97l-85 -97h-62l110 144h92zM354 280h2q4 15 4 35q0 43 -24.5 71t-69.5 28q-48 0 -83 -41t-44 -93h215zM227 -12q-93 0 -146.5 52t-53.5 144q0 70 28.5 140t87 120.5t131.5 50.5q82 0 129 -50t47 -137q0 -45 -14 -99h-310q-3 -17 -3 -34 q0 -43 29.5 -74.5t86.5 -31.5q61 0 108 44l34 -66q-65 -59 -154 -59z"/>
<glyph glyph-name="edieresis" horiz-adv-x="476" unicode="ë" d="M288 613q0 -25 -19 -43.5t-45 -18.5q-21 0 -35.5 14.5t-14.5 35.5q0 25 19.5 43.5t44.5 18.5q21 0 35.5 -14t14.5 -36zM470 613q0 -25 -19 -43.5t-44 -18.5q-22 0 -36 14.5t-14 35.5q0 25 19 43.5t44 18.5q21 0 35.5 -14t14.5 -36zM354 280h2q4 15 4 35q0 43 -24.5 71 t-69.5 28q-48 0 -83 -41t-44 -93h215zM227 -12q-93 0 -146.5 52t-53.5 144q0 70 28.5 140t87 120.5t131.5 50.5q82 0 129 -50t47 -137q0 -45 -14 -99h-310q-3 -17 -3 -34q0 -43 29.5 -74.5t86.5 -31.5q61 0 108 44l34 -66q-65 -59 -154 -59z"/>
<glyph glyph-name="igrave" horiz-adv-x="217" unicode="ì" d="M104 0h-99l107 483h99zM244 556h-68l-103 144h92z"/>
<glyph glyph-name="iacute" horiz-adv-x="217" unicode="í" d="M104 0h-99l107 483h99zM347 700l-167 -144h-70l142 144h95z"/>
<glyph glyph-name="icircumflex" horiz-adv-x="217" unicode="î" d="M104 0h-99l107 483h99zM304 556h-58l-46 97l-85 -97h-62l110 144h92z"/>
<glyph glyph-name="idieresis" horiz-adv-x="217" unicode="ï" d="M104 0h-99l107 483h99zM155 613q0 -25 -19 -43.5t-45 -18.5q-21 0 -35.5 14.5t-14.5 35.5q0 25 19.5 43.5t44.5 18.5q21 0 35.5 -14t14.5 -36zM337 613q0 -25 -19 -43.5t-44 -18.5q-22 0 -36 14.5t-14 35.5q0 25 19 43.5t44 18.5q21 0 35.5 -14t14.5 -36z"/>
<glyph glyph-name="eth" horiz-adv-x="490" unicode="ð" d="M220 76q56 0 95.5 67.5t39.5 138.5q0 40 -24 70.5t-70 30.5q-56 0 -94.5 -67t-38.5 -136q0 -51 24 -77.5t68 -26.5zM177 502l-11 50l122 36q-21 32 -47 63l84 52q35 -42 64 -85l90 27l11 -49l-74 -22q55 -101 55 -209q0 -91 -27 -174.5t-86.5 -143t-139.5 -59.5 q-90 0 -141.5 51t-51.5 137q0 110 64 202t157 92q45 0 78.5 -24t48.5 -68q-12 77 -59 165z"/>
<glyph glyph-name="ntilde" horiz-adv-x="486" unicode="ñ" d="M373 554q-22 0 -36.5 12.5t-20 28t-15.5 28t-24 12.5q-33 0 -49 -75h-55q29 134 110 134q23 0 37.5 -12.5t20 -28t15.5 -28t24 -12.5q32 0 49 75h55q-29 -134 -111 -134zM375 0h-100l73 329q4 14 4 26q0 52 -62 52q-53 0 -109 -68l-75 -339h-99l107 483h99l-14 -64 q66 76 143 76q54 0 85.5 -27t31.5 -73q0 -15 -5 -35z"/>
<glyph glyph-name="ograve" horiz-adv-x="490" unicode="ò" d="M381 556h-68l-103 144h92zM219 76q40 0 73.5 38t50 89t16.5 97q0 52 -23.5 79.5t-66.5 27.5q-40 0 -73.5 -38t-50 -89t-16.5 -97q0 -52 23.5 -79.5t66.5 -27.5zM215 -12q-89 0 -139 52t-50 142q0 117 70 215t177 98q89 0 138.5 -52t49.5 -142q0 -117 -69.5 -215 t-176.5 -98z"/>
<glyph glyph-name="oacute" horiz-adv-x="490" unicode="ó" d="M483 700l-167 -144h-70l142 144h95zM219 76q40 0 73.5 38t50 89t16.5 97q0 52 -23.5 79.5t-66.5 27.5q-40 0 -73.5 -38t-50 -89t-16.5 -97q0 -52 23.5 -79.5t66.5 -27.5zM215 -12q-89 0 -139 52t-50 142q0 117 70 215t177 98q89 0 138.5 -52t49.5 -142q0 -117 -69.5 -215 t-176.5 -98z"/>
<glyph glyph-name="ocircumflex" horiz-adv-x="490" unicode="ô" d="M440 556h-58l-46 97l-85 -97h-62l110 144h92zM219 76q40 0 73.5 38t50 89t16.5 97q0 52 -23.5 79.5t-66.5 27.5q-40 0 -73.5 -38t-50 -89t-16.5 -97q0 -52 23.5 -79.5t66.5 -27.5zM215 -12q-89 0 -139 52t-50 142q0 117 70 215t177 98q89 0 138.5 -52t49.5 -142 q0 -117 -69.5 -215t-176.5 -98z"/>
<glyph glyph-name="otilde" horiz-adv-x="490" unicode="õ" d="M373 554q-22 0 -36.5 12.5t-20 28t-15.5 28t-24 12.5q-33 0 -49 -75h-55q29 134 110 134q23 0 37.5 -12.5t20 -28t15.5 -28t24 -12.5q32 0 49 75h55q-29 -134 -111 -134zM219 76q40 0 73.5 38t50 89t16.5 97q0 52 -23.5 79.5t-66.5 27.5q-40 0 -73.5 -38t-50 -89 t-16.5 -97q0 -52 23.5 -79.5t66.5 -27.5zM215 -12q-89 0 -139 52t-50 142q0 117 70 215t177 98q89 0 138.5 -52t49.5 -142q0 -117 -69.5 -215t-176.5 -98z"/>
<glyph glyph-name="odieresis" horiz-adv-x="490" unicode="ö" d="M291 613q0 -25 -19 -43.5t-45 -18.5q-21 0 -35.5 14.5t-14.5 35.5q0 25 19.5 43.5t44.5 18.5q21 0 35.5 -14t14.5 -36zM473 613q0 -25 -19 -43.5t-44 -18.5q-22 0 -36 14.5t-14 35.5q0 25 19 43.5t44 18.5q21 0 35.5 -14t14.5 -36zM219 76q40 0 73.5 38t50 89t16.5 97 q0 52 -23.5 79.5t-66.5 27.5q-40 0 -73.5 -38t-50 -89t-16.5 -97q0 -52 23.5 -79.5t66.5 -27.5zM215 -12q-89 0 -139 52t-50 142q0 117 70 215t177 98q89 0 138.5 -52t49.5 -142q0 -117 -69.5 -215t-176.5 -98z"/>
<glyph glyph-name="divide" horiz-adv-x="443" unicode="÷" d="M273 448q-19 0 -33.5 14t-14.5 34q0 24 17 40.5t41 16.5q20 0 34 -14t14 -34q0 -24 -17 -40.5t-41 -16.5zM200 118q-20 0 -34 14.5t-14 34.5q0 23 17 39.5t41 16.5q20 0 34 -14t14 -34q0 -24 -17 -40.5t-41 -16.5zM427 305h-385l15 65h384z"/>
<glyph glyph-name="oslash" horiz-adv-x="490" unicode="ø" d="M129 183q0 -20 2 -29l205 225q-25 28 -67 28q-40 0 -73.5 -38t-50 -89t-16.5 -97zM219 76q40 0 73.5 38t50 89t16.5 97q0 16 -3 30l-205 -225q22 -29 68 -29zM55 0h-65l63 69q-27 47 -27 113q0 117 70 215t177 98q81 0 129 -43l29 31h65l-63 -69q28 -47 28 -113 q0 -117 -69.5 -215t-176.5 -98q-82 0 -131 44z"/>
<glyph glyph-name="ugrave" horiz-adv-x="486" unicode="ù" d="M380 556h-68l-103 144h92zM112 483h99l-73 -328q0 -3 -1 -8.5t-1.5 -10t-0.5 -8.5q0 -52 62 -52q55 0 108 67l75 340h99l-107 -483h-99l15 64q-68 -76 -143 -76q-54 0 -85.5 27t-31.5 73q0 22 5 35z"/>
<glyph glyph-name="uacute" horiz-adv-x="486" unicode="ú" d="M482 700l-167 -144h-70l142 144h95zM112 483h99l-73 -328q0 -3 -1 -8.5t-1.5 -10t-0.5 -8.5q0 -52 62 -52q55 0 108 67l75 340h99l-107 -483h-99l15 64q-68 -76 -143 -76q-54 0 -85.5 27t-31.5 73q0 22 5 35z"/>
<glyph glyph-name="ucircumflex" horiz-adv-x="486" unicode="û" d="M438 556h-58l-46 97l-85 -97h-62l110 144h92zM112 483h99l-73 -328q0 -3 -1 -8.5t-1.5 -10t-0.5 -8.5q0 -52 62 -52q55 0 108 67l75 340h99l-107 -483h-99l15 64q-68 -76 -143 -76q-54 0 -85.5 27t-31.5 73q0 22 5 35z"/>
<glyph glyph-name="udieresis" horiz-adv-x="486" unicode="ü" d="M291 613q0 -25 -19 -43.5t-45 -18.5q-21 0 -35.5 14.5t-14.5 35.5q0 25 19.5 43.5t44.5 18.5q21 0 35.5 -14t14.5 -36zM473 613q0 -25 -19 -43.5t-44 -18.5q-22 0 -36 14.5t-14 35.5q0 25 19 43.5t44 18.5q21 0 35.5 -14t14.5 -36zM112 483h99l-73 -328q0 -3 -1 -8.5 t-1.5 -10t-0.5 -8.5q0 -52 62 -52q55 0 108 67l75 340h99l-107 -483h-99l15 64q-68 -76 -143 -76q-54 0 -85.5 27t-31.5 73q0 22 5 35z"/>
<glyph glyph-name="yacute" horiz-adv-x="432" unicode="ý" d="M454 700l-167 -144h-70l142 144h95zM-51 -184l32 84q14 -7 36 -7q32 0 55 40l35 61l-53 489h103l28 -363l190 363h109l-320 -573q-32 -58 -66.5 -82t-81.5 -24q-40 0 -67 12z"/>
<glyph glyph-name="thorn" horiz-adv-x="494" unicode="þ" d="M228 76q41 0 74 39t48.5 90.5t15.5 98.5q0 49 -23 76t-63 27q-58 0 -101 -67l-44 -198q11 -29 36 -47.5t57 -18.5zM246 -12q-92 0 -127 79l-56 -251h-99l188 851h99l-54 -246q54 74 128 74q67 0 105.5 -45.5t38.5 -129.5q0 -73 -24.5 -147t-77.5 -129.5t-121 -55.5z"/>
<glyph glyph-name="OE" horiz-adv-x="858" unicode="Œ" d="M440 198l56 253q-8 62 -41.5 95t-85.5 33q-60 0 -110.5 -57t-76 -134t-25.5 -148q0 -70 34 -112t92 -42q45 0 87 30t70 82zM763 0h-366l15 72q-62 -84 -166 -84q-90 0 -147 69t-57 181q0 101 40 201t117 169t169 69q120 0 156 -100l20 90h366l-22 -97h-255l-40 -181h248 l-21 -97h-249l-43 -195h256z"/>
<glyph glyph-name="oe" horiz-adv-x="793" unicode="œ" d="M355 300q0 53 -24 80t-65 27q-39 0 -71.5 -37t-49 -87.5t-16.5 -99.5q0 -51 22.5 -79t66.5 -28q58 0 97.5 74.5t39.5 149.5zM460 280h214q4 16 4 35q0 44 -23.5 71t-68.5 27q-50 0 -83.5 -41.5t-42.5 -91.5zM753 209h-306q-3 -15 -3 -34q0 -45 29.5 -75t84.5 -30 q60 0 106 43l34 -66q-64 -59 -152 -59q-65 0 -107.5 31.5t-54.5 77.5q-35 -51 -74 -80t-97 -29q-88 0 -137.5 51.5t-49.5 142.5q0 76 29 146.5t86.5 118.5t129.5 48q59 0 98.5 -31.5t53.5 -76.5q70 108 170 108q79 0 126.5 -48.5t47.5 -138.5q0 -47 -14 -99z"/>
<glyph glyph-name="Scaron" horiz-adv-x="484" unicode="Š" d="M218 -12q-71 0 -132 27t-92 71l68 81q26 -37 69 -59t91 -22q49 0 78 30t29 73q0 28 -24.5 52t-60 44.5t-70.5 43.5t-59.5 59.5t-24.5 82.5q0 85 64 146t159 61q60 0 113 -22.5t85 -61.5l-66 -80q-51 66 -140 66q-42 0 -69.5 -27t-27.5 -63q0 -26 24.5 -49.5t59 -44 t69.5 -44.5t59.5 -61t24.5 -83q0 -91 -62.5 -155.5t-164.5 -64.5zM403 728h-92l-49 144h58l45 -97l86 97h62z"/>
<glyph glyph-name="scaron" horiz-adv-x="402" unicode="š" d="M319 556h-92l-49 144h58l45 -97l86 97h62zM169 -12q-57 0 -105.5 21t-75.5 57l57 66q19 -27 54 -46t75 -19q35 0 57.5 20t22.5 47q0 20 -20 37t-49 31t-58 30.5t-49 44t-20 63.5q0 64 46.5 109.5t126.5 45.5q50 0 94.5 -19t71.5 -52l-54 -64q-14 22 -46.5 39t-67.5 17 q-34 0 -54 -16.5t-20 -42.5q0 -19 20.5 -35t49.5 -30t58 -30.5t49.5 -45t20.5 -64.5q0 -68 -50.5 -116t-133.5 -48z"/>
<glyph glyph-name="Ydieresis" horiz-adv-x="524" unicode="Ÿ" d="M263 0h-110l61 278l-121 389h117l76 -285l203 285h128l-292 -389zM348 784q0 -25 -19 -43.5t-45 -18.5q-21 0 -35.5 14.5t-14.5 35.5q0 25 19.5 43.5t44.5 18.5q21 0 35.5 -14t14.5 -36zM530 784q0 -25 -19 -43.5t-44 -18.5q-22 0 -36 14.5t-14 35.5q0 25 19 43.5 t44 18.5q21 0 35.5 -14t14.5 -36z"/>
<glyph glyph-name="circumflex" horiz-adv-x="251" unicode="ˆ" d="M320 556h-58l-46 97l-85 -97h-62l110 144h92z"/>
<glyph glyph-name="tilde" horiz-adv-x="283" unicode="˜" d="M270 554q-22 0 -36.5 12.5t-20 28t-15.5 28t-24 12.5q-33 0 -49 -75h-55q29 134 110 134q23 0 37.5 -12.5t20 -28t15.5 -28t24 -12.5q32 0 49 75h55q-29 -134 -111 -134z"/>
<glyph glyph-name="pi" horiz-adv-x="496" unicode="π" d="M363 0h-100l91 412h-138l-91 -412h-100l91 412h-56l19 88h450l-19 -88h-56z"/>
<glyph glyph-name="endash" horiz-adv-x="527" unicode="–" d="M486 199h-466l18 86h467z"/>
<glyph glyph-name="emdash" horiz-adv-x="737" unicode="—" d="M696 199h-676l18 86h677z"/>
<glyph glyph-name="quoteleft" horiz-adv-x="243" unicode="‘" d="M104 498q0 51 37.5 101.5t92.5 77.5l37 -39q-29 -14 -55 -37t-35 -47q1 1 9 1q21 0 36 -15t15 -40q0 -29 -22.5 -50t-50.5 -21q-27 0 -45.5 18t-18.5 51z"/>
<glyph glyph-name="quotesinglbase" horiz-adv-x="243" unicode="‚" d="M150 54q0 -51 -38 -101.5t-93 -77.5l-37 39q29 14 55 37t35 47h-9q-21 0 -36 14.5t-15 39.5q0 29 22.5 50t50.5 21q27 0 46 -18t19 -51z"/>
<glyph glyph-name="quotedblleft" horiz-adv-x="423" unicode="“" d="M107 498q0 51 37.5 101.5t92.5 77.5l37 -39q-29 -14 -55 -37t-35 -47q2 1 9 1q21 0 36 -15t15 -40q0 -29 -22 -50t-51 -21q-27 0 -45.5 18t-18.5 51zM286 498q0 51 37.5 101.5t92.5 77.5l38 -39q-29 -14 -55 -37t-36 -47q2 1 9 1q22 0 37 -15t15 -40q0 -29 -22.5 -50 t-50.5 -21t-46.5 18t-18.5 51z"/>
<glyph glyph-name="quotedblright" horiz-adv-x="423" unicode="”" d="M452 608q0 -51 -37.5 -101.5t-92.5 -78.5l-38 40q29 14 55 37t36 47q-2 -1 -10 -1q-21 0 -36 14.5t-15 39.5q0 29 22.5 50.5t50.5 21.5t46.5 -18.5t18.5 -50.5zM272 608q0 -51 -37.5 -101.5t-92.5 -78.5l-37 40q29 14 55 37t35 47q-2 -1 -9 -1q-21 0 -36 14.5t-15 39.5 q0 30 22 51t51 21q27 0 45.5 -18.5t18.5 -50.5z"/>
<glyph glyph-name="dagger" horiz-adv-x="269" unicode="†" d="M310 527l-88 4l-41 -204h-57l50 204l-90 -4l11 52l89 -3l18 101h57l-27 -101l90 3z"/>
<glyph glyph-name="daggerdbl" horiz-adv-x="269" unicode="‡" d="M322 579l-12 -52l-88 4l-45 -204l90 4l-12 -52l-88 3l-19 -102h-57l27 102l-89 -3l11 52l88 -4l45 204l-89 -4l11 52l88 -3l19 101h57l-27 -101z"/>
<glyph glyph-name="ellipsis" horiz-adv-x="726" unicode="…" d="M557 -11q-25 0 -43 18t-18 44q0 30 21.5 51t51.5 21q25 0 43 -17.5t18 -43.5q0 -30 -21.5 -51.5t-51.5 -21.5zM315 -11q-25 0 -43 18t-18 44q0 30 21.5 51t51.5 21q26 0 43.5 -17.5t17.5 -43.5q0 -30 -21.5 -51.5t-51.5 -21.5zM73 -11q-25 0 -43 18t-18 44q0 30 21.5 51 t51.5 21q26 0 43.5 -17.5t17.5 -43.5q0 -30 -21.5 -51.5t-51.5 -21.5z"/>
<glyph glyph-name="perthousand" horiz-adv-x="980" unicode="‰" d="M774 51q36 0 64 38.5t28 92.5q0 34 -17.5 53.5t-46.5 19.5q-36 0 -64 -38t-28 -92q0 -34 17.5 -54t46.5 -20zM770 -12q-58 0 -95 36.5t-37 93.5q0 85 50 143t117 58q58 0 95 -36.5t37 -93.5q0 -85 -50 -143t-117 -58zM217 410q36 0 64 38t28 92q0 34 -17.5 54t-46.5 20 q-36 0 -64 -38.5t-28 -92.5q0 -34 17.5 -53.5t46.5 -19.5zM213 346q-58 0 -95 36.5t-37 93.5q0 85 50 143t117 58q58 0 95 -36.5t37 -93.5q0 -85 -50 -143t-117 -58zM456 51q36 0 64.5 38.5t28.5 92.5q0 34 -17.5 53.5t-46.5 19.5q-36 0 -64 -38t-28 -92q0 -34 17 -54 t46 -20zM453 -12q-58 0 -95 36.5t-37 93.5q0 85 50 143t117 58q58 0 95 -36.5t37 -93.5q0 -85 -50 -143t-117 -58zM131 0h-56l498 667h57z"/>
<glyph glyph-name="guilsinglleft" horiz-adv-x="272" unicode="‹" d="M198 63h-84l-85 180l165 177h90l-169 -181z"/>
<glyph glyph-name="guilsinglright" horiz-adv-x="272" unicode="›" d="M75 420h84l85 -180l-165 -177h-90l169 182z"/>
<glyph glyph-name="Euro" horiz-adv-x="567" unicode="€" d="M303 -12q-106 0 -171.5 65.5t-67.5 177.5h-46l14 65h35q3 34 13 77h-31l15 64h36q41 107 117.5 174t174.5 67q89 0 143.5 -49t74.5 -126l-104 -30q-30 107 -121 107q-49 0 -91.5 -39t-72.5 -104h196l-15 -64h-205q-9 -33 -16 -77h204l-14 -65h-193q2 -68 37 -106.5 t94 -38.5q72 0 128 80l86 -49q-86 -129 -220 -129z"/>
<glyph glyph-name="trademark" horiz-adv-x="414" unicode="™" d="M237 641h-52l-43 -194h-28l43 194h-52l5 26h132zM424 447h-28l40 182l-105 -182h-8l-25 182l-40 -182h-28l48 220h43l20 -158l88 158h43z"/>
<glyph glyph-name="arrowleft" horiz-adv-x="582" unicode="←" d="M558 211h-269l12 -130l-281 205l281 204l-12 -129h269v-150z"/>
<glyph glyph-name="arrowup" horiz-adv-x="582" unicode="↑" d="M236 17v269l-130 -12l205 281l204 -281l-129 12v-269h-150z"/>
<glyph glyph-name="arrowright" horiz-adv-x="582" unicode="→" d="M604 286l-281 -205l12 130h-268v150h268l-12 129z"/>
<glyph glyph-name="arrowdown" horiz-adv-x="582" unicode="↓" d="M386 555v-269l130 12l-205 -281l-204 281l129 -12v269h150z"/>
<glyph glyph-name="partialdiff" horiz-adv-x="490" unicode="∂" d="M220 76q56 0 95.5 67.5t39.5 138.5q0 40 -24 70.5t-70 30.5q-56 0 -94.5 -67t-38.5 -136q0 -51 24 -77.5t68 -26.5zM218 -12q-91 0 -142.5 51t-51.5 137q0 110 64.5 202t157.5 92q45 0 78.5 -24t48.5 -68q-10 67 -47.5 143.5t-84.5 129.5l84 52q146 -170 146 -338 q0 -91 -27 -174.5t-86.5 -143t-139.5 -59.5z"/>
<glyph glyph-name="product" horiz-adv-x="617" unicode="∏" d="M440 -90h-111l146 660h-190l-146 -660h-110l145 660h-79l21 97h570l-21 -97h-79z"/>
<glyph glyph-name="summation" horiz-adv-x="466" unicode="∑" d="M345 292l-229 -285h257l-21 -97h-383l22 100l230 288l-105 272l21 97h382l-22 -97h-258z"/>
<glyph glyph-name="minus" horiz-adv-x="441" unicode="−" d="M425 302h-384l15 65h383z"/>
<glyph glyph-name="radical" horiz-adv-x="585" unicode="√" d="M298 0h-70l-26 311l-129 -37l-3 62l194 54l21 -289l298 566h72z"/>
<glyph glyph-name="infinity" horiz-adv-x="581" unicode="∞" d="M175 229q54 0 107 110q-10 103 -73 103q-42 0 -70 -42.5t-28 -94.5q0 -35 18 -55.5t46 -20.5zM411 229q43 0 70.5 42.5t27.5 94.5q0 35 -17.5 55.5t-45.5 20.5q-52 0 -107 -110q10 -103 72 -103zM160 165q-55 0 -85.5 35t-30.5 94q0 81 45.5 146.5t117.5 65.5 q44 0 74.5 -29t42.5 -77q61 106 136 106q55 0 85 -35t30 -94q0 -82 -45 -147t-117 -65q-44 0 -75 28.5t-43 76.5q-62 -105 -135 -105z"/>
<glyph glyph-name="approxequal" horiz-adv-x="441" unicode="≈" d="M62 393l15 70q37 -25 90 -25q40 0 96 22t105 22q55 0 92 -20l-15 -70q-38 26 -91 26q-39 0 -95.5 -22.5t-105.5 -22.5q-54 0 -91 20zM20 206l16 70q38 -26 90 -26q40 0 96 22.5t105 22.5q55 0 92 -20l-16 -70q-35 25 -90 25q-40 0 -96.5 -22t-104.5 -22q-55 0 -92 20z "/>
<glyph glyph-name="notequal" horiz-adv-x="441" unicode="≠" d="M89 93h-59l84 113h-94l15 65h128l94 126h-195l15 65h229l84 112h60l-84 -112h94l-14 -65h-129l-95 -126h196l-14 -65h-230z"/>
<glyph glyph-name="lessequal" horiz-adv-x="441" unicode="≤" d="M362 16h-384l14 65h384zM387 131l-345 175l16 71l422 176l-18 -80l-336 -135l277 -134z"/>
<glyph glyph-name="greaterequal" horiz-adv-x="441" unicode="≥" d="M362 16h-384l14 65h383zM425 306l-422 -175l18 80l337 133l-277 135l16 74l344 -176z"/>
<glyph glyph-name="lozenge" horiz-adv-x="375" unicode="◊" d="M142 45l197 293l-67 284l-196 -292zM144 0h-21l-84 334l231 333h21l85 -333z"/>
<glyph glyph-name="diamond" horiz-adv-x="501" unicode="♦" d="M521 285l-251 -250l-250 250l250 251z"/>
<glyph glyph-name="perthousand.onum" horiz-adv-x="799" unicode="" d="M692 150q0 28 -12.5 44t-34.5 16q-31 0 -52.5 -33t-21.5 -74q0 -59 47 -59q31 0 52.5 32.5t21.5 73.5zM755 151q0 -63 -40 -112.5t-100 -49.5q-50 0 -78.5 30.5t-28.5 82.5q0 63 40 112.5t99 49.5q50 0 79 -30.5t29 -82.5zM431 150q0 28 -13 44t-35 16q-31 0 -52.5 -33 t-21.5 -74q0 -59 47 -59q31 0 53 32.5t22 73.5zM494 151q0 -63 -40.5 -112.5t-99.5 -49.5q-50 0 -79 30.5t-29 82.5q0 63 40 112.5t99 49.5q50 0 79.5 -30.5t29.5 -82.5zM242 448q0 28 -13 44t-35 16q-31 0 -52.5 -33t-21.5 -74q0 -59 48 -59q31 0 52.5 32.5t21.5 73.5z M521 550l-437 -550h-54l436 550h55zM305 449q0 -63 -40.5 -112.5t-99.5 -49.5q-50 0 -79 30t-29 82q0 64 40 113.5t100 49.5q49 0 78.5 -30.5t29.5 -82.5z"/>
<glyph glyph-name="zero.tzero" horiz-adv-x="523" unicode="" d="M323 579q-49 0 -90 -65.5t-61 -148t-21 -151.5l246 321q-21 44 -74 44zM239 86q38 0 71.5 39t55 97t34 120t12.5 112l-248 -322q22 -46 75 -46zM230 -12q-84 0 -134 55l-33 -43h-77l76 99q-21 49 -21 122q0 107 36 210.5t104.5 174.5t152.5 71q83 0 131 -54l34 44h77 l-76 -99q22 -53 22 -124q0 -107 -35.5 -210.5t-104.5 -174.5t-152 -71z"/>
<glyph glyph-name="zero.tnum" d="M236 86q50 0 91.5 67.5t61.5 151.5t20 152q0 122 -89 122q-49 0 -90.5 -67t-61.5 -151t-20 -152q0 -123 88 -123zM227 -12q-87 0 -138 61t-51 172q0 107 36 210.5t104.5 174.5t152.5 71q88 0 138 -60.5t50 -172.5q0 -107 -35.5 -210.5t-104.5 -174.5t-152 -71z" unicode=""/>
<glyph glyph-name="two.tnum" d="M415 0h-412l24 108q221 178 257 211q109 96 122 157q3 12 3 23q0 37 -27 58.5t-72 21.5q-81 0 -139 -64l-54 75q84 87 202 87q88 0 147 -44.5t59 -123.5q0 -38 -16.5 -76.5t-40 -71.5t-73 -81t-91 -83.5t-118.5 -99.5h250z" unicode=""/>
<glyph glyph-name="three.tnum" d="M236 -12q-78 0 -142 36t-88 100l84 60q19 -46 58.5 -72t87.5 -26q54 0 85.5 38t31.5 89q0 37 -27 58t-76 21q-33 0 -53 -2l22 100q9 -1 71 -1q53 0 86 31.5t33 80.5q0 36 -29 57t-78 21q-76 0 -131 -60l-52 70q81 88 197 88q93 0 150 -41.5t57 -115.5q0 -69 -49 -120.5 t-114 -60.5q48 -14 75 -50t27 -86q0 -89 -65 -152t-161 -63z" unicode=""/>
<glyph glyph-name="four.tnum" d="M303 252l66 298l-234 -298h168zM358 0h-110l33 154h-268l23 103l323 410h146l-92 -415h70l-21 -98h-70z" unicode=""/>
<glyph glyph-name="five.tnum" d="M232 -12q-159 0 -219 132l84 61q37 -95 137 -95q53 0 90 47t37 108q0 42 -27 66.5t-73 24.5q-57 0 -109 -47l-73 31l77 351h376l-22 -97h-265l-42 -192q47 45 116 45t113.5 -45t44.5 -123q0 -108 -69 -187.5t-176 -79.5z" unicode=""/>
<glyph glyph-name="six.tnum" d="M246 86q52 0 87 52t35 108q0 39 -26 63t-70 24q-62 0 -118 -74q-4 -30 -4 -60q0 -52 25.5 -82.5t70.5 -30.5zM243 -12q-96 0 -148 59.5t-52 165.5q0 69 19.5 146.5t56 150t99 120t139.5 47.5q60 0 106 -25t71 -70l-73 -74q-29 71 -110 71q-64 0 -108.5 -62.5 t-67.5 -149.5q-4 -10 -7 -25q26 35 67.5 58.5t85.5 23.5q71 0 116.5 -43.5t45.5 -118.5q0 -105 -69 -189.5t-171 -84.5z" unicode=""/>
<glyph glyph-name="seven.tnum" d="M198 0h-125l331 570h-276l21 97h406l-17 -77z" unicode=""/>
<glyph glyph-name="eight.tnum" d="M236 86q45 0 80.5 33t35.5 82q0 37 -25.5 63.5t-55.5 35.5q-57 -9 -96.5 -44t-39.5 -87q0 -40 28 -61.5t73 -21.5zM289 384q54 9 89 39.5t35 79.5q0 33 -26.5 54t-67.5 21q-44 0 -75 -30t-31 -75q0 -30 23.5 -54.5t52.5 -34.5zM234 -12q-98 0 -156.5 40t-58.5 120 q0 68 46 124t129 82q-38 20 -64 55.5t-26 79.5q0 83 66.5 135.5t153.5 52.5q84 0 144.5 -39.5t60.5 -115.5q0 -71 -46 -121t-118 -66q44 -25 71 -63.5t27 -85.5q0 -87 -66 -142.5t-163 -55.5z" unicode=""/>
<glyph glyph-name="nine.tnum" d="M312 580q-53 0 -87.5 -52t-34.5 -108q0 -39 26 -63t70 -24q61 0 117 74q5 25 5 60q0 52 -25.5 82.5t-70.5 30.5zM314 678q97 0 148.5 -59.5t51.5 -165.5q0 -69 -19.5 -146.5t-56 -150t-99 -120t-139.5 -47.5q-59 0 -105 25t-71 70l72 74q31 -71 110 -71q64 0 108.5 62 t68.5 150q2 9 6 25q-25 -35 -66.5 -58.5t-85.5 -23.5q-71 0 -116.5 43.5t-45.5 118.5q0 106 68.5 190t170.5 84z" unicode=""/>
<glyph glyph-name="percent.onum" horiz-adv-x="537" unicode="" d="M431 150q0 28 -13 44t-35 16q-31 0 -52.5 -33t-21.5 -74q0 -59 47 -59q31 0 53 32.5t22 73.5zM494 151q0 -63 -40.5 -112.5t-99.5 -49.5q-50 0 -79 30.5t-29 82.5q0 63 40 112.5t99 49.5q50 0 79.5 -30.5t29.5 -82.5zM242 448q0 28 -13 44t-35 16q-31 0 -52.5 -33 t-21.5 -74q0 -59 48 -59q31 0 52.5 32.5t21.5 73.5zM521 550l-437 -550h-54l436 550h55zM305 449q0 -63 -40.5 -112.5t-99.5 -49.5q-50 0 -79 30t-29 82q0 64 40 113.5t100 49.5q49 0 78.5 -30.5t29.5 -82.5z"/>
<glyph glyph-name="zero.tonum" d="M389 347q0 117 -95 117q-37 0 -68 -30t-48 -74t-26.5 -85.5t-9.5 -71.5q0 -117 95 -117q37 0 67.5 30t48 74t27 85.5t9.5 71.5zM501 348q0 -53 -17 -113t-48.5 -116.5t-85 -93.5t-117.5 -37q-96 0 -150 56t-54 158q0 53 17 113t49 116.5t85.5 93.5t117.5 37 q96 0 149.5 -56t53.5 -158z" unicode=""/>
<glyph glyph-name="one.tonum" d="M323 0h-111l90 407l-125 -107l-50 67l220 183h97z" unicode=""/>
<glyph glyph-name="two.tonum" d="M395 0h-387l20 93q348 170 348 293q0 36 -26 57t-67 21q-81 0 -143 -69l-55 71q87 96 210 96q88 0 143 -40.5t55 -111.5q0 -83 -75 -159t-210 -154h208z" unicode=""/>
<glyph glyph-name="three.tonum" d="M210 -132q-78 0 -142 36t-88 100l84 60q19 -46 58.5 -72t87.5 -26q54 0 85.5 38t31.5 89q0 37 -27 58t-76 21q-33 0 -53 -2l22 100q9 -1 71 -1q53 0 86 31.5t33 80.5q0 36 -29 57t-78 21q-76 0 -131 -60l-52 70q81 88 197 88q93 0 150 -41.5t57 -115.5q0 -69 -49 -120.5 t-114 -60.5q48 -14 75 -50t27 -86q0 -89 -65 -152t-161 -63z" unicode=""/>
<glyph glyph-name="four.tonum" d="M278 139l65 295l-234 -295h169zM438 42h-71l-35 -159h-110l35 159h-269l21 94l329 414h141l-91 -411h71z" unicode=""/>
<glyph glyph-name="five.tonum" d="M206 -129q-159 0 -219 132l84 61q37 -95 137 -95q53 0 90 47t37 108q0 42 -27 66.5t-73 24.5q-57 0 -109 -47l-73 31l77 351h376l-22 -97h-265l-42 -192q47 45 116 45t113.5 -45t44.5 -123q0 -108 -69 -187.5t-176 -79.5z" unicode=""/>
<glyph glyph-name="six.tonum" d="M246 86q52 0 87 52t35 108q0 39 -26 63t-70 24q-62 0 -118 -74q-4 -30 -4 -60q0 -52 25.5 -82.5t70.5 -30.5zM243 -12q-96 0 -148 59.5t-52 165.5q0 69 19.5 146.5t56 150t99 120t139.5 47.5q60 0 106 -25t71 -70l-73 -74q-29 71 -110 71q-64 0 -108.5 -62.5 t-67.5 -149.5q-4 -10 -7 -25q26 35 67.5 58.5t85.5 23.5q71 0 116.5 -43.5t45.5 -118.5q0 -105 -69 -189.5t-171 -84.5z" unicode=""/>
<glyph glyph-name="seven.tonum" d="M172 -117h-125l331 570h-276l21 97h406l-17 -77z" unicode=""/>
<glyph glyph-name="eight.tonum" d="M236 86q45 0 80.5 33t35.5 82q0 37 -25.5 63.5t-55.5 35.5q-57 -9 -96.5 -44t-39.5 -87q0 -40 28 -61.5t73 -21.5zM289 384q54 9 89 39.5t35 79.5q0 33 -26.5 54t-67.5 21q-44 0 -75 -30t-31 -75q0 -30 23.5 -54.5t52.5 -34.5zM234 -12q-98 0 -156.5 40t-58.5 120 q0 68 46 124t129 82q-38 20 -64 55.5t-26 79.5q0 83 66.5 135.5t153.5 52.5q84 0 144.5 -39.5t60.5 -115.5q0 -71 -46 -121t-118 -66q44 -25 71 -63.5t27 -85.5q0 -87 -66 -142.5t-163 -55.5z" unicode=""/>
<glyph glyph-name="nine.tonum" d="M286 463q-53 0 -87.5 -52t-34.5 -108q0 -39 26 -63t70 -24q61 0 117 74q5 25 5 60q0 52 -25.5 82.5t-70.5 30.5zM288 561q97 0 148.5 -59.5t51.5 -165.5q0 -69 -19.5 -146.5t-56 -150t-99 -120t-139.5 -47.5q-59 0 -105 25t-71 70l72 74q31 -71 110 -71q64 0 108.5 62 t68.5 150q2 9 6 25q-25 -35 -66.5 -58.5t-85.5 -23.5q-71 0 -116.5 43.5t-45.5 118.5q0 106 68.5 190t170.5 84z" unicode=""/>
<glyph glyph-name="colonmonetary.onum" horiz-adv-x="479" unicode="" d="M137 207q0 -29 5 -45l152 307q-66 -10 -111.5 -91.5t-45.5 -170.5zM166 114q11 -13 30 -23l176 356q-14 13 -33 19zM125 -53l28 57q-15 5 -34 17l-36 -74h-47l50 101q-54 57 -54 154q0 87 33 168.5t99 136.5t149 55q8 0 26 -2l19 39h47l-24 -48q15 -5 34 -16l32 64h47 l-45 -91q31 -34 45 -85l-90 -27q-1 2 -2.5 6t-2.5 6l-162 -329h13q62 0 108 71l77 -43q-81 -119 -192 -119q-28 0 -49 4l-22 -45h-47z"/>
<glyph glyph-name="Euro.onum" horiz-adv-x="499" unicode="" d="M334 307h-162q-10 -38 -13 -65h161l-11 -52h-151q4 -54 34 -82.5t78 -28.5q62 0 108 71l77 -43q-81 -119 -192 -119q-93 0 -150 53t-61 149h-43l11 52h34q3 37 11 65h-31l12 52h35q34 90 100 146.5t152 56.5q71 0 118 -37.5t63 -101.5l-90 -27q-11 35 -36 55t-58 20 q-42 0 -77 -30.5t-60 -81.5h153z"/>
<glyph glyph-name="florin.onum" horiz-adv-x="367" unicode="" d="M80 -119h-112l72 328h-41v73h57l30 131q35 148 153 148q53 0 84 -31l-39 -81q-10 15 -32 15q-41 0 -57 -68l-25 -114h79v-73h-96z"/>
<glyph glyph-name="numbersign.onum" horiz-adv-x="445" unicode="" d="M296 341h-70l-65 -128h71zM460 398l-26 -57h-68l-65 -128h69l-29 -58h-69l-78 -155h-70l79 155h-72l-77 -155h-70l78 155h-65l29 58h67l64 128h-67l27 57h68l77 152h70l-78 -152h71l78 152h69l-77 -152h65z"/>
<glyph glyph-name="sterling.onum" horiz-adv-x="388" unicode="" d="M14 226l14 58h53q-15 47 -15 82q0 84 56 139.5t132 55.5q58 0 101 -29.5t52 -79.5l-83 -27q-5 30 -23.5 45.5t-43.5 15.5q-39 0 -64.5 -37.5t-25.5 -89.5q0 -29 14 -75h99l-14 -58h-74v-15q-1 -36 -22.5 -70t-44.5 -50q9 4 22 4q22 0 53.5 -11.5t48.5 -11.5q35 0 61 28 l20 -72q-38 -38 -94 -38q-36 0 -79 16t-68 16q-34 0 -79 -30l-17 66q45 21 76 58.5t31 82.5q0 13 -3 27h-83z"/>
<glyph glyph-name="yen.onum" horiz-adv-x="459" unicode="" d="M228 0h-103l24 111h-157l13 56h156l14 62h-157l13 56h125l-90 265h112l69 -225l166 225h114l-206 -265h125l-13 -56h-155l-14 -62h155l-12 -56h-155z"/>
<glyph glyph-name="cent.onum" horiz-adv-x="479" unicode="" d="M137 207q0 -89 62 -118l85 378q-62 -16 -104.5 -95.5t-42.5 -164.5zM160 -88l18 84q-68 17 -107 70.5t-39 135.5q0 86 32 166t96 135.5t145 57.5l13 60h75l-15 -69q90 -29 116 -129l-90 -27q-14 43 -47 62l-84 -377q48 12 85 69l77 -43q-78 -114 -183 -119l-17 -76h-75z "/>
<glyph glyph-name="zero.dnom" horiz-adv-x="338" unicode="" d="M238 269q0 75 -54 75q-33 0 -58.5 -41.5t-36 -88.5t-10.5 -84q0 -75 55 -75q25 0 46 24t33 59.5t18.5 70t6.5 60.5zM314 260q0 -38 -11 -82t-31.5 -86.5t-57.5 -70.5t-83 -28q-61 0 -94.5 38t-33.5 108q0 38 11 82t32 86.5t58 70.5t83 28q61 0 94 -38t33 -108z"/>
<glyph glyph-name="one.dnom" horiz-adv-x="247" unicode="" d="M140 0h-77l65 297l-73 -61l-36 47l142 117h67z"/>
<glyph glyph-name="two.dnom" horiz-adv-x="338" unicode="" d="M254 0h-269l13 61q145 105 193 149.5t48 83.5q0 24 -17.5 37t-44.5 13q-54 0 -94 -45l-36 50q55 57 135 57q57 0 96 -27.5t39 -77.5q0 -54 -48.5 -103t-166.5 -136h165z"/>
<glyph glyph-name="three.dnom" horiz-adv-x="338" unicode="" d="M281 117q0 -48 -39 -86t-103 -38q-50 0 -89.5 19t-57.5 53l53 44q29 -54 91 -54q32 0 50.5 21.5t18.5 50.5q0 22 -19.5 34.5t-50.5 12.5q-24 0 -30 -1l13 62q9 -1 48 -1q33 0 52.5 17t19.5 45q0 22 -18.5 35t-47.5 13q-48 0 -90 -40l-33 46q54 56 129 56q62 0 100 -26 t38 -73q0 -39 -28 -70.5t-74 -36.5q30 -8 48.5 -30t18.5 -53z"/>
<glyph glyph-name="four.dnom" horiz-adv-x="338" unicode="" d="M175 155l37 166l-136 -166h99zM283 94h-45l-20 -94h-77l21 94h-171l12 57l203 249h100l-55 -245h45z"/>
<glyph glyph-name="five.dnom" horiz-adv-x="338" unicode="" d="M286 154q0 -66 -42.5 -113.5t-110.5 -47.5q-104 0 -143 71l55 43q25 -52 86 -52q34 0 55.5 27t21.5 62q0 26 -16.5 40.5t-43.5 14.5q-40 0 -72 -35l-51 18l48 218h246l-13 -62h-170l-24 -112q32 30 72 30q43 0 72.5 -27t29.5 -75z"/>
<glyph glyph-name="six.dnom" horiz-adv-x="338" unicode="" d="M211 144q0 55 -60 55q-35 0 -69 -46q-3 -13 -3 -31q0 -29 16 -48t44 -19q31 0 51.5 28.5t20.5 60.5zM290 154q0 -63 -41 -112t-110 -49q-63 0 -98 36.5t-35 102.5q0 101 55.5 187.5t141.5 86.5q77 0 115 -50l-47 -49q-21 37 -70 37q-45 0 -73.5 -42.5t-36.5 -89.5 q0 -2 -1 -4v-3q39 55 96 55q44 0 74 -27.5t30 -78.5z"/>
<glyph glyph-name="seven.dnom" horiz-adv-x="313" unicode="" d="M310 347l-210 -347h-81l210 338h-187l14 62h266z"/>
<glyph glyph-name="eight.dnom" horiz-adv-x="338" unicode="" d="M206 117q0 22 -16 38.5t-36 22.5q-34 -3 -58.5 -24.5t-24.5 -51.5q0 -22 18.5 -36t45.5 -14q30 0 50.5 18.5t20.5 46.5zM240 299q0 23 -16.5 35t-42.5 12q-28 0 -46 -17.5t-18 -43.5q0 -22 16.5 -36t32.5 -19q74 15 74 69zM281 110q0 -51 -38.5 -84t-102.5 -33t-106 26 t-42 75q0 44 32 77t79 41q-60 25 -60 81q0 53 40.5 83t95.5 30q56 0 98 -24.5t42 -72.5q0 -40 -27 -70.5t-76 -39.5q26 -11 45.5 -35t19.5 -54z"/>
<glyph glyph-name="nine.dnom" horiz-adv-x="338" unicode="" d="M108 256q0 -27 16.5 -41t43.5 -14q37 0 69 46q3 13 3 31q0 29 -16 48t-44 19q-31 0 -51.5 -28.5t-20.5 -60.5zM29 246q0 63 41.5 112t109.5 49q64 0 99 -36.5t35 -102.5q0 -64 -23.5 -126t-69.5 -105t-104 -43q-77 0 -116 50l47 49q21 -37 71 -37q45 0 73.5 43t35.5 89 q1 3 1 7q-39 -55 -95 -55q-45 0 -75 27.5t-30 78.5z"/>
<glyph glyph-name="zero.numr" horiz-adv-x="338" unicode="" d="M297 536q0 75 -54 75q-33 0 -58.5 -41.5t-36 -88.5t-10.5 -84q0 -75 55 -75q25 0 46 24t33 59.5t18.5 70t6.5 60.5zM373 527q0 -38 -11 -82t-31.5 -86.5t-57.5 -70.5t-83 -28q-61 0 -94.5 38t-33.5 108q0 38 11 82t32 86.5t58 70.5t83 28q61 0 94 -38t33 -108z"/>
<glyph glyph-name="one.numr" horiz-adv-x="247" unicode="" d="M199 267h-77l65 297l-73 -61l-36 47l142 117h67z"/>
<glyph glyph-name="two.numr" horiz-adv-x="338" unicode="" d="M313 267h-269l13 61q145 105 193 149.5t48 83.5q0 24 -17.5 37t-44.5 13q-54 0 -94 -45l-36 50q55 57 135 57q57 0 96 -27.5t39 -77.5q0 -54 -48.5 -103t-166.5 -136h165z"/>
<glyph glyph-name="three.numr" horiz-adv-x="338" unicode="" d="M340 384q0 -48 -39 -86t-103 -38q-50 0 -89.5 19t-57.5 53l53 44q29 -54 91 -54q32 0 50.5 21.5t18.5 50.5q0 22 -19.5 34.5t-50.5 12.5q-24 0 -30 -1l13 62q9 -1 48 -1q33 0 52.5 17t19.5 45q0 22 -18.5 35t-47.5 13q-48 0 -90 -40l-33 46q54 56 129 56q62 0 100 -26 t38 -73q0 -39 -28 -70.5t-74 -36.5q30 -8 48.5 -30t18.5 -53z"/>
<glyph glyph-name="four.numr" horiz-adv-x="338" unicode="" d="M234 422l37 166l-136 -166h99zM342 361h-45l-20 -94h-77l21 94h-171l12 57l203 249h100l-55 -245h45z"/>
<glyph glyph-name="five.numr" horiz-adv-x="338" unicode="" d="M345 421q0 -66 -42.5 -113.5t-110.5 -47.5q-104 0 -143 71l55 43q25 -52 86 -52q34 0 55.5 27t21.5 62q0 26 -16.5 40.5t-43.5 14.5q-40 0 -72 -35l-51 18l48 218h246l-13 -62h-170l-24 -112q32 30 72 30q43 0 72.5 -27t29.5 -75z"/>
<glyph glyph-name="six.numr" horiz-adv-x="338" unicode="" d="M270 411q0 55 -60 55q-35 0 -69 -46q-3 -14 -3 -31q0 -29 16 -48t44 -19q31 0 51.5 28.5t20.5 60.5zM349 421q0 -63 -41 -112t-110 -49q-63 0 -98 36.5t-35 102.5q0 101 55.5 187.5t141.5 86.5q77 0 115 -50l-47 -49q-21 37 -70 37q-46 0 -74 -42.5t-36 -89.5v-5l-1 -2 q39 55 96 55q44 0 74 -27.5t30 -78.5z"/>
<glyph glyph-name="seven.numr" horiz-adv-x="313" unicode="" d="M369 614l-210 -347h-81l210 338h-187l14 62h266z"/>
<glyph glyph-name="eight.numr" horiz-adv-x="338" unicode="" d="M265 384q0 22 -16 38.5t-36 22.5q-34 -3 -58.5 -24.5t-24.5 -51.5q0 -22 18.5 -36t45.5 -14q30 0 50.5 18.5t20.5 46.5zM299 566q0 23 -16.5 35t-42.5 12q-28 0 -46 -17.5t-18 -43.5q0 -22 16.5 -36t32.5 -19q74 15 74 69zM340 377q0 -51 -38.5 -84t-102.5 -33t-106 26 t-42 75q0 44 32 77t79 41q-60 25 -60 81q0 53 40.5 83t95.5 30q56 0 98 -24.5t42 -72.5q0 -40 -27 -70.5t-76 -39.5q26 -11 45.5 -35t19.5 -54z"/>
<glyph glyph-name="nine.numr" horiz-adv-x="338" unicode="" d="M167 523q0 -27 16.5 -41t43.5 -14q37 0 69 46q3 14 3 31q0 29 -16 48t-44 19q-31 0 -51.5 -28.5t-20.5 -60.5zM88 513q0 63 41.5 112t109.5 49q64 0 99 -36.5t35 -102.5q0 -64 -23.5 -126t-69.5 -105t-104 -43q-77 0 -116 50l47 49q21 -37 71 -37q45 0 73.5 43t35.5 89 q1 3 1 7q-39 -55 -95 -55q-45 0 -75 27.5t-30 78.5z"/>
<glyph glyph-name="Abreve.smcp" horiz-adv-x="469" unicode="" d="M480 675q-72 -75 -165 -75q-94 0 -134 75l53 37q25 -53 91 -53q65 0 113 53zM295 197l-16 241l-124 -241h140zM241 550h121l51 -550h-109l-8 107h-182l-54 -107h-113z"/>
<glyph glyph-name="Amacron.smcp" horiz-adv-x="469" unicode="" d="M472 626h-308l13 59h308zM295 197l-16 241l-124 -241h140zM241 550h121l51 -550h-109l-8 107h-182l-54 -107h-113z"/>
<glyph glyph-name="Aogonek.smcp" horiz-adv-x="469" unicode="" d="M295 197l-16 241l-124 -241h140zM241 550h121l51 -550q-92 -49 -92 -110q0 -30 31 -30q27 0 42 33l38 -28q-35 -51 -84 -51q-35 0 -57 17.5t-22 50.5q0 66 68 118h-33l-8 107h-182l-54 -107h-113z"/>
<glyph glyph-name="AEacute.smcp" horiz-adv-x="671" unicode="" d="M297 197l54 241l-165 -241h111zM577 0h-323l24 107h-148l-72 -107h-113l388 550h365l-20 -90h-219l-30 -134h213l-20 -90h-213l-31 -146h219zM598 750l-167 -144h-70l142 144h95z"/>
<glyph glyph-name="Cacute.smcp" horiz-adv-x="479" unicode="" d="M522 750l-167 -144h-70l142 144h95zM243 -12q-95 0 -153 56.5t-58 157.5q0 87 33 168.5t99 136.5t149 55q71 0 118 -37.5t63 -101.5l-90 -27q-11 35 -36 55t-58 20q-71 0 -122 -84.5t-51 -179.5q0 -62 30.5 -95t82.5 -33q62 0 108 71l77 -43q-81 -119 -192 -119z"/>
<glyph glyph-name="Ccaron.smcp" horiz-adv-x="479" unicode="" d="M402 606h-92l-49 144h58l45 -97l86 97h62zM243 -12q-95 0 -153 56.5t-58 157.5q0 87 33 168.5t99 136.5t149 55q71 0 118 -37.5t63 -101.5l-90 -27q-11 35 -36 55t-58 20q-71 0 -122 -84.5t-51 -179.5q0 -62 30.5 -95t82.5 -33q62 0 108 71l77 -43q-81 -119 -192 -119z "/>
<glyph glyph-name="Ccircumflex.smcp" horiz-adv-x="479" unicode="" d="M480 606h-58l-46 97l-85 -97h-62l110 144h92zM243 -12q-95 0 -153 56.5t-58 157.5q0 87 33 168.5t99 136.5t149 55q71 0 118 -37.5t63 -101.5l-90 -27q-11 35 -36 55t-58 20q-71 0 -122 -84.5t-51 -179.5q0 -62 30.5 -95t82.5 -33q62 0 108 71l77 -43q-81 -119 -192 -119 z"/>
<glyph glyph-name="Cdotaccent.smcp" horiz-adv-x="479" unicode="" d="M427 684q0 -25 -19.5 -44t-44.5 -19q-22 0 -36.5 14.5t-14.5 36.5q0 25 19.5 44t44.5 19q22 0 36.5 -14.5t14.5 -36.5zM243 -12q-95 0 -153 56.5t-58 157.5q0 87 33 168.5t99 136.5t149 55q71 0 118 -37.5t63 -101.5l-90 -27q-11 35 -36 55t-58 20q-71 0 -122 -84.5 t-51 -179.5q0 -62 30.5 -95t82.5 -33q62 0 108 71l77 -43q-81 -119 -192 -119z"/>
<glyph glyph-name="Dcaron.smcp" horiz-adv-x="517" unicode="" d="M380 606h-92l-49 144h58l45 -97l86 97h62zM203 90h2q84 0 131.5 74.5t47.5 170.5q0 60 -33.5 92.5t-93.5 32.5h-55l-82 -370h83zM190 0h-193l121 550h149q99 0 161 -55t62 -155q0 -61 -16.5 -119t-50.5 -108.5t-94.5 -81.5t-138.5 -31z"/>
<glyph glyph-name="Dcroat.smcp" horiz-adv-x="534" unicode="" d="M222 90q84 0 131.5 74.5t47.5 170.5q0 60 -33.5 92.5t-93.5 32.5h-55l-33 -145h90l-16 -73h-90l-33 -152h85zM207 0h-193l53 242h-54l16 73h54l52 235h149q99 0 161 -55t62 -155q0 -61 -16.5 -119t-50.5 -108.5t-94.5 -81.5t-138.5 -31z"/>
<glyph glyph-name="Ebreve.smcp" horiz-adv-x="421" unicode="" d="M465 675q-72 -75 -165 -75q-94 0 -134 75l53 37q25 -53 91 -53q65 0 113 53zM327 0h-322l121 550h322l-19 -90h-219l-30 -134h213l-20 -90h-213l-32 -146h219z"/>
<glyph glyph-name="Ecaron.smcp" horiz-adv-x="421" unicode="" d="M348 606h-92l-49 144h58l45 -97l86 97h62zM327 0h-322l121 550h322l-19 -90h-219l-30 -134h213l-20 -90h-213l-32 -146h219z"/>
<glyph glyph-name="Edotaccent.smcp" horiz-adv-x="421" unicode="" d="M377 684q0 -25 -19.5 -44t-44.5 -19q-22 0 -36.5 14.5t-14.5 36.5q0 25 19.5 44t44.5 19q22 0 36.5 -14.5t14.5 -36.5zM327 0h-322l121 550h322l-19 -90h-219l-30 -134h213l-20 -90h-213l-32 -146h219z"/>
<glyph glyph-name="Emacron.smcp" horiz-adv-x="421" unicode="" d="M459 626h-308l13 59h308zM327 0h-322l121 550h322l-19 -90h-219l-30 -134h213l-20 -90h-213l-32 -146h219z"/>
<glyph glyph-name="Eng.smcp" horiz-adv-x="527" unicode="" d="M224 -196q-97 0 -138 57l52 70q25 -41 76 -41q72 0 90 82l6 28l-120 370l-82 -370h-103l121 550h108l119 -359l79 359h103l-129 -584q-18 -84 -62 -123t-120 -39z"/>
<glyph glyph-name="Eogonek.smcp" horiz-adv-x="421" unicode="" d="M308 -107l38 -28q-35 -51 -84 -51q-35 0 -57 17.5t-22 50.5q0 66 68 118h-246l121 550h322l-19 -90h-219l-30 -134h213l-20 -90h-213l-32 -146h219l-20 -90q-92 -49 -92 -110q0 -30 31 -30q27 0 42 33z"/>
<glyph glyph-name="Gbreve.smcp" horiz-adv-x="508" unicode="" d="M520 675q-72 -75 -165 -75q-94 0 -134 75l53 37q25 -53 91 -53q65 0 113 53zM248 -12q-98 0 -157.5 57t-59.5 156q0 90 33.5 171.5t99.5 135.5t150 54q67 0 115 -36.5t65 -95.5l-90 -30q-11 31 -36 51t-60 20q-49 0 -89 -41.5t-60.5 -102t-20.5 -122.5q0 -60 31.5 -93 t83.5 -33q49 0 81 26l24 106h-107l19 85h204l-54 -244q-76 -64 -172 -64z"/>
<glyph glyph-name="Gcircumflex.smcp" horiz-adv-x="508" unicode="" d="M480 606h-58l-46 97l-85 -97h-62l110 144h92zM248 -12q-98 0 -157.5 57t-59.5 156q0 90 33.5 171.5t99.5 135.5t150 54q67 0 115 -36.5t65 -95.5l-90 -30q-11 31 -36 51t-60 20q-49 0 -89 -41.5t-60.5 -102t-20.5 -122.5q0 -60 31.5 -93t83.5 -33q49 0 81 26l24 106h-107 l19 85h204l-54 -244q-76 -64 -172 -64z"/>
<glyph glyph-name="Gcommaaccent.smcp" horiz-adv-x="508" unicode="" d="M253 -121q0 -43 -31.5 -86t-77.5 -66l-30 32q60 30 77 74h-8q-17 0 -29 12t-12 32q0 24 18 41.5t41 17.5q22 0 37 -15t15 -42zM248 -12q-98 0 -157.5 57t-59.5 156q0 90 33.5 171.5t99.5 135.5t150 54q67 0 115 -36.5t65 -95.5l-90 -30q-11 31 -36 51t-60 20 q-49 0 -89 -41.5t-60.5 -102t-20.5 -122.5q0 -60 31.5 -93t83.5 -33q49 0 81 26l24 106h-107l19 85h204l-54 -244q-76 -64 -172 -64z"/>
<glyph glyph-name="Gdotaccent.smcp" horiz-adv-x="508" unicode="" d="M427 684q0 -25 -19.5 -44t-44.5 -19q-22 0 -36.5 14.5t-14.5 36.5q0 25 19.5 44t44.5 19q22 0 36.5 -14.5t14.5 -36.5zM248 -12q-98 0 -157.5 57t-59.5 156q0 90 33.5 171.5t99.5 135.5t150 54q67 0 115 -36.5t65 -95.5l-90 -30q-11 31 -36 51t-60 20q-49 0 -89 -41.5 t-60.5 -102t-20.5 -122.5q0 -60 31.5 -93t83.5 -33q49 0 81 26l24 106h-107l19 85h204l-54 -244q-76 -64 -172 -64z"/>
<glyph glyph-name="Hcircumflex.smcp" horiz-adv-x="531" unicode="" d="M470 606h-58l-46 97l-85 -97h-62l110 144h92zM418 0h-103l52 237h-206l-53 -237h-103l121 550h103l-49 -223h207l49 223h103z"/>
<glyph glyph-name="Hbar.smcp" horiz-adv-x="558" unicode="" d="M194 327h207l18 84h-207zM432 0h-103l52 237h-206l-53 -237h-103l90 411h-58l13 59h58l18 80h103l-18 -80h207l18 80h103l-18 -80h57l-12 -59h-58z"/>
<glyph glyph-name="Ibreve.smcp" horiz-adv-x="219" unicode="" d="M353 675q-72 -75 -165 -75q-94 0 -134 75l53 37q25 -53 91 -53q65 0 113 53zM107 0h-103l121 550h103z"/>
<glyph glyph-name="IJ.smcp" horiz-adv-x="585" unicode="" d="M323 -12q-96 0 -138 57l53 75q26 -41 76 -41q73 0 90 82l86 389h103l-88 -399q-18 -86 -62.5 -124.5t-119.5 -38.5zM108 0h-103l121 550h103z"/>
<glyph glyph-name="Imacron.smcp" horiz-adv-x="219" unicode="" d="M349 626h-308l13 59h308zM107 0h-103l121 550h103z"/>
<glyph glyph-name="Iogonek.smcp" horiz-adv-x="219" unicode="" d="M88 -107l38 -28q-35 -51 -84 -51q-35 0 -57 17.5t-22 50.5q0 66 68 118h-27l121 550h103l-121 -550q-92 -49 -92 -110q0 -30 31 -30q27 0 42 33z"/>
<glyph glyph-name="Itilde.smcp" horiz-adv-x="219" unicode="" d="M248 589q-22 0 -36.5 12.5t-20 28t-15.5 28t-24 12.5q-33 0 -49 -75h-55q29 134 110 134q23 0 37.5 -12.5t20 -28t15.5 -28t24 -12.5q32 0 49 75h55q-29 -134 -111 -134zM107 0h-103l121 550h103z"/>
<glyph glyph-name="Jcircumflex.smcp" horiz-adv-x="364" unicode="" d="M459 606h-58l-46 97l-85 -97h-62l110 144h92zM101 -12q-96 0 -138 57l53 75q26 -41 76 -41q73 0 90 82l86 389h103l-88 -399q-18 -86 -62.5 -124.5t-119.5 -38.5z"/>
<glyph glyph-name="Kcommaaccent.smcp" horiz-adv-x="476" unicode="" d="M219 -121q0 -43 -31.5 -86t-77.5 -66l-30 32q60 30 77 74h-8q-17 0 -29 12t-12 32q0 24 18 41.5t41 17.5q22 0 37 -15t15 -42zM415 0h-120l-98 221l-53 -58l-36 -163h-103l121 550h103l-54 -247l225 247h122l-247 -260z"/>
<glyph glyph-name="Lacute.smcp" horiz-adv-x="389" unicode="" d="M462 750l-167 -144h-70l142 144h95zM308 0h-303l121 550h103l-101 -460h200z"/>
<glyph glyph-name="Lcaron.smcp" horiz-adv-x="396" unicode="" d="M385 503q0 -43 -31.5 -86t-77.5 -66l-30 32q60 30 77 74h-8q-17 0 -29 12t-12 32q0 24 18 41.5t41 17.5q22 0 37 -15t15 -42zM308 0h-303l121 550h103l-101 -460h200z"/>
<glyph glyph-name="Lcommaaccent.smcp" horiz-adv-x="389" unicode="" d="M186 -121q0 -43 -31.5 -86t-77.5 -66l-30 32q60 30 77 74h-8q-17 0 -29 12t-12 32q0 24 18 41.5t41 17.5q22 0 37 -15t15 -42zM308 0h-303l121 550h103l-101 -460h200z"/>
<glyph glyph-name="Ldot.smcp" horiz-adv-x="436" unicode="" d="M338 232q-26 0 -43.5 18t-17.5 43q0 30 21.5 51.5t51.5 21.5q25 0 43 -18t18 -44q0 -30 -21.5 -51t-51.5 -21zM308 0h-303l121 550h103l-101 -460h200z"/>
<glyph glyph-name="Nacute.smcp" horiz-adv-x="527" unicode="" d="M511 750l-167 -144h-70l142 144h95zM414 0h-103l-121 370l-82 -370h-103l121 550h108l119 -359l79 359h103z"/>
<glyph glyph-name="Ncaron.smcp" horiz-adv-x="527" unicode="" d="M390 606h-92l-49 144h58l45 -97l86 97h62zM414 0h-103l-121 370l-82 -370h-103l121 550h108l119 -359l79 359h103z"/>
<glyph glyph-name="Ncommaaccent.smcp" horiz-adv-x="527" unicode="" d="M241 -121q0 -43 -31.5 -86t-77.5 -66l-30 32q60 30 77 74h-8q-17 0 -29 12t-12 32q0 24 18 41.5t41 17.5q22 0 37 -15t15 -42zM414 0h-103l-121 370l-82 -370h-103l121 550h108l119 -359l79 359h103z"/>
<glyph glyph-name="Obreve.smcp" horiz-adv-x="540" unicode="" d="M515 675q-72 -75 -165 -75q-94 0 -134 75l53 37q25 -53 91 -53q65 0 113 53zM246 79q50 0 90.5 44.5t59.5 104t19 116.5q0 58 -28.5 92.5t-80.5 34.5q-50 0 -90.5 -44.5t-59.5 -104t-19 -116.5q0 -58 28.5 -92.5t80.5 -34.5zM242 -12q-96 0 -153 58t-57 157 q0 61 18.5 123t52 115.5t87.5 87t119 33.5q97 0 154 -58t57 -157q0 -83 -30.5 -163t-96 -138t-151.5 -58z"/>
<glyph glyph-name="Ohungarumlaut.smcp" horiz-adv-x="540" unicode="" d="M564 750l-129 -144h-58l104 144h83zM430 750l-130 -144h-58l105 144h83zM246 79q50 0 90.5 44.5t59.5 104t19 116.5q0 58 -28.5 92.5t-80.5 34.5q-50 0 -90.5 -44.5t-59.5 -104t-19 -116.5q0 -58 28.5 -92.5t80.5 -34.5zM242 -12q-96 0 -153 58t-57 157q0 61 18.5 123 t52 115.5t87.5 87t119 33.5q97 0 154 -58t57 -157q0 -83 -30.5 -163t-96 -138t-151.5 -58z"/>
<glyph glyph-name="Omacron.smcp" horiz-adv-x="540" unicode="" d="M509 629h-308l13 59h308zM246 79q50 0 90.5 44.5t59.5 104t19 116.5q0 58 -28.5 92.5t-80.5 34.5q-50 0 -90.5 -44.5t-59.5 -104t-19 -116.5q0 -58 28.5 -92.5t80.5 -34.5zM242 -12q-96 0 -153 58t-57 157q0 61 18.5 123t52 115.5t87.5 87t119 33.5q97 0 154 -58t57 -157 q0 -83 -30.5 -163t-96 -138t-151.5 -58z"/>
<glyph glyph-name="Oslashacute.smcp" horiz-adv-x="540" unicode="" d="M520 750l-167 -144h-70l142 144h95zM137 206q0 -28 5 -46l241 280q-29 31 -77 31q-50 0 -90.5 -44.5t-59.5 -104t-19 -116.5zM246 79q50 0 90.5 44.5t59.5 104t19 116.5q0 22 -5 45l-242 -279q29 -31 78 -31zM242 -12q-84 0 -140 45l-28 -33h-70l63 73q-35 52 -35 130 q0 61 18.5 123t52 115.5t87.5 87t119 33.5q86 0 140 -46l29 34h70l-63 -73q35 -56 35 -130q0 -83 -30.5 -163t-96 -138t-151.5 -58z"/>
<glyph glyph-name="Racute.smcp" horiz-adv-x="472" unicode="" d="M480 750l-167 -144h-70l142 144h95zM258 292h9q42 0 66.5 32t24.5 72q0 30 -18.5 47t-48.5 17h-81l-37 -168h85zM384 0h-114l-50 202h-67l-45 -202h-103l121 550h176q76 0 120 -39.5t44 -104.5q0 -70 -40 -125.5t-106 -67.5z"/>
<glyph glyph-name="Rcaron.smcp" horiz-adv-x="472" unicode="" d="M359 606h-92l-49 144h58l45 -97l86 97h62zM258 292h9q42 0 66.5 32t24.5 72q0 30 -18.5 47t-48.5 17h-81l-37 -168h85zM384 0h-114l-50 202h-67l-45 -202h-103l121 550h176q76 0 120 -39.5t44 -104.5q0 -70 -40 -125.5t-106 -67.5z"/>
<glyph glyph-name="Rcommaaccent.smcp" horiz-adv-x="472" unicode="" d="M210 -121q0 -43 -31.5 -86t-77.5 -66l-30 32q60 30 77 74h-8q-17 0 -29 12t-12 32q0 24 18 41.5t41 17.5q22 0 37 -15t15 -42zM258 292h9q42 0 66.5 32t24.5 72q0 30 -18.5 47t-48.5 17h-81l-37 -168h85zM384 0h-114l-50 202h-67l-45 -202h-103l121 550h176 q76 0 120 -39.5t44 -104.5q0 -70 -40 -125.5t-106 -67.5z"/>
<glyph glyph-name="Sacute.smcp" horiz-adv-x="425" unicode="" d="M464 750l-167 -144h-70l142 144h95zM187 -12q-136 0 -201 81l62 76q47 -66 139 -66q42 0 64 23t22 57q0 23 -21 42.5t-50.5 35t-59.5 34.5t-51 49.5t-21 70.5q0 70 55.5 120.5t136.5 50.5q112 0 177 -73l-61 -74q-19 26 -51.5 41t-66.5 15t-57.5 -21t-23.5 -51 q0 -22 21 -40t50.5 -33.5t59.5 -35t51 -52.5t21 -76q0 -69 -53 -121.5t-142 -52.5z"/>
<glyph glyph-name="Scedilla.smcp" horiz-adv-x="425" unicode="" d="M127 -193q-65 0 -101 39l30 41q29 -34 72 -34q23 0 36.5 12t13.5 30q0 26 -28 26q-16 0 -29 -15l-34 22l38 65q-91 16 -139 76l62 76q47 -66 139 -66q42 0 64 23t22 57q0 23 -21 42.5t-50.5 35t-59.5 34.5t-51 49.5t-21 70.5q0 70 55.5 120.5t136.5 50.5q112 0 177 -73 l-61 -74q-19 26 -51.5 41t-66.5 15t-57.5 -21t-23.5 -51q0 -22 21 -40t50.5 -33.5t59.5 -35t51 -52.5t21 -76q0 -69 -53 -121.5t-142 -52.5h-13l-25 -41q13 10 28 10q24 0 39.5 -16t15.5 -43q0 -40 -30 -65.5t-75 -25.5z"/>
<glyph glyph-name="Scircumflex.smcp" horiz-adv-x="425" unicode="" d="M422 606h-58l-46 97l-85 -97h-62l110 144h92zM187 -12q-136 0 -201 81l62 76q47 -66 139 -66q42 0 64 23t22 57q0 23 -21 42.5t-50.5 35t-59.5 34.5t-51 49.5t-21 70.5q0 70 55.5 120.5t136.5 50.5q112 0 177 -73l-61 -74q-19 26 -51.5 41t-66.5 15t-57.5 -21t-23.5 -51 q0 -22 21 -40t50.5 -33.5t59.5 -35t51 -52.5t21 -76q0 -69 -53 -121.5t-142 -52.5z"/>
<glyph glyph-name="Scommaaccent.smcp" horiz-adv-x="425" unicode="" d="M191 -121q0 -43 -31.5 -86t-77.5 -66l-30 32q60 30 77 74h-8q-17 0 -29 12t-12 32q0 24 18 41.5t41 17.5q22 0 37 -15t15 -42zM187 -12q-136 0 -201 81l62 76q47 -66 139 -66q42 0 64 23t22 57q0 23 -21 42.5t-50.5 35t-59.5 34.5t-51 49.5t-21 70.5q0 70 55.5 120.5 t136.5 50.5q112 0 177 -73l-61 -74q-19 26 -51.5 41t-66.5 15t-57.5 -21t-23.5 -51q0 -22 21 -40t50.5 -33.5t59.5 -35t51 -52.5t21 -76q0 -69 -53 -121.5t-142 -52.5z"/>
<glyph glyph-name="Tbar.smcp" horiz-adv-x="389" unicode="" d="M192 0h-103l49 225h-81l14 59h80l39 176h-124l20 90h350l-20 -90h-123l-39 -176h80l-14 -59h-79z"/>
<glyph glyph-name="Tcaron.smcp" horiz-adv-x="389" unicode="" d="M322 606h-92l-49 144h58l45 -97l86 97h62zM192 0h-103l101 460h-124l20 90h350l-20 -90h-123z"/>
<glyph glyph-name="Tcommaaccent.smcp" horiz-adv-x="389" unicode="" d="M170 -121q0 -43 -31.5 -86t-77.5 -66l-30 32q60 30 77 74h-8q-17 0 -29 12t-12 32q0 24 18 41.5t41 17.5q22 0 37 -15t15 -42zM192 0h-103l101 460h-124l20 90h350l-20 -90h-123z"/>
<glyph glyph-name="Ubreve.smcp" horiz-adv-x="526" unicode="" d="M508 675q-72 -75 -165 -75q-94 0 -134 75l53 37q25 -53 91 -53q65 0 113 53zM240 -12q-95 0 -147 41.5t-52 111.5q0 23 6 51l79 358h104l-79 -357q-4 -20 -4 -31q0 -41 25 -62t69 -21q85 0 111 115l78 356h104l-79 -357q-23 -102 -73.5 -153.5t-141.5 -51.5z"/>
<glyph glyph-name="Uhungarumlaut.smcp" horiz-adv-x="526" unicode="" d="M556 750l-129 -144h-58l104 144h83zM422 750l-130 -144h-58l105 144h83zM240 -12q-95 0 -147 41.5t-52 111.5q0 23 6 51l79 358h104l-79 -357q-4 -20 -4 -31q0 -41 25 -62t69 -21q85 0 111 115l78 356h104l-79 -357q-23 -102 -73.5 -153.5t-141.5 -51.5z"/>
<glyph glyph-name="Umacron.smcp" horiz-adv-x="526" unicode="" d="M503 626h-308l13 59h308zM240 -12q-95 0 -147 41.5t-52 111.5q0 23 6 51l79 358h104l-79 -357q-4 -20 -4 -31q0 -41 25 -62t69 -21q85 0 111 115l78 356h104l-79 -357q-23 -102 -73.5 -153.5t-141.5 -51.5z"/>
<glyph glyph-name="Uogonek.smcp" horiz-adv-x="526" unicode="" d="M299 -107l38 -28q-35 -51 -84 -51q-35 0 -57 17.5t-22 50.5q0 59 53 106q-89 3 -137.5 44t-48.5 109q0 23 6 51l79 358h104l-79 -357q-4 -20 -4 -31q0 -41 25 -62t69 -21q85 0 111 115l78 356h104l-79 -357q-34 -157 -137 -193q-92 -49 -92 -110q0 -30 31 -30q27 0 42 33 z"/>
<glyph glyph-name="Uring.smcp" horiz-adv-x="526" unicode="" d="M359 648q21 0 37 15.5t16 36.5q0 19 -11.5 31t-30.5 12q-21 0 -37 -15.5t-16 -36.5q0 -19 11.5 -31t30.5 -12zM354 600q-37 0 -60.5 24t-23.5 62q0 42 31 73t73 31q38 0 61.5 -24t23.5 -61q0 -42 -31.5 -73.5t-73.5 -31.5zM240 -12q-95 0 -147 41.5t-52 111.5q0 23 6 51 l79 358h104l-79 -357q-4 -20 -4 -31q0 -41 25 -62t69 -21q85 0 111 115l78 356h104l-79 -357q-23 -102 -73.5 -153.5t-141.5 -51.5z"/>
<glyph glyph-name="Utilde.smcp" horiz-adv-x="526" unicode="" d="M403 604q-22 0 -36.5 12.5t-20 28t-15.5 28t-24 12.5q-33 0 -49 -75h-55q29 134 110 134q23 0 37.5 -12.5t20 -28t15.5 -28t24 -12.5q32 0 49 75h55q-29 -134 -111 -134zM240 -12q-95 0 -147 41.5t-52 111.5q0 23 6 51l79 358h104l-79 -357q-4 -20 -4 -31q0 -41 25 -62 t69 -21q85 0 111 115l78 356h104l-79 -357q-23 -102 -73.5 -153.5t-141.5 -51.5z"/>
<glyph glyph-name="Wcircumflex.smcp" horiz-adv-x="651" unicode="" d="M459 0h-107l1 372l-163 -372h-106l-12 550h110l-4 -385l172 385h83l2 -386l167 386h110zM531 606h-58l-46 97l-85 -97h-62l110 144h92z"/>
<glyph glyph-name="Ycircumflex.smcp" horiz-adv-x="459" unicode="" d="M437 606h-58l-46 97l-85 -97h-62l110 144h92zM228 0h-103l50 230l-109 320h112l69 -225l166 225h114l-249 -320z"/>
<glyph glyph-name="Zacute.smcp" horiz-adv-x="416" unicode="" d="M454 750l-167 -144h-70l142 144h95zM331 0h-354l17 78l301 381h-216l19 91h348l-17 -76l-302 -383h224z"/>
<glyph glyph-name="Zdotaccent.smcp" horiz-adv-x="416" unicode="" d="M368 684q0 -25 -19.5 -44t-44.5 -19q-22 0 -36.5 14.5t-14.5 36.5q0 25 19.5 44t44.5 19q22 0 36.5 -14.5t14.5 -36.5zM331 0h-354l17 78l301 381h-216l19 91h348l-17 -76l-302 -383h224z"/>
<glyph glyph-name="Idotaccent.smcp" horiz-adv-x="204" unicode="" d="M256 684q0 -25 -19.5 -44t-44.5 -19q-22 0 -36.5 14.5t-14.5 36.5q0 25 19.5 44t44.5 19q22 0 36.5 -14.5t14.5 -36.5zM100 0h-103l121 550h103z"/>
<glyph glyph-name="parenleft.case" horiz-adv-x="257" unicode="" d="M169 -76l-74 -33q-52 115 -52 262q0 339 246 622l58 -45q-94 -137 -147.5 -297.5t-53.5 -321.5q0 -88 23 -187z"/>
<glyph glyph-name="parenright.case" horiz-adv-x="257" unicode="" d="M127 742l74 33q52 -115 52 -262q0 -339 -246 -622l-58 45q94 137 147.5 297.5t53.5 321.5q0 88 -23 187z"/>
<glyph glyph-name="bracketleft.case" horiz-adv-x="229" unicode="" d="M135 -100h-172l192 868h173l-16 -69h-98l-162 -730h98z"/>
<glyph glyph-name="bracketright.case" horiz-adv-x="229" unicode="" d="M113 -100h-172l16 69h98l162 730h-99l15 69h173z"/>
<glyph glyph-name="braceleft.case" horiz-adv-x="244" unicode="" d="M150 -100h-34q-44 0 -77 29t-34 74q0 12 4 28l45 205q0 2 1 5.5t1.5 6.5t0.5 6q0 22 -10.5 36t-29.5 14l14 60q53 0 67 68l46 206q30 130 154 130h45l-15 -69h-45q-53 0 -65 -61l-50 -223q-14 -70 -65 -89q29 -14 29 -55q0 -18 -4 -34l-45 -204q-2 -12 -2 -19 q0 -20 12.5 -32.5t30.5 -12.5h41z"/>
<glyph glyph-name="braceright.case" horiz-adv-x="244" unicode="" d="M133 768h34q44 0 77 -29t33 -75q0 -16 -3 -27l-46 -205q-2 -12 -2 -18q0 -22 10.5 -36t28.5 -14l-13 -60q-53 0 -67 -68l-46 -206q-30 -130 -154 -130h-45l15 69h45q51 0 65 61l50 223q14 70 64 89q-29 15 -29 55q0 18 4 34l46 204q2 12 2 19q0 20 -12.5 32.5t-30.5 12.5 h-42z"/>
<glyph glyph-name="exclamdown.case" horiz-adv-x="242" unicode="" d="M208 678q25 0 43 -18t18 -44q0 -30 -22 -51t-52 -21q-25 0 -43 18t-18 43q0 30 22 51.5t52 21.5zM127 466h85l-85 -466h-121z"/>
<glyph glyph-name="questiondown.case" horiz-adv-x="390" unicode="" d="M283 673q25 0 42.5 -17.5t17.5 -43.5q0 -30 -21.5 -51.5t-51.5 -21.5q-25 0 -43 18t-18 44q0 30 22 51t52 21zM193 438l90 30q15 -27 15 -65q0 -40 -19 -71.5t-46.5 -52.5t-54.5 -40t-46 -42.5t-19 -51.5t20.5 -46t57.5 -18q56 0 99 40l39 -74q-70 -62 -162 -62 q-74 0 -122.5 38t-48.5 96q0 45 21.5 81t52 59.5t60.5 44.5t51.5 45.5t21.5 52.5q0 20 -10 36z"/>
<glyph glyph-name="guillemotleft.case" horiz-adv-x="423" unicode="" d="M371 162h-83l-85 180l165 177h89l-168 -181zM220 162h-84l-85 180l165 177h90l-169 -181z"/>
<glyph glyph-name="guillemotright.case" horiz-adv-x="423" unicode="" d="M249 519h83l85 -180l-165 -177h-89l168 182zM97 519h84l85 -180l-165 -177h-90l169 182z"/>
<glyph glyph-name="guilsinglleft.case" horiz-adv-x="272" unicode="" d="M220 162h-84l-85 180l165 177h90l-169 -181z"/>
<glyph glyph-name="guilsinglright.case" horiz-adv-x="272" unicode="" d="M97 519h84l85 -180l-165 -177h-90l169 182z"/>
<glyph glyph-name="hyphen.case" horiz-adv-x="270" unicode="" d="M252 298h-210l18 86h210z"/>
<glyph glyph-name="endash.case" horiz-adv-x="527" unicode="" d="M508 298h-466l18 86h467z"/>
<glyph glyph-name="emdash.case" horiz-adv-x="737" unicode="" d="M718 298h-676l18 86h677z"/>
<glyph glyph-name="periodcentered.case" horiz-adv-x="242" unicode="" d="M136 276q-26 0 -43.5 18t-17.5 43q0 30 21.5 51.5t51.5 21.5q25 0 43 -18t18 -44q0 -30 -21.5 -51t-51.5 -21z"/>
<glyph glyph-name="bullet.case" horiz-adv-x="358" unicode="" d="M315 352q0 -50 -37.5 -86.5t-88.5 -36.5q-43 0 -72.5 29.5t-29.5 72.5q0 50 37.5 86.5t88.5 36.5q43 0 72.5 -29t29.5 -73z"/>
<glyph glyph-name="cent.case" horiz-adv-x="417" unicode="" d="M149 282q0 -64 39 -95l66 300q-47 -22 -76 -82t-29 -123zM238 79h-1l-19 -88h-74l22 98q-56 19 -87.5 67t-31.5 120q0 112 64.5 205.5t164.5 103.5l16 71h74l-17 -76q66 -15 100 -65l-62 -65q-18 32 -57 44l-73 -327q48 1 83 41l37 -72q-57 -57 -139 -57z"/>
<glyph glyph-name="commaaccent" horiz-adv-x="243" unicode="" d="M96 -121q0 -43 -31.5 -86t-77.5 -66l-30 32q60 30 77 74h-8q-17 0 -29 12t-12 32q0 24 18 41.5t41 17.5q22 0 37 -15t15 -42z"/>
<glyph glyph-name="one.tnum" d="M323 0h-111l116 524l-125 -107l-50 67l220 183h97z" unicode=""/>
<glyph glyph-name="rupiah" horiz-adv-x="987" unicode="" d="M719 76q41 0 74 39t48.5 90.5t15.5 98.5q0 49 -23 76t-63 27q-58 0 -101 -67l-44 -198q11 -29 36 -47.5t57 -18.5zM737 -12q-92 0 -127 79l-56 -251h-99l148 667h99l-14 -62q54 74 128 74q67 0 105.5 -45.5t38.5 -129.5q0 -73 -24.5 -147t-77.5 -129.5t-121 -55.5z M301 350q57 0 89.5 39.5t32.5 95.5q0 39 -22.5 62t-56.5 23h-98l-49 -220h104zM441 0h-119l-58 252h-88l-56 -252h-110l147 667h208q73 0 123.5 -48t50.5 -124q0 -87 -48 -151t-120 -78z"/>
<glyph glyph-name="centinferior" horiz-adv-x="269" unicode="" d="M46 27q0 -38 22 -57l39 174q-28 -13 -44.5 -46.5t-16.5 -70.5zM42 -151l13 60q-80 24 -80 117q0 68 41.5 121t103.5 58l10 43h51l-11 -47q44 -12 64 -44l-45 -39q-11 21 -31 28l-42 -188q25 3 48 27l29 -45q-35 -37 -89 -38l-11 -53h-51z"/>
<glyph glyph-name="centsuperior" horiz-adv-x="269" unicode="" d="M171 594q0 -40 22 -57l39 174q-28 -13 -44.5 -46.5t-16.5 -70.5zM167 416l13 59q-38 11 -59 41.5t-21 76.5q0 68 41.5 121t103.5 58l10 43h51l-11 -47q44 -12 64 -44l-45 -39q-11 21 -31 28l-42 -189q24 3 48 28l29 -45q-33 -37 -89 -38l-11 -53h-51z"/>
<glyph glyph-name="commainferior" horiz-adv-x="148" unicode="" d="M40 -104q0 -30 -23.5 -65.5t-59.5 -55.5l-23 28q16 8 32.5 22.5t21.5 27.5q-3 -1 -5 -1q-13 0 -23.5 10.5t-10.5 27.5q0 21 15 35t36 14q16 0 28 -12t12 -31z"/>
<glyph glyph-name="commasuperior" horiz-adv-x="148" unicode="" d="M165 463q0 -30 -23.5 -65.5t-59.5 -55.5l-23 28q16 8 32.5 22.5t21.5 27.5q-3 -1 -5 -1q-13 0 -23.5 10.5t-10.5 27.5q0 21 15 35t36 14q16 0 28 -12t12 -31z"/>
<glyph glyph-name="dollarinferior" horiz-adv-x="316" unicode="" d="M81 146q0 -19 26 -38l20 89q-20 -5 -33 -18.5t-13 -32.5zM160 -33q0 21 -24 38l-21 -94q21 5 33 20.5t12 35.5zM38 -206l12 57q-72 12 -104 58l47 50q26 -37 71 -47l26 119q-28 14 -44 24t-31 31.5t-15 48.5q0 50 39.5 87t101.5 38l12 55h52l-14 -61q56 -14 85 -49 l-46 -48q-19 26 -52 37l-25 -111q40 -21 63.5 -44.5t23.5 -61.5q0 -53 -36.5 -90.5t-102.5 -39.5l-11 -53h-52z"/>
<glyph glyph-name="dollarsuperior" horiz-adv-x="316" unicode="" d="M206 713q0 -19 26 -38l20 89q-20 -5 -33 -18.5t-13 -32.5zM285 534q0 19 -24 38l-21 -95q21 5 33 20.5t12 36.5zM163 361l12 56q-71 12 -104 59l47 50q25 -38 71 -48l26 120q-28 14 -44 24t-31 31.5t-15 48.5q0 50 39.5 87t101.5 38l12 55h52l-14 -61q56 -14 85 -49 l-46 -48q-19 26 -52 37l-25 -111q40 -21 63.5 -44.5t23.5 -61.5q0 -53 -36.5 -90.5t-102.5 -39.5l-11 -53h-52z"/>
<glyph glyph-name="hypheninferior" horiz-adv-x="168" unicode="" d="M101 24h-132l13 58h132z"/>
<glyph glyph-name="hyphensuperior" horiz-adv-x="168" unicode="" d="M226 592h-132l13 58h132z"/>
<glyph glyph-name="periodinferior" horiz-adv-x="150" unicode="" d="M42 -101q0 -20 -15.5 -35t-35.5 -15q-17 0 -28.5 11.5t-11.5 29.5q0 19 15.5 34t35.5 15q17 0 28.5 -11.5t11.5 -28.5z"/>
<glyph glyph-name="periodsuperior" horiz-adv-x="150" unicode="" d="M167 466q0 -20 -15.5 -35t-35.5 -15q-17 0 -28.5 11.5t-11.5 29.5q0 19 15.5 34t35.5 15q17 0 28.5 -11.5t11.5 -28.5z"/>
<glyph glyph-name="asuperior" horiz-adv-x="338" unicode="" d="M325 640h74l-70 -314h-74l9 41q-37 -49 -87 -49q-44 0 -72.5 31t-28.5 90q0 79 43.5 144t108.5 65q61 0 88 -49zM245 589q-38 0 -65 -45.5t-27 -97.5q0 -33 15 -51t42 -18q36 0 66 43l29 131q-15 38 -60 38z"/>
<glyph glyph-name="bsuperior" horiz-adv-x="359" unicode="" d="M139 326h-73l96 434h74l-36 -161q37 49 87 49q44 0 72.5 -31t28.5 -90q0 -79 -43.5 -144t-107.5 -65q-62 0 -89 49zM219 377q39 0 66 46t27 97q0 33 -15.5 51t-41.5 18q-37 0 -67 -43l-29 -131q7 -17 23.5 -27.5t36.5 -10.5z"/>
<glyph glyph-name="dsuperior" horiz-adv-x="359" unicode="" d="M352 760h73l-96 -434h-74l9 41q-37 -49 -87 -49q-44 0 -72.5 31t-28.5 90q0 79 43.5 144t108.5 65q61 0 88 -49zM245 589q-38 0 -65 -45.5t-27 -97.5q0 -33 15 -51t42 -18q36 0 66 43l29 131q-15 38 -60 38z"/>
<glyph glyph-name="esuperior" horiz-adv-x="344" unicode="" d="M301 510h2q2 10 2 18q0 31 -15.5 49t-44.5 18q-33 0 -55 -26t-29 -59h140zM218 318q-63 0 -101.5 34.5t-38.5 97.5q0 76 48.5 137t121.5 61q55 0 89 -35t34 -93q0 -35 -8 -62h-212q0 -2 -0.5 -8t-0.5 -9q0 -28 21 -48t56 -20q40 0 75 29l23 -44q-46 -40 -107 -40z"/>
<glyph glyph-name="isuperior" horiz-adv-x="162" unicode="" d="M136 326h-74l69 314h74zM180 678q-16 0 -27.5 11.5t-11.5 27.5q0 21 16 36t37 15q16 0 27.5 -11.5t11.5 -27.5q0 -20 -16 -35.5t-37 -15.5z"/>
<glyph glyph-name="lsuperior" horiz-adv-x="169" unicode="" d="M139 326h-73l96 434h73z"/>
<glyph glyph-name="msuperior" horiz-adv-x="516" unicode="" d="M486 326h-73l47 211q2 12 2 16q0 33 -37 33q-33 0 -65 -45l-47 -215h-74l47 211q2 12 2 16q0 33 -37 33q-32 0 -64 -45l-48 -215h-73l69 314h73l-8 -41q14 19 38.5 34t52.5 15q32 0 52.5 -15.5t24.5 -39.5q41 55 96 55q33 0 54.5 -16.5t21.5 -47.5q0 -15 -2 -23z"/>
<glyph glyph-name="osuperior" horiz-adv-x="354" unicode="" d="M213 378q42 0 67 47.5t25 93.5q0 32 -16 50t-44 18q-41 0 -66 -47t-25 -94q0 -32 15.5 -50t43.5 -18zM211 318q-62 0 -97 36t-35 95q0 76 48.5 137.5t120.5 61.5q62 0 97 -36t35 -95q0 -76 -48.5 -137.5t-120.5 -61.5z"/>
<glyph glyph-name="rsuperior" horiz-adv-x="225" unicode="" d="M139 326h-73l69 314h73l-9 -44q47 52 102 52l-16 -70q-5 2 -19 2q-44 0 -80 -43z"/>
<glyph glyph-name="ssuperior" horiz-adv-x="288" unicode="" d="M176 318q-83 0 -127 56l41 43q31 -46 86 -46q24 0 38.5 12.5t14.5 30.5t-21 32t-46.5 23t-46.5 30t-21 51q0 40 32.5 69t85.5 29q77 0 117 -49l-38 -41q-31 38 -78 38q-22 0 -35 -11.5t-13 -28.5q0 -16 21.5 -28.5t46.5 -21.5t46.5 -30.5t21.5 -53.5q0 -42 -34.5 -73 t-90.5 -31z"/>
<glyph glyph-name="tsuperior" horiz-adv-x="200" unicode="" d="M164 318q-78 0 -78 58q0 14 3 25l41 186h-43l11 53h43l19 86h74l-19 -86h54l-11 -53h-55l-39 -177q-2 -10 -2 -14q0 -20 23 -20q16 0 24 8l5 -50q-21 -16 -50 -16z"/>
<glyph glyph-name="Lslash.smcp" horiz-adv-x="404" unicode="" d="M-4 165l20 92l68 35l57 258h103l-44 -199l87 45l-21 -93l-86 -44l-37 -169h200l-20 -90h-303l44 199z"/>
<glyph glyph-name="OE.smcp" horiz-adv-x="748" unicode="" d="M371 178l42 190q-8 51 -37 77t-70 26q-48 0 -88.5 -46.5t-60.5 -106.5t-20 -112q0 -59 29.5 -93t79.5 -34q79 0 125 99zM654 0h-322l12 57q-47 -69 -131 -69q-83 0 -132 58.5t-49 151.5q0 81 31 162.5t95.5 141.5t145.5 60q45 0 81.5 -21.5t51.5 -63.5l16 73h322l-20 -90 h-219l-30 -134h214l-20 -90h-214l-31 -146h219z"/>
<glyph glyph-name="Scaron.smcp" horiz-adv-x="425" unicode="" d="M344 606h-92l-49 144h58l45 -97l86 97h62zM187 -12q-136 0 -201 81l62 76q47 -66 139 -66q42 0 64 23t22 57q0 23 -21 42.5t-50.5 35t-59.5 34.5t-51 49.5t-21 70.5q0 70 55.5 120.5t136.5 50.5q112 0 177 -73l-61 -74q-19 26 -51.5 41t-66.5 15t-57.5 -21t-23.5 -51 q0 -22 21 -40t50.5 -33.5t59.5 -35t51 -52.5t21 -76q0 -69 -53 -121.5t-142 -52.5z"/>
<glyph glyph-name="Zcaron.smcp" horiz-adv-x="416" unicode="" d="M333 606h-92l-49 144h58l45 -97l86 97h62zM331 0h-354l17 78l301 381h-216l19 91h348l-17 -76l-302 -383h224z"/>
<glyph glyph-name="exclam.smcp" horiz-adv-x="193" unicode="" d="M49 -11q-25 0 -43 18t-18 44q0 30 21.5 51t51.5 21q26 0 43.5 -17.5t17.5 -43.5q0 -30 -21.5 -51.5t-51.5 -21.5zM219 550l-96 -366h-79l64 366h111z"/>
<glyph glyph-name="dollar.onum" horiz-adv-x="425" unicode="" d="M179 399q0 -23 24 -44l25 110q-22 -8 -35.5 -26t-13.5 -40zM273 159q0 27 -28 48l-27 -124q27 8 41 28.5t14 47.5zM108 -74l15 68q-91 16 -137 75l62 76q33 -47 95 -61l36 164q-33 19 -53 34t-38 44t-18 65q0 67 51.5 116.5t127.5 53.5l15 67h75l-17 -73q72 -17 117 -66 l-61 -74q-27 36 -76 49l-33 -149q52 -29 82.5 -63t30.5 -90q0 -67 -50 -118.5t-135 -55.5l-14 -62h-75z"/>
<glyph glyph-name="ampersand.smcp" horiz-adv-x="468" unicode="" d="M213 397q0 -24 7 -46q46 22 71 45.5t25 57.5q0 19 -10.5 30.5t-27.5 11.5q-27 0 -46 -29t-19 -70zM163 59q36 0 77 33q-31 57 -42 82q-19 38 -34 74q-72 -46 -72 -116q0 -32 19.5 -52.5t51.5 -20.5zM396 0h-103q-10 16 -20 34q-64 -45 -126 -45q-67 0 -108.5 35.5 t-41.5 97.5q0 72 38.5 116t105.5 76q-13 43 -13 83q0 68 45 116.5t106 48.5q49 0 83.5 -28.5t34.5 -74.5q0 -34 -12 -60.5t-38 -47t-47 -32.5t-58 -30q13 -30 28 -58q20 -43 34 -70q36 47 71 116l65 -37q-45 -83 -100 -146q34 -60 56 -94z"/>
<glyph glyph-name="zero.onum" horiz-adv-x="528" unicode="" d="M394 347q0 117 -95 117q-37 0 -68 -30t-48 -74t-26.5 -85.5t-9.5 -71.5q0 -117 95 -117q37 0 67.5 30t48 74t27 85.5t9.5 71.5zM506 348q0 -53 -17 -113t-48.5 -116.5t-85 -93.5t-117.5 -37q-96 0 -150 56t-54 158q0 53 17 113t49 116.5t85.5 93.5t117.5 37 q96 0 149.5 -56t53.5 -158z"/>
<glyph glyph-name="one.onum" horiz-adv-x="352" unicode="" d="M234 0h-111l90 407l-125 -107l-50 67l220 183h97z"/>
<glyph glyph-name="two.onum" horiz-adv-x="497" unicode="" d="M383 0h-387l20 93q348 170 348 293q0 36 -26 57t-67 21q-81 0 -143 -69l-55 71q87 96 210 96q88 0 143 -40.5t55 -111.5q0 -83 -75 -159t-210 -154h208z"/>
<glyph glyph-name="three.onum" horiz-adv-x="495" unicode="" d="M192 -129q-78 0 -142 36t-88 100l84 60q19 -46 58.5 -72t87.5 -26q54 0 85.5 38t31.5 89q0 37 -27 58t-76 21q-33 0 -53 -2l22 100q9 -1 71 -1q53 0 86 31.5t33 80.5q0 36 -29 57t-78 21q-76 0 -131 -60l-52 70q81 88 197 88q93 0 150 -41.5t57 -115.5q0 -69 -49 -120.5 t-114 -60.5q48 -14 75 -50t27 -86q0 -89 -65 -152t-161 -63z"/>
<glyph glyph-name="four.onum" horiz-adv-x="493" unicode="" d="M267 139l65 295l-234 -295h169zM427 42h-71l-35 -159h-110l35 159h-269l21 94l329 414h141l-91 -411h71z"/>
<glyph glyph-name="five.onum" horiz-adv-x="514" unicode="" d="M206 -129q-159 0 -219 132l84 61q37 -95 137 -95q53 0 90 47t37 108q0 42 -27 66.5t-73 24.5q-57 0 -109 -47l-73 31l77 351h376l-22 -97h-265l-42 -192q47 45 116 45t113.5 -45t44.5 -123q0 -108 -69 -187.5t-176 -79.5z"/>
<glyph glyph-name="six.onum" horiz-adv-x="513" unicode="" d="M242 86q52 0 87 52t35 108q0 39 -26 63t-70 24q-62 0 -118 -74q-4 -30 -4 -60q0 -52 25.5 -82.5t70.5 -30.5zM239 -12q-96 0 -148 59.5t-52 165.5q0 69 19.5 146.5t56 150t99 120t139.5 47.5q60 0 106 -25t71 -70l-73 -74q-29 71 -110 71q-64 0 -108.5 -62.5 t-67.5 -149.5q-4 -10 -7 -25q26 35 67.5 58.5t85.5 23.5q71 0 116.5 -43.5t45.5 -118.5q0 -105 -69 -189.5t-171 -84.5z"/>
<glyph glyph-name="seven.onum" horiz-adv-x="450" unicode="" d="M139 -117h-125l331 570h-276l21 97h406l-17 -77z"/>
<glyph glyph-name="eight.onum" horiz-adv-x="509" unicode="" d="M232 86q45 0 80.5 33t35.5 82q0 37 -25.5 63.5t-55.5 35.5q-57 -9 -96.5 -44t-39.5 -87q0 -40 28 -61.5t73 -21.5zM285 384q54 9 89 39.5t35 79.5q0 33 -26.5 54t-67.5 21q-44 0 -75 -30t-31 -75q0 -30 23.5 -54.5t52.5 -34.5zM230 -12q-98 0 -156.5 40t-58.5 120 q0 68 46 124t129 82q-38 20 -64 55.5t-26 79.5q0 83 66.5 135.5t153.5 52.5q84 0 144.5 -39.5t60.5 -115.5q0 -71 -46 -121t-118 -66q44 -25 71 -63.5t27 -85.5q0 -87 -66 -142.5t-163 -55.5z"/>
<glyph glyph-name="nine.onum" horiz-adv-x="513" unicode="" d="M284 463q-53 0 -87.5 -52t-34.5 -108q0 -39 26 -63t70 -24q61 0 117 74q5 25 5 60q0 52 -25.5 82.5t-70.5 30.5zM286 561q97 0 148.5 -59.5t51.5 -165.5q0 -69 -19.5 -146.5t-56 -150t-99 -120t-139.5 -47.5q-59 0 -105 25t-71 70l72 74q31 -71 110 -71q64 0 108.5 62 t68.5 150q2 9 6 25q-25 -35 -66.5 -58.5t-85.5 -23.5q-71 0 -116.5 43.5t-45.5 118.5q0 106 68.5 190t170.5 84z"/>
<glyph glyph-name="question.smcp" horiz-adv-x="339" unicode="" d="M121 -11q-25 0 -43 18t-18 44q0 30 21.5 51t51.5 21q25 0 43 -17.5t18 -43.5q0 -30 -21.5 -51.5t-51.5 -21.5zM367 449q0 -37 -18 -66t-43.5 -47t-51.5 -33t-44 -32.5t-18 -38.5q0 -16 13 -29l-82 -27q-16 24 -16 52q0 30 16 54t38.5 39.5t44.5 29.5t38 33t16 42 t-17.5 36.5t-48.5 13.5q-49 0 -90 -39l-38 64q67 61 151 61q66 0 108 -31.5t42 -81.5z"/>
<glyph glyph-name="A.smcp" horiz-adv-x="469" unicode="" d="M295 197l-16 241l-124 -241h140zM241 550h121l51 -550h-109l-8 107h-182l-54 -107h-113z"/>
<glyph glyph-name="B.smcp" horiz-adv-x="472" unicode="" d="M282 326h4q33 0 53 25.5t20 57.5q0 51 -64 51h-85l-31 -134h103zM128 90h110q34 0 56.5 26.5t22.5 62.5q0 26 -15.5 41.5t-42.5 15.5h-99zM245 0h-240l121 550h194q68 0 109 -31.5t41 -87.5q0 -53 -31.5 -97t-85.5 -55q32 -12 50.5 -40t18.5 -64q0 -72 -47 -123.5 t-130 -51.5z"/>
<glyph glyph-name="C.smcp" horiz-adv-x="479" unicode="" d="M243 -12q-95 0 -153 56.5t-58 157.5q0 87 33 168.5t99 136.5t149 55q71 0 118 -37.5t63 -101.5l-90 -27q-11 35 -36 55t-58 20q-71 0 -122 -84.5t-51 -179.5q0 -62 30.5 -95t82.5 -33q62 0 108 71l77 -43q-81 -119 -192 -119z"/>
<glyph glyph-name="D.smcp" horiz-adv-x="517" unicode="" d="M211 90h2q84 0 131.5 74.5t47.5 170.5q0 60 -33.5 92.5t-93.5 32.5h-55l-82 -370h83zM198 0h-193l121 550h149q99 0 161 -55t62 -155q0 -61 -16.5 -119t-50.5 -108.5t-94.5 -81.5t-138.5 -31z"/>
<glyph glyph-name="E.smcp" horiz-adv-x="421" unicode="" d="M327 0h-322l121 550h322l-19 -90h-219l-30 -134h213l-20 -90h-213l-32 -146h219z"/>
<glyph glyph-name="F.smcp" horiz-adv-x="413" unicode="" d="M108 0h-103l121 550h322l-19 -90h-219l-30 -134h213l-20 -90h-213z"/>
<glyph glyph-name="G.smcp" horiz-adv-x="508" unicode="" d="M248 -12q-98 0 -157.5 57t-59.5 156q0 90 33.5 171.5t99.5 135.5t150 54q67 0 115 -36.5t65 -95.5l-90 -30q-11 31 -36 51t-60 20q-49 0 -89 -41.5t-60.5 -102t-20.5 -122.5q0 -60 31.5 -93t83.5 -33q49 0 81 26l24 106h-107l19 85h204l-54 -244q-76 -64 -172 -64z"/>
<glyph glyph-name="H.smcp" horiz-adv-x="531" unicode="" d="M418 0h-103l52 237h-206l-53 -237h-103l121 550h103l-49 -223h207l49 223h103z"/>
<glyph glyph-name="I.smcp" horiz-adv-x="222" unicode="" d="M108 0h-103l121 550h103z"/>
<glyph glyph-name="J.smcp" horiz-adv-x="364" unicode="" d="M101 -12q-96 0 -138 57l53 75q26 -41 76 -41q73 0 90 82l86 389h103l-88 -399q-18 -86 -62.5 -124.5t-119.5 -38.5z"/>
<glyph glyph-name="K.smcp" horiz-adv-x="476" unicode="" d="M415 0h-120l-98 221l-53 -58l-36 -163h-103l121 550h103l-54 -247l225 247h122l-247 -260z"/>
<glyph glyph-name="L.smcp" horiz-adv-x="389" unicode="" d="M308 0h-303l121 550h103l-101 -460h200z"/>
<glyph glyph-name="M.smcp" horiz-adv-x="631" unicode="" d="M518 0h-103l84 382l-216 -382h-43l-47 382l-85 -382h-103l121 550h133l44 -356l201 356h135z"/>
<glyph glyph-name="N.smcp" horiz-adv-x="527" unicode="" d="M414 0h-103l-121 370l-82 -370h-103l121 550h108l119 -359l79 359h103z"/>
<glyph glyph-name="O.smcp" horiz-adv-x="540" unicode="" d="M246 79q50 0 90.5 44.5t59.5 104t19 116.5q0 58 -28.5 92.5t-80.5 34.5q-50 0 -90.5 -44.5t-59.5 -104t-19 -116.5q0 -58 28.5 -92.5t80.5 -34.5zM242 -12q-96 0 -153 58t-57 157q0 61 18.5 123t52 115.5t87.5 87t119 33.5q97 0 154 -58t57 -157q0 -83 -30.5 -163 t-96 -138t-151.5 -58z"/>
<glyph glyph-name="P.smcp" horiz-adv-x="453" unicode="" d="M264 292h5q40 0 64.5 31.5t24.5 73.5q0 30 -18.5 46.5t-51.5 16.5h-78l-37 -168h91zM108 0h-103l121 550h177q74 0 118 -39.5t44 -104.5q0 -81 -53 -142.5t-143 -61.5h-116z"/>
<glyph glyph-name="Q.smcp" horiz-adv-x="540" unicode="" d="M246 79q14 0 21 2l-37 92l75 31l32 -80q36 39 57 101t21 119q0 58 -28.5 92.5t-80.5 34.5q-50 0 -90.5 -44.5t-59.5 -104t-19 -116.5q0 -58 28.5 -92.5t80.5 -34.5zM242 -12q-96 0 -153 58t-57 157q0 61 18.5 123t52 115.5t87.5 87t119 33.5q97 0 154 -58t57 -157 q0 -90 -38.5 -179t-106.5 -137l14 -33l-76 -31l-12 29q-29 -8 -59 -8z"/>
<glyph glyph-name="R.smcp" horiz-adv-x="472" unicode="" d="M258 292h9q42 0 66.5 32t24.5 72q0 30 -18.5 47t-48.5 17h-81l-37 -168h85zM384 0h-114l-50 202h-67l-45 -202h-103l121 550h176q76 0 120 -39.5t44 -104.5q0 -70 -40 -125.5t-106 -67.5z"/>
<glyph glyph-name="S.smcp" horiz-adv-x="425" unicode="" d="M187 -12q-136 0 -201 81l62 76q47 -66 139 -66q42 0 64 23t22 57q0 23 -21 42.5t-50.5 35t-59.5 34.5t-51 49.5t-21 70.5q0 70 55.5 120.5t136.5 50.5q112 0 177 -73l-61 -74q-19 26 -51.5 41t-66.5 15t-57.5 -21t-23.5 -51q0 -22 21 -40t50.5 -33.5t59.5 -35t51 -52.5 t21 -76q0 -69 -53 -121.5t-142 -52.5z"/>
<glyph glyph-name="T.smcp" horiz-adv-x="389" unicode="" d="M192 0h-103l101 460h-124l20 90h350l-20 -90h-123z"/>
<glyph glyph-name="U.smcp" horiz-adv-x="526" unicode="" d="M240 -12q-95 0 -147 41.5t-52 111.5q0 23 6 51l79 358h104l-79 -357q-4 -20 -4 -31q0 -41 25 -62t69 -21q85 0 111 115l78 356h104l-79 -357q-23 -102 -73.5 -153.5t-141.5 -51.5z"/>
<glyph glyph-name="V.smcp" horiz-adv-x="469" unicode="" d="M241 0h-121l-52 550h111l28 -421l215 421h112z"/>
<glyph glyph-name="W.smcp" horiz-adv-x="651" unicode="" d="M459 0h-107l1 372l-163 -372h-106l-12 550h110l-4 -385l172 385h83l2 -386l167 386h110z"/>
<glyph glyph-name="X.smcp" horiz-adv-x="471" unicode="" d="M416 0h-116l-72 203l-161 -203h-120l231 281l-100 269h116l65 -191l149 191h119l-218 -268z"/>
<glyph glyph-name="Y.smcp" horiz-adv-x="459" unicode="" d="M228 0h-103l50 230l-109 320h112l69 -225l166 225h114l-249 -320z"/>
<glyph glyph-name="Z.smcp" horiz-adv-x="416" unicode="" d="M331 0h-354l17 78l301 381h-216l19 91h348l-17 -76l-302 -383h224z"/>
<glyph glyph-name="exclamdown.smcp" horiz-adv-x="193" unicode="" d="M144 561q25 0 43 -18t18 -44q0 -30 -21.5 -51t-51.5 -21q-26 0 -43.5 17.5t-17.5 43.5q0 30 21.5 51.5t51.5 21.5zM-26 0l96 366h79l-64 -366h-111z"/>
<glyph glyph-name="questiondown.smcp" horiz-adv-x="339" unicode="" d="M218 561q25 0 43 -18t18 -44q0 -30 -21.5 -51t-51.5 -21q-26 0 -43.5 17.5t-17.5 43.5q0 30 21.5 51.5t51.5 21.5zM-28 101q0 37 18 66t43.5 47t51.5 33t44 32.5t18 38.5q0 16 -13 29l82 27q16 -24 16 -52q0 -30 -16 -54t-38 -39.5t-44.5 -29.5t-38.5 -33t-16 -42 t17.5 -36.5t48.5 -13.5q49 0 90 39l38 -64q-67 -61 -151 -61q-66 0 -108 31.5t-42 81.5z"/>
<glyph glyph-name="Agrave.smcp" horiz-adv-x="469" unicode="" d="M382 606h-68l-103 144h92zM295 197l-16 241l-124 -241h140zM241 550h121l51 -550h-109l-8 107h-182l-54 -107h-113z"/>
<glyph glyph-name="Aacute.smcp" horiz-adv-x="469" unicode="" d="M484 750l-167 -144h-70l142 144h95zM295 197l-16 241l-124 -241h140zM241 550h121l51 -550h-109l-8 107h-182l-54 -107h-113z"/>
<glyph glyph-name="Acircumflex.smcp" horiz-adv-x="469" unicode="" d="M440 606h-58l-46 97l-85 -97h-62l110 144h92zM295 197l-16 241l-124 -241h140zM241 550h121l51 -550h-109l-8 107h-182l-54 -107h-113z"/>
<glyph glyph-name="Atilde.smcp" horiz-adv-x="469" unicode="" d="M374 604q-22 0 -36.5 12.5t-20 28t-15.5 28t-24 12.5q-33 0 -49 -75h-55q29 134 110 134q23 0 37.5 -12.5t20 -28t15.5 -28t24 -12.5q32 0 49 75h55q-29 -134 -111 -134zM295 197l-16 241l-124 -241h140zM241 550h121l51 -550h-109l-8 107h-182l-54 -107h-113z"/>
<glyph glyph-name="Adieresis.smcp" horiz-adv-x="469" unicode="" d="M293 672q0 -25 -19 -43.5t-45 -18.5q-21 0 -35.5 14.5t-14.5 35.5q0 25 19.5 43.5t44.5 18.5q21 0 35.5 -14t14.5 -36zM475 672q0 -25 -19 -43.5t-44 -18.5q-22 0 -36 14.5t-14 35.5q0 25 19 43.5t44 18.5q21 0 35.5 -14t14.5 -36zM295 197l-16 241l-124 -241h140z M241 550h121l51 -550h-109l-8 107h-182l-54 -107h-113z"/>
<glyph glyph-name="Aring.smcp" horiz-adv-x="469" unicode="" d="M329 648q21 0 37 15.5t16 36.5q0 19 -11.5 31t-30.5 12q-21 0 -37 -15.5t-16 -36.5q0 -19 11.5 -31t30.5 -12zM324 600q-37 0 -60.5 24t-23.5 62q0 42 31 73t73 31q38 0 61.5 -24t23.5 -61q0 -42 -31.5 -73.5t-73.5 -31.5zM295 197l-16 241l-124 -241h140zM241 550h121 l51 -550h-109l-8 107h-182l-54 -107h-113z"/>
<glyph glyph-name="AE.smcp" horiz-adv-x="671" unicode="" d="M297 197l54 241l-165 -241h111zM577 0h-323l24 107h-148l-72 -107h-113l388 550h365l-20 -90h-219l-30 -134h213l-20 -90h-213l-31 -146h219z"/>
<glyph glyph-name="Ccedilla.smcp" horiz-adv-x="479" unicode="" d="M186 -193q-65 0 -101 39l30 41q29 -34 72 -34q23 0 36.5 12t13.5 30q0 26 -28 26q-16 0 -29 -15l-34 22l39 66q-71 16 -112 69.5t-41 138.5q0 87 33 168.5t99 136.5t149 55q71 0 118 -37.5t63 -101.5l-90 -27q-11 35 -36 55t-58 20q-71 0 -122 -84.5t-51 -179.5 q0 -62 30.5 -95t82.5 -33q62 0 108 71l77 -43q-81 -119 -192 -119h-10l-25 -41q13 10 28 10q24 0 39.5 -16t15.5 -43q0 -40 -30 -65.5t-75 -25.5z"/>
<glyph glyph-name="Egrave.smcp" horiz-adv-x="421" unicode="" d="M369 606h-68l-103 144h92zM327 0h-322l121 550h322l-19 -90h-219l-30 -134h213l-20 -90h-213l-32 -146h219z"/>
<glyph glyph-name="Eacute.smcp" horiz-adv-x="421" unicode="" d="M471 750l-167 -144h-70l142 144h95zM327 0h-322l121 550h322l-19 -90h-219l-30 -134h213l-20 -90h-213l-32 -146h219z"/>
<glyph glyph-name="Ecircumflex.smcp" horiz-adv-x="421" unicode="" d="M427 606h-58l-46 97l-85 -97h-62l110 144h92zM327 0h-322l121 550h322l-19 -90h-219l-30 -134h213l-20 -90h-213l-32 -146h219z"/>
<glyph glyph-name="Edieresis.smcp" horiz-adv-x="421" unicode="" d="M279 672q0 -25 -19 -43.5t-45 -18.5q-21 0 -35.5 14.5t-14.5 35.5q0 25 19.5 43.5t44.5 18.5q21 0 35.5 -14t14.5 -36zM461 672q0 -25 -19 -43.5t-44 -18.5q-22 0 -36 14.5t-14 35.5q0 25 19 43.5t44 18.5q21 0 35.5 -14t14.5 -36zM327 0h-322l121 550h322l-19 -90h-219 l-30 -134h213l-20 -90h-213l-32 -146h219z"/>
<glyph glyph-name="Igrave.smcp" horiz-adv-x="219" unicode="" d="M256 606h-68l-103 144h92zM108 0h-103l121 550h103z"/>
<glyph glyph-name="Iacute.smcp" horiz-adv-x="219" unicode="" d="M359 750l-167 -144h-70l142 144h95zM108 0h-103l121 550h103z"/>
<glyph glyph-name="Icircumflex.smcp" horiz-adv-x="219" unicode="" d="M315 606h-58l-46 97l-85 -97h-62l110 144h92zM108 0h-103l121 550h103z"/>
<glyph glyph-name="Idieresis.smcp" horiz-adv-x="219" unicode="" d="M169 672q0 -25 -19 -43.5t-45 -18.5q-21 0 -35.5 14.5t-14.5 35.5q0 25 19.5 43.5t44.5 18.5q21 0 35.5 -14t14.5 -36zM351 672q0 -25 -19 -43.5t-44 -18.5q-22 0 -36 14.5t-14 35.5q0 25 19 43.5t44 18.5q21 0 35.5 -14t14.5 -36zM108 0h-103l121 550h103z"/>
<glyph glyph-name="Eth.smcp" horiz-adv-x="534" unicode="" d="M222 90q84 0 131.5 74.5t47.5 170.5q0 60 -33.5 92.5t-93.5 32.5h-55l-33 -145h90l-16 -73h-90l-33 -152h85zM207 0h-193l53 242h-54l16 73h54l52 235h149q99 0 161 -55t62 -155q0 -61 -16.5 -119t-50.5 -108.5t-94.5 -81.5t-138.5 -31z"/>
<glyph glyph-name="Ntilde.smcp" horiz-adv-x="527" unicode="" d="M402 604q-22 0 -36.5 12.5t-20 28t-15.5 28t-24 12.5q-33 0 -49 -75h-55q29 134 110 134q23 0 37.5 -12.5t20 -28t15.5 -28t24 -12.5q32 0 49 75h55q-29 -134 -111 -134zM414 0h-103l-121 370l-82 -370h-103l121 550h108l119 -359l79 359h103z"/>
<glyph glyph-name="Ograve.smcp" horiz-adv-x="540" unicode="" d="M417 606h-68l-103 144h92zM246 79q50 0 90.5 44.5t59.5 104t19 116.5q0 58 -28.5 92.5t-80.5 34.5q-50 0 -90.5 -44.5t-59.5 -104t-19 -116.5q0 -58 28.5 -92.5t80.5 -34.5zM242 -12q-96 0 -153 58t-57 157q0 61 18.5 123t52 115.5t87.5 87t119 33.5q97 0 154 -58 t57 -157q0 -83 -30.5 -163t-96 -138t-151.5 -58z"/>
<glyph glyph-name="Oacute.smcp" horiz-adv-x="540" unicode="" d="M520 750l-167 -144h-70l142 144h95zM246 79q50 0 90.5 44.5t59.5 104t19 116.5q0 58 -28.5 92.5t-80.5 34.5q-50 0 -90.5 -44.5t-59.5 -104t-19 -116.5q0 -58 28.5 -92.5t80.5 -34.5zM242 -12q-96 0 -153 58t-57 157q0 61 18.5 123t52 115.5t87.5 87t119 33.5 q97 0 154 -58t57 -157q0 -83 -30.5 -163t-96 -138t-151.5 -58z"/>
<glyph glyph-name="Ocircumflex.smcp" horiz-adv-x="540" unicode="" d="M476 606h-58l-46 97l-85 -97h-62l110 144h92zM246 79q50 0 90.5 44.5t59.5 104t19 116.5q0 58 -28.5 92.5t-80.5 34.5q-50 0 -90.5 -44.5t-59.5 -104t-19 -116.5q0 -58 28.5 -92.5t80.5 -34.5zM242 -12q-96 0 -153 58t-57 157q0 61 18.5 123t52 115.5t87.5 87t119 33.5 q97 0 154 -58t57 -157q0 -83 -30.5 -163t-96 -138t-151.5 -58z"/>
<glyph glyph-name="Otilde.smcp" horiz-adv-x="540" unicode="" d="M410 604q-22 0 -36.5 12.5t-20 28t-15.5 28t-24 12.5q-33 0 -49 -75h-55q29 134 110 134q23 0 37.5 -12.5t20 -28t15.5 -28t24 -12.5q32 0 49 75h55q-29 -134 -111 -134zM246 79q50 0 90.5 44.5t59.5 104t19 116.5q0 58 -28.5 92.5t-80.5 34.5q-50 0 -90.5 -44.5 t-59.5 -104t-19 -116.5q0 -58 28.5 -92.5t80.5 -34.5zM242 -12q-96 0 -153 58t-57 157q0 61 18.5 123t52 115.5t87.5 87t119 33.5q97 0 154 -58t57 -157q0 -83 -30.5 -163t-96 -138t-151.5 -58z"/>
<glyph glyph-name="Odieresis.smcp" horiz-adv-x="540" unicode="" d="M329 672q0 -25 -19 -43.5t-45 -18.5q-21 0 -35.5 14.5t-14.5 35.5q0 25 19.5 43.5t44.5 18.5q21 0 35.5 -14t14.5 -36zM511 672q0 -25 -19 -43.5t-44 -18.5q-22 0 -36 14.5t-14 35.5q0 25 19 43.5t44 18.5q21 0 35.5 -14t14.5 -36zM246 79q50 0 90.5 44.5t59.5 104 t19 116.5q0 58 -28.5 92.5t-80.5 34.5q-50 0 -90.5 -44.5t-59.5 -104t-19 -116.5q0 -58 28.5 -92.5t80.5 -34.5zM242 -12q-96 0 -153 58t-57 157q0 61 18.5 123t52 115.5t87.5 87t119 33.5q97 0 154 -58t57 -157q0 -83 -30.5 -163t-96 -138t-151.5 -58z"/>
<glyph glyph-name="Oslash.smcp" horiz-adv-x="540" unicode="" d="M137 206q0 -21 5 -44l240 279q-28 30 -76 30q-50 0 -90.5 -44.5t-59.5 -104t-19 -116.5zM246 79q50 0 90.5 44.5t59.5 104t19 116.5q0 21 -5 44l-241 -279q28 -30 77 -30zM242 -12q-83 0 -138 44l-28 -32h-74l64 74q-34 53 -34 129q0 61 18.5 123t52 115.5t87.5 87 t119 33.5q85 0 139 -45l28 33h74l-64 -74q34 -54 34 -129q0 -83 -30.5 -163t-96 -138t-151.5 -58z"/>
<glyph glyph-name="Ugrave.smcp" horiz-adv-x="526" unicode="" d="M410 606h-68l-103 144h92zM240 -12q-95 0 -147 41.5t-52 111.5q0 23 6 51l79 358h104l-79 -357q-4 -20 -4 -31q0 -41 25 -62t69 -21q85 0 111 115l78 356h104l-79 -357q-23 -102 -73.5 -153.5t-141.5 -51.5z"/>
<glyph glyph-name="Uacute.smcp" horiz-adv-x="526" unicode="" d="M513 750l-167 -144h-70l142 144h95zM240 -12q-95 0 -147 41.5t-52 111.5q0 23 6 51l79 358h104l-79 -357q-4 -20 -4 -31q0 -41 25 -62t69 -21q85 0 111 115l78 356h104l-79 -357q-23 -102 -73.5 -153.5t-141.5 -51.5z"/>
<glyph glyph-name="Ucircumflex.smcp" horiz-adv-x="526" unicode="" d="M469 606h-58l-46 97l-85 -97h-62l110 144h92zM240 -12q-95 0 -147 41.5t-52 111.5q0 23 6 51l79 358h104l-79 -357q-4 -20 -4 -31q0 -41 25 -62t69 -21q85 0 111 115l78 356h104l-79 -357q-23 -102 -73.5 -153.5t-141.5 -51.5z"/>
<glyph glyph-name="Udieresis.smcp" horiz-adv-x="526" unicode="" d="M321 672q0 -25 -19 -43.5t-45 -18.5q-21 0 -35.5 14.5t-14.5 35.5q0 25 19.5 43.5t44.5 18.5q21 0 35.5 -14t14.5 -36zM503 672q0 -25 -19 -43.5t-44 -18.5q-22 0 -36 14.5t-14 35.5q0 25 19 43.5t44 18.5q21 0 35.5 -14t14.5 -36zM240 -12q-95 0 -147 41.5t-52 111.5 q0 23 6 51l79 358h104l-79 -357q-4 -20 -4 -31q0 -41 25 -62t69 -21q85 0 111 115l78 356h104l-79 -357q-23 -102 -73.5 -153.5t-141.5 -51.5z"/>
<glyph glyph-name="Yacute.smcp" horiz-adv-x="459" unicode="" d="M480 750l-167 -144h-70l142 144h95zM228 0h-103l50 230l-109 320h112l69 -225l166 225h114l-249 -320z"/>
<glyph glyph-name="Thorn.smcp" horiz-adv-x="453" unicode="" d="M237 205h12q40 0 64.5 32t24.5 72q0 63 -71 63h-77l-37 -167h84zM108 0h-103l121 550h103l-18 -88h72q76 0 119 -37.5t43 -106.5q0 -80 -53 -141.5t-142 -61.5h-117z"/>
<glyph glyph-name="Ydieresis.smcp" horiz-adv-x="459" unicode="" d="M289 672q0 -25 -19 -43.5t-45 -18.5q-21 0 -35.5 14.5t-14.5 35.5q0 25 19.5 43.5t44.5 18.5q21 0 35.5 -14t14.5 -36zM471 672q0 -25 -19 -43.5t-44 -18.5q-22 0 -36 14.5t-14 35.5q0 25 19 43.5t44 18.5q21 0 35.5 -14t14.5 -36zM228 0h-103l50 230l-109 320h112 l69 -225l166 225h114l-249 -320z"/>
</font>
</defs>
</svg>
