<?xml version="1.0" encoding="utf-8"?>
<!-- Generator: Adobe Illustrator 16.0.0, SVG Export Plug-In . SVG Version: 6.00 Build 0)  -->
<!DOCTYPE svg PUBLIC "-//W3C//DTD SVG 1.1//EN" "http://www.w3.org/Graphics/SVG/1.1/DTD/svg11.dtd">
<svg version="1.1" id="Layer_1" xmlns="http://www.w3.org/2000/svg" xmlns:xlink="http://www.w3.org/1999/xlink" x="0px" y="0px"
	 width="357.955px" height="119.985px" viewBox="0 0 357.955 119.985" enable-background="new 0 0 357.955 119.985"
	 xml:space="preserve">
<polygon fill="#FFFFFF" points="45.56,46.222 45.56,73.941 67.961,73.941 67.961,67.889 53.415,67.889 53.415,46.222 "/>
<g>
	<defs>
		<rect id="SVGID_1_" x="45.56" y="45.771" width="267.44" height="28.678"/>
	</defs>
	<clipPath id="SVGID_2_">
		<use xlink:href="#SVGID_1_"  overflow="visible"/>
	</clipPath>
	<path clip-path="url(#SVGID_2_)" fill="#FFFFFF" d="M84.893,74.449c-5.199,0-9.2-1.246-11.998-3.741
		c-2.8-2.492-4.202-6.055-4.202-10.691c0-4.486,1.487-7.981,4.464-10.485c2.976-2.508,7.132-3.759,12.469-3.759
		c5.287,0,9.349,1.251,12.188,3.759c2.837,2.504,4.257,6.087,4.257,10.748c0,4.598-1.462,8.108-4.39,10.535
		C94.755,73.237,90.493,74.449,84.893,74.449 M76.774,60.354c0,2.906,0.711,5.091,2.132,6.549c1.422,1.461,3.551,2.19,6.381,2.19
		c2.882,0,5.045-0.718,6.493-2.152c1.447-1.434,2.169-3.58,2.169-6.437c0-3.069-0.746-5.408-2.234-7.019
		c-1.491-1.609-3.659-2.415-6.504-2.415c-2.667,0-4.742,0.813-6.219,2.444C77.514,55.143,76.774,57.423,76.774,60.354"/>
	<path clip-path="url(#SVGID_2_)" fill="#FFFFFF" d="M128.736,68.248v-4.587h-6.952v-5.186h14.771v14.04
		c-2.018,0.624-4.15,1.099-6.399,1.416c-2.249,0.32-4.609,0.48-7.074,0.48c-5.889,0-10.313-1.18-13.27-3.541
		c-2.957-2.362-4.435-5.879-4.435-10.554c0-4.636,1.46-8.2,4.379-10.693c2.919-2.492,7.091-3.738,12.516-3.738
		c4.586,0,8.065,0.764,10.438,2.292c2.375,1.528,3.657,3.827,3.845,6.897h-8.476c-0.052-1.266-0.611-2.268-1.682-3.006
		c-1.071-0.74-2.521-1.108-4.351-1.108c-2.73,0-4.832,0.772-6.304,2.32c-1.473,1.546-2.208,3.749-2.208,6.604
		c0,3.046,0.78,5.333,2.34,6.87c1.56,1.534,3.888,2.302,6.98,2.302c0.928,0,1.88-0.067,2.857-0.205
		C126.688,68.709,127.696,68.509,128.736,68.248"/>
	<path clip-path="url(#SVGID_2_)" fill="#FFFFFF" d="M156.324,74.449c-5.199,0-9.2-1.246-12-3.741
		c-2.798-2.492-4.2-6.055-4.2-10.691c0-4.486,1.487-7.981,4.464-10.485c2.976-2.508,7.132-3.759,12.468-3.759
		c5.287,0,9.349,1.251,12.188,3.759c2.838,2.504,4.257,6.087,4.257,10.748c0,4.598-1.462,8.108-4.39,10.535
		C166.187,73.237,161.924,74.449,156.324,74.449 M148.206,60.354c0,2.906,0.711,5.091,2.132,6.549
		c1.422,1.461,3.551,2.19,6.381,2.19c2.882,0,5.045-0.718,6.493-2.152c1.446-1.434,2.169-3.58,2.169-6.437
		c0-3.069-0.746-5.408-2.234-7.019c-1.491-1.609-3.659-2.415-6.504-2.415c-2.667,0-4.742,0.813-6.219,2.444
		C148.946,55.143,148.206,57.423,148.206,60.354"/>
	<polygon clip-path="url(#SVGID_2_)" fill="#FFFFFF" points="192.896,46.222 200.751,46.222 200.751,56.933 214.64,56.933 
		214.64,46.222 222.496,46.222 222.496,73.941 214.64,73.941 214.64,62.741 200.751,62.741 200.751,73.941 192.896,73.941 	"/>
	<polygon clip-path="url(#SVGID_2_)" fill="#FFFFFF" points="228.732,73.941 228.732,46.222 252.317,46.222 252.317,52.123 
		236.383,52.123 236.383,56.933 251.548,56.933 251.548,62.628 236.383,62.628 236.383,67.986 252.752,67.986 252.752,73.941 	"/>
	<path clip-path="url(#SVGID_2_)" fill="#FFFFFF" d="M257.261,73.941v-27.72h15.127c2.219,0,3.905,0.093,5.055,0.273
		c1.154,0.182,2.163,0.479,3.027,0.893c1.128,0.551,1.998,1.327,2.614,2.331c0.612,1.002,0.918,2.149,0.918,3.44
		c0,1.915-0.628,3.458-1.889,4.623c-1.26,1.164-3.154,1.96-5.683,2.387c1.904,0.025,3.341,0.285,4.311,0.778
		c0.971,0.496,1.639,1.302,2.003,2.416c0.188,0.578,0.454,2.054,0.798,4.435c0.346,2.381,0.78,4.429,1.307,6.146h-8.156
		c-0.25-0.488-0.476-1.435-0.676-2.837c-0.026-0.176-0.044-0.314-0.056-0.414l-0.526-3.683c-0.227-1.505-0.656-2.486-1.288-2.95
		c-0.635-0.465-2.157-0.696-4.577-0.696h-4.659v10.58H257.261z M264.91,51.578v6.464h4.905c2.316,0,3.908-0.247,4.772-0.741
		c0.864-0.496,1.297-1.35,1.297-2.566c0-1.178-0.402-1.998-1.202-2.462c-0.803-0.463-2.425-0.694-4.867-0.694H264.91z"/>
	<polygon clip-path="url(#SVGID_2_)" fill="#FFFFFF" points="288.983,73.941 288.983,46.222 312.568,46.222 312.568,52.123 
		296.633,52.123 296.633,56.933 311.798,56.933 311.798,62.628 296.633,62.628 296.633,67.986 313,67.986 313,73.941 	"/>
</g>
</svg>
