<?xml version="1.0" encoding="utf-8"?>
<!-- Generator: Adobe Illustrator 16.0.0, SVG Export Plug-In . SVG Version: 6.00 Build 0)  -->
<!DOCTYPE svg PUBLIC "-//W3C//DTD SVG 1.1//EN" "http://www.w3.org/Graphics/SVG/1.1/DTD/svg11.dtd">
<svg version="1.1" id="Layer_1" xmlns="http://www.w3.org/2000/svg" xmlns:xlink="http://www.w3.org/1999/xlink" x="0px" y="0px"
	 width="858.43px" height="322.334px" viewBox="0 0 858.43 322.334" enable-background="new 0 0 858.43 322.334"
	 xml:space="preserve">
<g>
	<path fill="#727272" d="M858.43,322.334H0V0h858.43V322.334z M17.317,305.017h823.795V17.317H17.317V305.017z"/>
</g>
<g>
	<path fill-rule="evenodd" clip-rule="evenodd" fill="#727272" d="M139.647,183.794c1.86,0.035,4.735,0.035,8.498,0.035
		c30.593,0,52.392-5.091,64.839-15.221c12.607-10.063,18.916-27.583,18.916-52.24c0-20.641-4.287-34.922-13.022-42.634
		c-8.591-7.873-24.53-11.728-47.487-11.728c-5.057,0-14.003,0.262-27.126,0.643c-13.301,0.439-23.938,0.541-32.327,0.541
		c-12.058,0-24.344-0.364-36.875-0.947c-2.19-0.22-3.492-0.237-3.89-0.237c-2.512,0-4.102,0.372-4.676,1.15
		c-0.744,0.795-1.116,2.258-1.116,4.989c0,3.856,1.961,5.97,5.792,6.147l8.05,0.702c4.151,0.415,6.857,1.759,8.422,4.262
		c1.37,2.486,2.156,8.929,2.156,19.507v133.939v2.504c0,9.199-0.786,14.679-2.156,17.098c-1.564,2.418-4.271,3.906-8.422,4.16
		l-8.05,0.693c-0.288,0-0.482,0.033-0.862,0.084c-3.315,0.236-4.93,2.503-4.93,6.088c0,2.537,0.372,4.178,1.116,4.973
		c0.574,0.777,2.164,0.98,4.676,0.98c0.465,0,1.741-0.017,3.89-0.067c12.531-0.728,24.817-0.947,36.875-0.947
		c13.725,0,26.949,0.22,39.945,0.947c2.165,0.051,3.399,0.067,3.839,0.067c2.309,0,3.933-0.203,4.651-0.98
		c0.6-0.795,0.98-2.436,0.98-4.973c0-3.721-1.844-5.986-5.632-6.172l-11.043-0.693c-4.135-0.187-7.019-1.675-8.396-4.16
		c-1.539-2.486-2.182-8.777-2.182-19.602v-48.975C135.851,183.728,137.627,183.743,139.647,183.794z M134.101,91.043
		c0-5.42,0.06-9.141,0.102-11.035c0.059-2.012,0.354-3.627,0.541-4.659c2.858-0.296,4.98-0.389,6.562-0.44
		c1.387-0.229,2.681-0.254,3.924-0.254c14.324,0,24.563,3.366,30.854,10.122c6.291,6.773,9.353,17.833,9.353,33.291
		c0,17.884-3.534,30.99-10.705,39.328c-7.213,8.253-18.577,12.48-34.11,12.48c-1.733,0-3.053,0-3.958-0.236
		c-1.057-0.018-1.902-0.068-2.562-0.203V91.043z"/>
</g>
<g>
	<path fill-rule="evenodd" clip-rule="evenodd" fill="#727272" d="M357.028,187.042l-7.72-0.711
		c-2.867-0.118-4.558-0.389-5.065-1.15c-0.643-0.676-0.812-2.384-0.812-5.479c0-2.773,0.381-4.498,0.989-5.226
		c0.812-0.693,2.418-0.981,4.989-0.981c0.423,0,1.648,0.034,3.72,0.085c14.063,0.71,28.843,1.015,44.148,1.015
		c12.522,0,24.767-0.305,36.773-1.015c1.996-0.051,3.214-0.085,3.603-0.085c2.621,0,4.278,0.288,4.888,0.981
		c0.727,0.728,1.099,2.452,1.099,5.226c0,4.041-1.657,6.324-4.921,6.527c-0.389,0.068-0.592,0.102-0.829,0.102l-5.276,0.711
		c-4.6,0.27-7.627,2.4-9.301,5.885c-1.657,3.467-2.47,10.84-2.47,21.833c0,0.169,0,0.946,0,1.995
		c0.152,4.211,0.355,8.253,0.355,11.805c0,7.576,0.406,15.152,1.049,22.797c0.287,1.59,0.338,2.502,0.338,2.672
		c0,2.182-0.457,3.449-1.353,4.77c-0.889,0.98-2.427,1.725-4.287,1.928l-7.002,0.862c-1.623,0.101-10.738,2.367-27.887,6.409
		c-16.954,3.688-32.647,5.564-47.04,5.564c-34.736,0-60.331-8.507-76.432-25.52c-16.074-16.979-24.115-43.937-24.115-80.533
		c0-38.728,8.498-66.665,25.73-83.915c17.233-17.106,44.841-25.858,83.23-25.858c12.032,0,23.828,0.728,35.269,2.046
		c11.391,1.294,22.196,3.306,32.022,5.589c1.775,0.397,3.044,1.125,3.771,1.97c0.532,0.905,0.913,2.554,0.913,5.031v41.991
		c0,1.606-0.397,2.604-0.989,3.332c-0.813,0.566-2.3,0.913-4.144,0.913h-8.396c-4.287,0-7.12-3.729-8.168-11.119
		c-0.397-2.088-0.762-3.67-0.863-4.634c-2.097-11.644-6.934-19.846-14.29-24.86c-7.449-5.074-18.484-7.602-33.299-7.602
		c-22.534,0-38.905,7.238-48.714,21.85c-9.783,14.459-14.771,38.516-14.771,72.052c0,34.584,4.659,59.207,13.951,74.225
		c9.318,14.695,24.599,22.205,45.982,22.205c13.106,0,22.476-1.877,28.091-5.902c5.75-3.703,8.489-10.367,8.489-19.617v-24.438
		c0-9.268-1.251-15.322-3.577-18.416C372.24,189.544,366.338,187.718,357.028,187.042L357.028,187.042z"/>
</g>
<g>
	<path fill-rule="evenodd" clip-rule="evenodd" fill="#727272" d="M454.667,208.452c-1.218,0-2.114-0.136-2.57-0.39
		c-0.474-0.558-0.744-1.285-0.744-2.231v-26.992c0-1.166,0.254-2.096,0.507-2.638c0.457-0.372,1.1-0.728,2.098-0.728h66.885
		c1.133,0,1.962,0.288,2.267,0.559c0.49,0.271,0.727,1.015,0.777,2.351v27.245c0,1.014-0.186,1.826-0.541,2.4
		c-0.474,0.288-1.149,0.424-2.232,0.424H454.667L454.667,208.452z"/>
</g>
<g>
	<path fill-rule="evenodd" clip-rule="evenodd" fill="#727272" d="M569.378,105.08l-24.859,17.19
		c-6.004,4.033-11.044,7.289-14.967,9.504c-3.958,2.368-6.24,3.365-7.34,3.365c-1.1-0.051-1.962-0.474-2.537-1.04
		c-0.524-0.778-0.828-1.894-0.828-3.213v-13.512c0-2.478,3.872-5.006,11.466-7.568c7.593-2.604,14.696-5.64,21.292-9.344
		c5.952-3.314,12.497-7.348,19.347-12.743c6.832-5.37,11.651-7.974,14.273-7.974h21.258c1.674,0,2.705,0.321,3.28,0.803
		c0.339,0.431,0.761,2.08,0.761,4.659v142.573c0,12.717,1.016,20.783,3.383,23.523c2.08,2.756,6.73,4.481,13.462,5.158l7.593,0.693
		c0.406,0.067,1.15,0.084,1.945,0.084c3.382,0.186,5.073,2.436,5.141,6.088c0,2.486-0.271,4.145-1.082,4.938
		c-0.795,0.795-2.503,1.015-5.107,1.015c-0.608,0-2.046-0.017-4.076-0.067c-14.104-0.728-28.394-0.947-42.819-0.947
		c-16.066,0-31.794,0.22-47.606,0.947c-2.435,0.051-3.974,0.067-4.313,0.067c-2.723,0-4.735-0.271-5.732-1.1
		c-0.998-0.896-1.522-2.485-1.522-4.854c0-3.652,2.182-5.902,6.494-6.088c0.964,0,1.962-0.017,2.757-0.084l8.219-0.693
		c8.625-0.795,14.595-2.791,17.724-6.189c2.892-3.789,4.396-10.131,4.396-19.99V105.08L569.378,105.08z"/>
</g>
<g>
	<path fill-rule="evenodd" clip-rule="evenodd" fill="#727272" d="M732.643,166.19c13.123,3.432,22.576,9.03,28.665,16.725
		c6.426,7.627,9.335,17.689,9.335,29.765c0,19.871-5.835,34.533-17.132,44.612c-11.669,10.146-28.563,15.203-50.769,15.203
		c-20.243,0-35.548-3.585-46.202-11.043c-10.384-7.508-15.575-18.416-15.575-32.724c0-5.496,1.269-9.69,4.295-12.244
		c2.791-2.57,7.526-3.974,13.699-3.974c6.95,0,11.82,0.862,14.29,2.638c2.503,1.759,3.619,5.548,3.67,10.705
		c0.693,13.901,2.926,23.085,6.324,27.278c3.467,4.245,9.387,6.512,17.758,6.512c8.506,0,14.595-3.214,18.603-9.369
		c3.67-6.427,5.852-16.54,5.852-30.238c0-17.08-2.47-28.936-7.374-35.564c-4.904-6.63-13.394-9.877-25.469-9.877
		c-2.452,0-4.955,0.051-7.475,0.389c-2.621,0.17-4.228,0.237-4.854,0.237c-1.049,0-1.895-0.254-2.554-0.931
		c-0.338-0.71-0.812-1.708-0.812-3.314v-6.68c0.372-1.404,0.558-2.352,1.234-2.842c0.338-0.625,1.218-0.896,2.672-0.896
		c0.085,0,0.321,0,1.015,0c3.095,0.22,5.817,0.271,8.438,0.271c12.464,0,21.021-2.773,25.993-8.287
		c4.617-5.479,7.137-15.288,7.137-29.35c0-12.176-1.775-21.029-5.276-26.5c-3.585-5.479-9.386-8.151-17.165-8.151
		c-7.356,0-12.582,2.012-15.863,5.894c-3.331,3.864-5.783,11.804-7.356,23.634c-0.354,5.158-1.826,8.583-3.788,10.198
		c-2.266,1.657-6.477,2.46-12.684,2.46c-5.852,0-10.028-1.167-12.565-3.374c-2.554-2.342-3.974-5.869-3.974-10.807
		c0-12.811,5.073-22.56,15.169-29.341c10.13-6.756,24.623-10.13,43.869-10.13c20.919,0,36.394,3.822,47.081,11.466
		c10.367,7.619,15.508,19,15.508,34.153c0,11.153-2.621,20.328-7.863,27.228C752.97,156.888,744.446,162.317,732.643,166.19
		L732.643,166.19z"/>
</g>
</svg>
