<?xml version="1.0" encoding="utf-8"?>
<!-- Generator: Adobe Illustrator 16.0.0, SVG Export Plug-In . SVG Version: 6.00 Build 0)  -->
<!DOCTYPE svg PUBLIC "-//W3C//DTD SVG 1.1//EN" "http://www.w3.org/Graphics/SVG/1.1/DTD/svg11.dtd">
<svg version="1.1" id="Layer_1" xmlns="http://www.w3.org/2000/svg" xmlns:xlink="http://www.w3.org/1999/xlink" x="0px" y="0px"
	 width="17px" height="25px" viewBox="0 0 17 25" enable-background="new 0 0 17 25" xml:space="preserve">
<path fill-rule="evenodd" clip-rule="evenodd" d="M1.308,1.315L2.619,0.66l13.77,10.392l-1.35,1.448l0,0l1.353,1.445L2.646,24.319
	l-1.338-0.636L0,23.699V1.296L1.308,1.315z"/>
<path fill-rule="evenodd" clip-rule="evenodd" d="M1.313,0c0.725,0,1.313,0.588,1.313,1.313S2.037,2.625,1.313,2.625
	C0.587,2.625,0,2.037,0,1.313S0.587,0,1.313,0z"/>
<path fill-rule="evenodd" clip-rule="evenodd" d="M1.313,22.375c0.725,0,1.313,0.588,1.313,1.313S2.037,25,1.313,25
	C0.587,25,0,24.412,0,23.688S0.587,22.375,1.313,22.375z"/>
<path fill-rule="evenodd" clip-rule="evenodd" d="M15.688,11.188c0.725,0,1.313,0.588,1.313,1.313s-0.588,1.313-1.313,1.313
	s-1.313-0.588-1.313-1.313S14.963,11.188,15.688,11.188z"/>
</svg>
